<?xml version="1.0" standalone="no"?>
<!DOCTYPE svg PUBLIC "-//W3C//DTD SVG 20010904//EN"
 "http://www.w3.org/TR/2001/REC-SVG-20010904/DTD/svg10.dtd">
<svg version="1.0" xmlns="http://www.w3.org/2000/svg"
 width="768.000000pt" height="768.000000pt" viewBox="0 0 768.000000 768.000000"
 preserveAspectRatio="xMidYMid meet">

<g transform="translate(0.000000,768.000000) scale(0.100000,-0.100000)"
fill="#000000" stroke="none">
<path d="M1272 4023 l3 -2538 848 -3 847 -2 0 -415 0 -415 840 0 840 0 0 415
0 415 848 2 847 3 3 2538 2 2537 -2540 0 -2540 0 2 -2537z m562 2427 c95 -40
100 -52 104 -243 2 -97 -1 -177 -7 -198 -23 -77 -160 -127 -316 -115 -116 10
-160 24 -208 66 l-42 38 -3 159 c-4 187 4 232 51 266 59 45 112 56 242 54 102
-2 129 -6 179 -27z m1106 13 c36 -10 76 -30 98 -49 l37 -32 3 -183 c2 -167 1
-187 -17 -215 -75 -121 -448 -121 -535 -1 -19 26 -21 43 -21 200 0 223 9 241
139 282 61 19 225 18 296 -2z m671 1 c134 -40 149 -67 149 -274 0 -170 -8
-202 -61 -243 -49 -36 -110 -50 -224 -51 -136 -1 -196 16 -252 69 l-44 43 3
185 3 186 29 30 c45 47 123 69 242 70 65 1 119 -5 155 -15z m1183 -15 c96 -39
100 -50 104 -249 4 -192 -3 -219 -64 -258 -54 -35 -163 -55 -259 -48 -116 10
-160 24 -208 66 l-42 38 -3 160 c-4 187 5 231 51 266 56 42 120 56 247 53 95
-3 125 -7 174 -28z m617 15 c132 -39 149 -70 149 -280 0 -164 -9 -197 -61
-237 -50 -37 -111 -51 -229 -51 -138 0 -204 19 -254 75 l-37 40 3 184 3 184
29 30 c45 47 123 69 242 70 65 1 120 -5 155 -15z m682 -1 c41 -11 72 -28 98
-53 l39 -37 0 -185 c0 -173 -1 -187 -21 -212 -47 -60 -174 -93 -313 -82 -107
9 -165 29 -207 72 l-34 35 -3 158 c-2 95 1 175 8 200 12 47 51 80 120 104 63
22 236 22 313 0z m-3682 -273 c-1 -151 -5 -278 -10 -283 -4 -4 -57 -6 -117 -5
l-109 3 -3 191 c-3 223 0 216 -101 224 -65 5 -66 5 -69 36 l-3 31 80 15 c44 9
104 28 133 41 44 21 66 25 126 24 l74 -2 -1 -275z m1800 1 c-1 -151 -4 -278
-7 -283 -9 -14 -224 -10 -229 5 -2 6 -5 94 -7 194 -2 133 -7 186 -16 195 -7 7
-43 15 -80 18 -66 5 -67 5 -70 36 l-3 31 80 15 c44 9 104 28 133 41 44 21 66
25 126 24 l74 -2 -1 -274z m1847 -340 c10 -1 12 -60 10 -278 l-3 -278 -122 -3
-123 -3 0 190 c0 221 0 221 -85 221 -72 0 -85 6 -85 41 0 23 5 30 28 34 92 20
160 38 191 52 62 29 69 30 189 24z m-4200 -349 l2 -283 -122 3 -123 3 -3 189
c-1 119 -7 194 -13 203 -7 8 -33 13 -69 13 -77 0 -90 6 -90 41 0 22 5 30 23
33 93 18 167 39 211 60 40 20 65 24 116 23 l65 -2 3 -283z m3642 -1482 l0
-1690 -1690 0 -1690 0 0 1690 0 1690 1690 0 1690 0 0 -1690z m498 1215 c29 -9
67 -29 85 -45 l32 -28 3 -184 c3 -203 -1 -217 -57 -255 -53 -36 -107 -47 -226
-47 -135 -1 -195 15 -245 63 -47 45 -54 81 -48 264 3 116 6 137 26 169 23 37
69 62 147 79 58 12 221 3 283 -16z m-4100 -70 c83 -20 119 -39 142 -78 18 -28
20 -51 20 -200 0 -195 -5 -211 -78 -254 -44 -26 -55 -28 -186 -32 -153 -3
-200 5 -255 46 -56 43 -63 76 -59 258 4 177 11 200 72 232 80 42 232 54 344
28z m4164 -557 c89 -41 93 -51 93 -259 0 -204 -3 -214 -91 -259 -45 -23 -58
-25 -199 -25 -167 0 -204 11 -259 75 -26 31 -26 33 -26 202 0 197 8 226 71
259 63 31 107 38 234 36 105 -3 127 -6 177 -29z m-4165 -52 c71 -19 118 -50
134 -89 10 -22 14 -79 14 -192 0 -189 -8 -212 -90 -254 -43 -22 -66 -26 -169
-29 -151 -5 -229 13 -280 66 -30 30 -36 44 -42 101 -11 104 1 294 21 324 39
60 115 85 260 86 56 0 123 -5 152 -13z m4198 -851 l0 -280 -120 0 -120 0 -3
191 c-2 158 -5 194 -18 205 -8 7 -45 15 -82 18 -66 6 -67 6 -67 35 0 28 2 29
85 46 47 10 108 29 135 42 40 21 63 25 120 24 l70 -1 0 -280z m-4201 229 c3
-9 6 -130 6 -269 0 -139 -3 -260 -6 -269 -5 -13 -26 -16 -125 -16 l-119 0 0
188 c0 228 2 225 -99 230 -71 4 -71 4 -71 33 0 16 6 31 13 33 6 2 46 11 87 20
41 9 98 27 125 40 62 30 179 36 189 10z m4121 -568 c73 -19 113 -43 135 -79
18 -28 20 -51 20 -202 0 -198 -6 -217 -87 -256 -44 -22 -60 -24 -198 -24 -140
0 -153 2 -199 25 -82 41 -90 60 -94 213 -5 188 2 234 43 273 19 17 57 38 87
47 66 19 226 21 293 3z m-4120 -306 l0 -275 -122 -3 -123 -3 0 184 c0 222 1
220 -97 227 -68 5 -68 5 -71 36 l-3 31 82 16 c45 9 104 28 133 41 42 20 64 24
126 23 l75 -2 0 -275z m4168 -327 c35 -10 64 -28 90 -55 l37 -39 0 -172 c0
-206 -6 -222 -98 -265 -53 -25 -66 -27 -192 -27 -126 0 -139 2 -192 27 -91 43
-98 60 -98 258 0 194 8 220 81 258 84 42 256 50 372 15z m-4092 -14 c85 -40
91 -59 87 -275 l-3 -176 -37 -33 c-52 -48 -102 -60 -253 -60 -122 0 -134 2
-187 28 -86 42 -92 57 -96 221 -2 76 -1 158 3 182 8 58 44 98 108 123 45 18
71 21 187 18 121 -2 141 -5 191 -28z m-13 -601 c39 -16 63 -34 79 -57 22 -32
23 -43 23 -203 0 -194 -5 -213 -74 -253 -94 -55 -322 -57 -418 -3 -79 44 -83
56 -83 256 0 196 5 216 69 249 90 48 296 53 404 11z m1129 7 c28 -10 64 -31
80 -47 l28 -29 0 -194 c0 -216 0 -217 -78 -257 -96 -48 -319 -47 -409 4 -79
44 -83 56 -83 251 0 189 7 216 65 251 82 48 283 58 397 21z m608 15 c81 -13
143 -47 166 -90 16 -30 19 -58 19 -193 0 -126 -3 -164 -16 -189 -39 -75 -113
-103 -274 -102 -145 1 -192 14 -247 69 l-43 42 0 169 c0 141 3 175 18 204 40
81 200 119 377 90z m722 -14 c60 -19 109 -68 118 -120 4 -19 5 -100 3 -179 -3
-164 -10 -182 -84 -224 -96 -54 -325 -53 -419 2 -72 42 -77 59 -73 265 l3 179
29 30 c27 28 82 52 146 65 48 9 225 -3 277 -18z m688 -7 c42 -17 66 -34 82
-58 22 -32 23 -43 23 -203 0 -194 -5 -213 -74 -253 -94 -55 -322 -57 -418 -3
-79 44 -83 56 -83 256 0 201 5 216 78 254 57 29 117 37 232 34 76 -3 114 -9
160 -27z m-2567 -253 c2 -193 -1 -272 -9 -283 -9 -10 -37 -13 -123 -11 l-111
3 -3 190 c-3 226 -2 225 -108 225 l-64 0 0 33 0 33 88 18 c48 9 107 28 132 41
36 18 59 22 120 21 l75 -1 3 -269z m3150 0 c2 -193 -1 -272 -9 -283 -9 -10
-37 -13 -123 -11 l-111 3 -3 190 c-3 226 -2 225 -108 225 l-64 0 0 34 c0 34 1
34 52 41 62 9 164 41 193 61 14 10 42 14 95 12 l75 -3 3 -269z m467 -11 l0
-280 -125 0 -125 0 -3 195 c-1 107 -6 198 -11 203 -5 5 -42 12 -82 15 l-74 7
0 30 c0 28 3 31 56 41 76 15 165 44 186 60 13 10 43 13 98 11 l80 -2 0 -280z
m-2346 -513 c19 -9 44 -30 55 -45 20 -27 21 -42 21 -227 0 -186 -1 -200 -21
-227 -35 -47 -82 -68 -149 -68 -72 0 -120 24 -150 75 -18 32 -20 52 -20 220 0
209 7 235 75 271 46 25 142 25 189 1z m-499 -226 c0 -230 7 -281 30 -221 6 15
10 122 10 241 l0 214 76 0 75 0 -3 -239 c-3 -263 -4 -264 -72 -315 -37 -28
-134 -28 -190 -1 -73 35 -76 49 -76 318 l0 237 75 0 75 0 0 -234z m754 122 c3
-62 9 -144 13 -183 l7 -70 18 160 c25 225 15 205 102 205 l73 0 13 -147 c13
-158 28 -235 29 -153 1 25 8 100 16 165 8 66 15 123 15 128 0 4 34 7 76 7 l76
0 -6 -37 c-3 -21 -17 -132 -31 -248 -14 -116 -28 -227 -31 -247 l-6 -38 -89 0
c-103 0 -91 -17 -119 163 -9 62 -20 105 -23 97 -3 -8 -13 -67 -21 -130 -9 -63
-20 -118 -25 -123 -4 -4 -46 -7 -92 -5 l-83 3 -33 260 c-17 143 -32 270 -32
283 -1 21 3 22 72 22 l74 0 7 -112z"/>
<path d="M1623 6394 c-10 -4 -13 -55 -13 -203 0 -203 3 -221 41 -221 37 0 44
28 47 189 4 189 -3 235 -38 238 -14 1 -31 -1 -37 -3z"/>
<path d="M2762 6388 c-9 -9 -12 -68 -12 -205 l0 -193 26 -12 c23 -11 29 -10
45 11 17 21 19 42 19 198 0 101 -4 182 -10 194 -12 21 -50 25 -68 7z"/>
<path d="M3436 6392 c-3 -5 -6 -95 -7 -201 -1 -164 1 -195 14 -209 13 -13 21
-13 42 -4 l25 12 0 193 c0 137 -3 196 -12 205 -14 14 -54 16 -62 4z"/>
<path d="M4577 6394 c-13 -13 -8 -399 5 -412 17 -17 43 -15 59 5 17 19 25 303
12 368 -8 35 -13 40 -39 43 -16 2 -33 0 -37 -4z"/>
<path d="M5237 6393 c-4 -3 -7 -95 -7 -203 0 -165 3 -200 15 -210 12 -10 21
-10 40 -2 l25 12 0 193 c0 137 -3 196 -12 205 -13 13 -50 16 -61 5z"/>
<path d="M5912 6388 c-9 -9 -12 -68 -12 -205 0 -182 1 -193 20 -203 33 -18 58
3 65 55 4 24 6 112 4 195 -3 120 -7 153 -19 160 -21 13 -44 12 -58 -2z"/>
<path d="M5048 5443 l-158 -4 0 -36 0 -36 55 6 c42 4 55 2 55 -8 0 -9 -15 -12
-52 -11 l-53 1 -3 -102 -3 -103 61 0 60 0 0 70 0 70 54 0 c29 0 81 3 115 6
l61 7 0 -82 0 -82 28 3 c22 2 28 9 33 38 l6 35 2 -42 c1 -43 1 -43 -35 -43
-29 0 -42 -8 -76 -45 -37 -41 -44 -44 -97 -47 l-56 -3 -6 -80 -5 -80 -2 78 -2
77 -60 0 -60 0 2 -172 c3 -171 3 -173 26 -176 19 -3 22 1 22 27 0 17 5 31 10
31 6 0 10 -11 10 -24 0 -14 5 -28 10 -31 6 -4 10 7 10 24 0 17 5 31 10 31 6 0
10 -14 10 -31 l0 -31 168 7 c92 4 171 10 175 14 4 5 7 37 5 72 l-3 64 -155 0
-155 0 0 25 c0 24 3 25 82 30 l83 5 76 100 76 100 -6 59 c-3 32 -6 112 -6 177
l0 119 -25 0 c-23 0 -25 -4 -25 -45 0 -57 -18 -59 -22 -2 -4 49 20 45 -240 40z
m-98 -233 c0 -16 -2 -30 -5 -30 -9 0 -26 41 -20 50 12 20 25 9 25 -20z m40 4
c0 -31 -23 -28 -28 4 -2 15 2 22 12 22 11 0 16 -9 16 -26z m47 -426 c-2 -13
-4 -5 -4 17 -1 22 1 32 4 23 2 -10 2 -28 0 -40z m163 -29 c0 -5 -11 -9 -24 -9
-13 0 -31 -3 -40 -6 -10 -4 -16 -1 -16 9 0 10 11 15 40 15 22 0 40 -3 40 -9z"/>
<path d="M2370 4005 l0 -515 60 0 c59 0 60 0 82 -40 l23 -40 375 2 375 3 0
120 0 120 -67 3 c-65 3 -69 4 -84 35 -9 18 -22 35 -28 39 -6 4 -113 8 -238 8
l-228 0 -2 388 -3 387 -57 3 c-42 2 -58 -1 -59 -10 0 -18 2 -146 4 -188 2 -29
-2 -36 -20 -38 -26 -4 -39 28 -24 57 6 11 11 56 11 100 l0 81 -60 0 -60 0 0
-515z m301 -375 c15 -9 19 -22 19 -65 0 -56 -12 -69 -38 -43 -12 12 -17 118
-6 118 3 0 14 -5 25 -10z"/>
<path d="M4125 4304 l-165 -206 0 -732 c0 -402 4 -737 9 -744 5 -9 25 -12 57
-10 l49 3 -1 97 c-1 101 8 124 40 92 11 -11 13 -21 5 -43 -6 -16 -9 -55 -7
-87 l3 -59 433 -3 432 -2 0 80 0 80 -87 0 c-66 0 -91 -4 -105 -16 -14 -14 -20
-14 -33 -4 -19 16 -19 34 1 55 11 10 20 12 28 6 6 -5 52 -11 101 -12 l90 -2 3
232 2 232 -127 -3 -128 -3 -3 -152 -3 -153 -248 0 c-206 0 -255 3 -287 16 -22
9 -42 21 -46 28 -10 15 -10 478 0 493 4 6 25 13 47 15 l40 3 3 228 2 227 -60
0 -60 0 0 -75 c0 -41 5 -84 12 -94 9 -15 9 -23 -1 -35 -8 -9 -19 -16 -27 -16
-16 0 -36 34 -26 44 4 4 9 51 12 104 l5 97 87 5 c47 3 88 7 90 10 3 3 33 41
68 85 35 44 65 82 68 85 2 3 99 7 215 10 l212 5 20 37 c20 37 21 38 78 38 l57
0 0 36 0 35 -97 -4 c-54 -3 -109 -6 -123 -8 -21 -3 -26 0 -28 24 -4 32 21 46
49 29 11 -7 58 -12 109 -12 l90 0 0 75 0 75 -345 0 -345 0 -165 -206z m683
-1136 c12 -12 17 -118 6 -118 -3 0 -14 5 -25 10 -15 9 -19 22 -19 65 0 56 12
69 38 43z m73 2 c15 -9 19 -22 19 -65 0 -56 -12 -69 -38 -43 -12 12 -17 118
-6 118 3 0 14 -5 25 -10z"/>
<path d="M4878 4216 c-5 -6 -18 -26 -28 -43 -18 -31 -23 -33 -75 -33 -52 0
-55 -1 -55 -25 0 -24 2 -25 73 -25 l72 0 20 38 c17 31 26 37 58 40 33 3 37 6
37 31 0 27 -2 28 -46 28 -25 0 -50 -5 -56 -11z"/>
<path d="M4914 4068 c-9 -18 -22 -36 -28 -40 -6 -4 -46 -8 -88 -8 l-78 0 0
-75 0 -75 130 0 130 0 0 115 0 115 -25 0 c-18 0 -29 -9 -41 -32z"/>
<path d="M3530 3855 c0 -17 2 -18 96 -15 l72 2 23 -41 c18 -33 28 -41 51 -41
27 0 28 1 28 55 l0 55 -135 0 c-113 0 -135 -2 -135 -15z"/>
<path d="M3532 3743 c3 -26 6 -28 59 -31 53 -3 59 -5 81 -40 24 -36 27 -37 76
-34 47 4 52 6 52 27 0 20 -6 24 -37 27 -31 2 -42 10 -62 41 l-24 37 -74 0 -74
0 3 -27z"/>
<path d="M3520 3615 l0 -65 140 0 140 0 0 25 c0 24 -3 25 -58 25 -57 0 -59 1
-83 38 -23 35 -27 37 -82 40 l-57 3 0 -66z"/>
<path d="M4183 3460 c-23 -9 -23 -11 -23 -224 0 -211 0 -215 22 -230 48 -34
49 -32 46 221 -2 147 -7 237 -13 239 -5 1 -20 -1 -32 -6z"/>
<path d="M2377 3453 c-4 -3 -7 -17 -7 -30 0 -20 5 -23 39 -23 36 0 42 -4 62
-40 l23 -41 70 3 c60 3 71 6 74 22 5 25 -15 37 -58 35 -55 -2 -56 -1 -84 41
-24 36 -30 40 -69 40 -24 0 -47 -3 -50 -7z"/>
<path d="M3540 3020 l0 -391 58 3 57 3 3 155 c2 100 -2 164 -9 182 -13 32 3
61 30 56 14 -3 15 -27 12 -195 -1 -105 0 -196 3 -201 3 -6 15 -8 26 -5 18 5
20 14 20 85 0 78 1 82 35 119 l35 39 -2 268 -3 267 -132 3 -133 3 0 -391z"/>
<path d="M3025 3368 c-3 -7 -4 -175 -3 -373 l3 -360 130 0 130 0 3 367 2 368
-23 6 c-14 3 -39 4 -58 2 l-34 -3 0 -105 c0 -58 4 -112 8 -121 10 -19 -17 -51
-36 -43 -10 3 -13 39 -13 137 l1 132 -53 3 c-36 2 -54 -1 -57 -10z"/>
<path d="M2377 3333 c-4 -3 -7 -163 -7 -355 l0 -349 58 3 57 3 3 185 c2 124
-1 194 -9 213 -10 23 -9 31 4 44 9 9 23 13 33 9 13 -5 15 -14 10 -44 -5 -29
-9 -275 -6 -395 0 -16 8 -18 58 -15 l57 3 0 305 0 305 -82 5 c-45 3 -83 7 -85
10 -3 3 -15 22 -27 43 -21 34 -48 47 -64 30z"/>
<path d="M3782 2798 c-7 -7 -12 -43 -12 -90 0 -71 2 -78 20 -78 19 0 20 7 20
90 0 89 -5 101 -28 78z"/>
<path d="M5802 5168 c-8 -8 -12 -68 -12 -204 0 -157 3 -194 15 -204 21 -17 61
-4 69 22 3 13 6 100 6 195 0 143 -3 174 -16 187 -18 19 -45 21 -62 4z"/>
<path d="M1742 5088 c-19 -19 -17 -392 3 -408 21 -17 48 -9 62 20 15 30 18
336 3 374 -10 28 -47 35 -68 14z"/>
<path d="M5830 4534 c-13 -34 -13 -350 0 -375 13 -24 65 -26 74 -3 3 9 6 96 6
194 0 98 -3 185 -6 194 -4 10 -18 16 -35 16 -22 0 -32 -6 -39 -26z"/>
<path d="M1722 4478 c-13 -13 -18 -361 -6 -392 7 -19 55 -21 72 -4 8 8 12 67
12 198 0 195 -3 210 -45 210 -12 0 -26 -5 -33 -12z"/>
<path d="M5852 3288 c-9 -9 -12 -68 -12 -205 0 -180 1 -193 19 -203 24 -12 48
-4 61 21 13 24 13 355 0 380 -12 21 -50 25 -68 7z"/>
<path d="M5877 2667 c-16 -11 -17 -33 -15 -212 l3 -200 23 -3 c49 -7 52 6 52
214 0 181 -1 194 -19 204 -24 13 -24 13 -44 -3z"/>
<path d="M1748 2669 c-16 -9 -18 -30 -18 -202 0 -204 3 -217 47 -217 16 0 27
8 33 26 15 38 12 344 -3 374 -14 28 -34 34 -59 19z"/>
<path d="M1741 2056 c-8 -9 -11 -73 -9 -207 l3 -194 33 -3 c27 -3 34 1 42 23
13 34 13 336 0 369 -11 29 -49 36 -69 12z"/>
<path d="M2880 2051 c-6 -12 -10 -95 -10 -200 0 -145 3 -182 15 -194 16 -16
55 -12 67 7 13 19 9 381 -4 394 -18 18 -56 14 -68 -7z"/>
<path d="M3556 2054 c-3 -9 -6 -101 -6 -204 0 -170 2 -190 18 -198 9 -6 27 -6
40 -1 22 8 22 11 22 198 0 104 -3 196 -6 205 -4 9 -18 16 -34 16 -16 0 -30 -7
-34 -16z"/>
<path d="M4210 2051 c-12 -24 -14 -370 -1 -389 5 -8 22 -12 42 -10 l34 3 3
194 c2 134 -1 198 -9 207 -17 20 -57 17 -69 -5z"/>
<path d="M4891 2057 c-8 -10 -11 -70 -9 -208 l3 -194 33 -3 c27 -3 34 1 42 23
11 29 12 326 1 365 -8 29 -51 39 -70 17z"/>
<path d="M3700 1071 c0 -109 4 -192 9 -196 24 -14 31 40 29 207 -3 155 -5 173
-20 176 -17 3 -18 -11 -18 -187z"/>
</g>
</svg>
