<?xml version="1.0" standalone="no"?>
<!DOCTYPE svg PUBLIC "-//W3C//DTD SVG 20010904//EN"
 "http://www.w3.org/TR/2001/REC-SVG-20010904/DTD/svg10.dtd">
<svg version="1.0" xmlns="http://www.w3.org/2000/svg"
 width="1071.000000pt" height="412.000000pt" viewBox="0 0 1071.000000 412.000000"
 preserveAspectRatio="xMidYMid meet">

<g transform="translate(0.000000,412.000000) scale(0.100000,-0.100000)"
fill="#000000" stroke="none">
<path d="M810 4109 c-41 -5 -115 -20 -165 -34 -316 -90 -485 -290 -485 -575 0
-154 43 -263 142 -362 101 -100 204 -148 515 -239 115 -33 237 -73 272 -90
131 -61 178 -149 130 -246 -20 -40 -34 -53 -84 -78 -56 -28 -67 -30 -170 -29
-124 1 -219 21 -366 80 -98 40 -251 127 -317 181 -24 20 -47 32 -52 27 -4 -5
-52 -93 -105 -196 l-96 -187 53 -38 c279 -204 647 -309 994 -282 416 33 678
247 701 572 15 218 -69 391 -246 505 -85 55 -203 103 -401 162 -347 103 -417
145 -427 259 -12 128 136 189 359 147 116 -22 296 -85 419 -147 l100 -50 94
197 c52 108 95 200 95 204 0 13 -189 106 -281 138 -213 75 -467 105 -679 81z"/>
<path d="M2670 4109 c-349 -41 -589 -221 -645 -484 -38 -180 5 -353 116 -470
107 -113 215 -165 532 -256 202 -58 308 -99 354 -138 89 -75 83 -202 -15 -267
-151 -102 -564 -4 -846 202 -41 30 -77 54 -80 54 -7 0 -196 -375 -196 -387 1
-15 122 -96 225 -150 234 -122 445 -174 705 -174 290 0 502 72 651 220 111
111 159 232 159 401 0 168 -42 275 -149 380 -105 103 -225 160 -532 250 -203
60 -291 98 -342 148 -78 76 -69 177 21 230 44 25 54 27 162 26 93 0 134 -5
214 -27 122 -34 256 -86 355 -138 40 -22 75 -38 76 -37 2 2 46 92 99 201 l95
197 -42 27 c-228 144 -620 226 -917 192z"/>
<path d="M4496 4058 c-7 -18 -190 -442 -406 -943 -216 -500 -408 -945 -426
-988 l-33 -77 266 2 266 3 74 188 75 187 448 0 448 0 41 -107 c23 -60 56 -145
74 -190 l32 -83 273 0 c149 0 272 3 272 7 0 3 -192 462 -427 1020 l-427 1013
-268 0 -268 0 -14 -32z m312 -590 c186 -482 245 -639 240 -643 -3 -3 -135 -4
-295 -3 l-289 3 145 372 c80 205 149 373 152 373 4 0 25 -46 47 -102z"/>
<path d="M6060 3070 l0 -1020 260 0 260 0 0 380 0 380 455 0 455 0 0 200 0
200 -455 0 -455 0 0 240 0 240 495 0 495 0 0 200 0 200 -755 0 -755 0 0 -1020z"/>
<path d="M2040 1448 l0 -121 -22 20 c-13 11 -33 26 -45 32 -30 15 -137 14
-176 -3 -103 -43 -152 -180 -112 -313 40 -136 220 -195 325 -107 l30 26 0 -31
0 -31 70 0 70 0 0 325 0 325 -70 0 -70 0 0 -122z m-32 -203 c27 -30 32 -42 32
-85 0 -89 -45 -140 -124 -140 -69 0 -125 79 -111 158 18 107 130 144 203 67z"/>
<path d="M3160 1449 l0 -120 -37 28 c-30 23 -48 28 -107 31 -92 5 -147 -22
-191 -93 -28 -45 -30 -56 -30 -139 0 -81 3 -96 28 -138 39 -67 101 -102 181
-102 63 0 95 11 134 47 l22 20 0 -31 0 -32 65 0 65 0 0 325 0 325 -65 0 -65 0
0 -121z m-75 -173 c93 -39 101 -194 13 -242 -32 -19 -85 -17 -119 3 -84 50
-75 200 14 238 41 18 50 18 92 1z"/>
<path d="M3650 1245 l0 -325 65 0 65 0 0 30 c0 36 2 37 35 6 90 -84 271 -35
320 86 43 109 7 260 -76 315 -74 49 -203 43 -248 -11 -8 -9 -17 -16 -22 -16
-5 0 -9 54 -9 120 l0 120 -65 0 -65 0 0 -325z m305 29 c100 -47 78 -229 -30
-250 -41 -7 -98 16 -120 50 -42 63 -24 159 37 196 40 24 69 25 113 4z"/>
<path d="M6760 1449 l0 -121 -30 26 c-36 30 -81 40 -155 34 -105 -9 -174 -88
-183 -209 -5 -63 17 -152 46 -184 77 -90 210 -107 292 -39 l30 26 0 -31 0 -31
65 0 65 0 0 325 0 325 -65 0 -65 0 0 -121z m-76 -173 c51 -21 76 -60 76 -118
0 -86 -46 -138 -123 -138 -61 0 -117 66 -117 137 0 43 33 96 71 115 41 22 50
22 93 4z"/>
<path d="M5085 1531 c-155 -38 -208 -199 -96 -293 16 -14 75 -40 131 -58 140
-44 173 -82 113 -130 -48 -38 -161 -16 -259 49 l-30 20 -27 -54 -27 -55 38
-25 c62 -41 148 -66 227 -67 155 -2 245 65 245 183 0 90 -52 141 -188 181
-125 38 -158 67 -127 115 16 24 21 25 83 21 44 -2 86 -13 124 -30 l56 -26 26
57 25 56 -34 18 c-79 40 -202 57 -280 38z"/>
<path d="M50 1225 l0 -305 70 0 70 0 0 115 0 115 140 0 141 0 -3 58 -3 57
-137 3 -138 3 0 74 0 75 150 0 150 0 0 55 0 55 -220 0 -220 0 0 -305z"/>
<path d="M5510 1435 l0 -65 -35 0 c-35 0 -35 0 -35 -45 0 -45 0 -45 35 -45
l35 0 0 -135 c0 -160 9 -186 73 -216 49 -22 72 -23 133 -8 54 14 59 23 44 77
-10 40 -11 40 -43 31 -42 -12 -43 -12 -61 7 -13 12 -16 39 -16 130 l0 114 65
0 65 0 0 45 0 45 -65 0 -65 0 0 65 0 65 -65 0 -65 0 0 -65z"/>
<path d="M8140 1435 l0 -65 -35 0 c-35 0 -35 0 -35 -44 0 -43 1 -45 33 -48
l32 -3 5 -141 c6 -163 14 -182 86 -210 40 -15 54 -16 102 -6 73 15 78 21 62
76 -7 26 -14 46 -15 46 -1 0 -16 -5 -33 -11 -22 -7 -36 -7 -51 1 -19 10 -21
20 -21 130 l0 120 65 0 65 0 0 45 0 45 -65 0 -65 0 0 65 0 65 -65 0 -65 0 0
-65z"/>
<path d="M540 1233 c0 -183 9 -224 59 -274 62 -62 164 -61 236 2 l35 31 0 -36
0 -36 65 0 65 0 0 235 0 235 -65 0 -65 0 0 -134 c0 -74 -4 -146 -10 -160 -23
-61 -111 -80 -158 -33 -26 27 -27 30 -31 177 l-3 150 -64 0 -64 0 0 -157z"/>
<path d="M1120 1155 l0 -235 64 0 64 0 4 140 c3 121 6 143 24 167 26 35 78 53
118 42 58 -17 61 -26 64 -194 l3 -155 65 0 64 0 0 175 c0 157 -2 180 -20 216
-29 57 -71 79 -148 79 -66 0 -104 -14 -136 -49 -27 -30 -36 -26 -36 14 l0 35
-65 0 -65 0 0 -235z"/>
<path d="M2395 1371 c-128 -59 -172 -241 -88 -363 59 -86 208 -118 320 -69 28
13 59 31 67 40 14 16 13 20 -18 50 l-33 32 -34 -20 c-23 -14 -51 -21 -87 -21
-48 0 -58 4 -88 34 -63 63 -56 66 137 66 l172 0 -7 56 c-17 147 -89 214 -231
214 -47 0 -83 -7 -110 -19z m165 -86 c33 -17 50 -43 50 -74 0 -20 -6 -21 -105
-21 -96 0 -105 2 -105 19 0 10 10 31 21 45 36 46 88 58 139 31z"/>
<path d="M4160 1385 c0 -3 43 -106 95 -230 52 -123 95 -228 95 -233 0 -5 -9
-21 -21 -36 -22 -28 -64 -35 -99 -16 -15 8 -22 3 -45 -37 -27 -45 -27 -47 -9
-60 65 -47 166 -41 225 15 35 33 52 70 149 316 61 154 110 281 110 283 0 1
-29 3 -64 3 l-64 0 -48 -137 c-65 -190 -64 -186 -69 -182 -2 3 -30 74 -63 159
l-59 155 -66 3 c-37 2 -67 0 -67 -3z"/>
<path d="M5842 1208 c3 -162 5 -187 23 -216 30 -51 78 -75 144 -75 63 0 109
19 140 59 l21 27 0 -42 0 -41 65 0 65 0 0 235 0 235 -65 0 -65 0 0 -135 c0
-156 -10 -188 -67 -211 -28 -12 -42 -13 -70 -3 -53 17 -63 52 -63 214 l0 135
-66 0 -66 0 4 -182z"/>
<path d="M7120 1374 c-101 -44 -156 -162 -130 -279 26 -115 108 -178 235 -178
74 -1 157 27 189 62 14 16 13 20 -18 50 l-33 32 -34 -20 c-23 -14 -51 -21 -87
-21 -48 0 -58 4 -88 34 -63 63 -56 66 137 66 l171 0 -7 58 c-18 147 -88 212
-230 211 -40 0 -85 -6 -105 -15z m159 -88 c27 -14 51 -53 51 -81 0 -12 -20
-15 -110 -15 l-110 0 11 27 c27 72 94 101 158 69z"/>
<path d="M7540 1155 l0 -235 64 0 65 0 3 144 c3 145 3 145 32 175 25 26 37 31
76 31 37 0 51 -5 71 -26 23 -24 24 -33 27 -175 l3 -149 66 0 65 0 -4 178 c-3
198 -11 225 -78 269 -64 44 -193 25 -240 -35 l-20 -25 0 42 0 41 -65 0 -65 0
0 -235z"/>
<path d="M1976 689 c-19 -15 -26 -30 -26 -54 0 -36 36 -75 70 -75 34 0 70 39
70 75 0 36 -36 75 -70 75 -10 0 -29 -9 -44 -21z"/>
<path d="M7269 691 c-49 -40 -18 -131 46 -131 39 0 67 31 67 75 0 66 -62 97
-113 56z"/>
<path d="M7870 692 c-49 -39 -17 -132 45 -132 39 0 69 33 69 75 0 64 -65 97
-114 57z"/>
<path d="M203 640 c-104 -22 -163 -86 -163 -177 0 -87 54 -134 202 -180 119
-36 155 -76 108 -123 -42 -42 -174 -18 -269 49 l-28 20 -22 -54 c-13 -30 -20
-59 -16 -65 11 -18 103 -60 167 -76 101 -26 218 -5 276 49 36 33 52 71 52 122
0 94 -46 138 -189 184 -72 23 -106 39 -121 58 -25 32 -25 38 0 63 14 14 33 20
63 20 45 0 149 -31 174 -51 16 -14 14 -16 46 48 31 60 29 63 -56 92 -67 23
-168 33 -224 21z"/>
<path d="M3995 641 c-108 -27 -147 -128 -91 -234 l25 -45 -39 -26 c-158 -105
-77 -316 121 -316 44 0 110 22 148 49 l28 20 38 -39 c22 -22 44 -40 50 -40 6
0 24 14 41 31 l29 31 -47 43 -47 43 30 55 29 55 -40 32 c-23 18 -42 31 -44 29
-2 -2 -13 -26 -25 -54 l-22 -50 -56 58 -56 59 44 28 c72 44 99 83 99 139 0 53
-23 92 -69 115 -34 18 -108 27 -146 17z m97 -88 c20 -18 23 -54 8 -83 -9 -16
-69 -60 -83 -60 -10 0 -37 68 -37 94 0 55 71 86 112 49z m16 -394 c7 -17 -49
-41 -95 -41 -41 0 -52 5 -75 31 -38 42 -36 75 7 118 l35 35 63 -67 c34 -37 63
-71 65 -76z"/>
<path d="M4717 416 c-53 -123 -113 -261 -132 -306 l-35 -81 71 3 71 3 22 55
22 55 143 3 142 3 26 -61 26 -60 69 0 c37 0 68 3 68 7 0 4 -57 142 -126 305
l-127 298 -71 0 -71 0 -98 -224z m215 -38 c25 -62 44 -116 41 -120 -5 -9 -177
-11 -185 -3 -6 6 84 235 93 235 3 0 26 -51 51 -112z"/>
<path d="M9250 335 l0 -305 65 0 65 0 0 115 0 115 140 0 140 0 0 55 0 55 -140
0 -140 0 0 80 0 80 149 0 c166 0 161 -3 161 78 l0 32 -220 0 -220 0 0 -305z"/>
<path d="M7510 545 l0 -65 -30 0 c-29 0 -30 -2 -30 -45 0 -43 1 -45 30 -45
l30 0 0 -127 c0 -152 15 -199 73 -226 41 -20 107 -21 157 -3 38 14 38 13 26
69 l-8 38 -43 -6 c-68 -11 -76 4 -73 139 l3 111 63 3 62 3 0 44 0 45 -65 0
-65 0 0 65 0 65 -65 0 -65 0 0 -65z"/>
<path d="M716 490 c-94 -29 -156 -119 -156 -230 0 -97 42 -169 124 -213 62
-33 183 -30 253 6 28 15 55 32 58 38 4 6 -8 26 -26 45 l-32 34 -35 -22 c-71
-43 -166 -23 -199 43 l-12 24 171 3 171 2 -5 69 c-7 95 -40 150 -110 185 -55
27 -140 34 -202 16z m129 -94 c30 -13 65 -58 65 -86 0 -6 -40 -10 -110 -10
-73 0 -110 4 -110 11 0 23 35 69 64 83 39 19 48 19 91 2z"/>
<path d="M1110 265 l0 -235 65 0 65 0 0 135 0 135 33 36 c24 26 43 37 75 41
l42 6 0 58 c0 53 -2 59 -20 59 -31 0 -82 -28 -107 -58 l-23 -27 0 43 0 42 -65
0 -65 0 0 -235z"/>
<path d="M1420 491 c0 -5 30 -87 66 -183 36 -95 75 -197 86 -226 l20 -53 70 3
71 3 87 230 88 230 -61 3 c-33 2 -63 -1 -67 -5 -4 -4 -31 -82 -60 -172 -28
-89 -54 -161 -57 -158 -3 3 -30 80 -60 171 l-54 166 -65 0 c-35 0 -64 -4 -64
-9z"/>
<path d="M1950 265 l0 -235 70 0 70 0 0 235 0 235 -70 0 -70 0 0 -235z"/>
<path d="M2306 486 c-53 -20 -112 -80 -131 -134 -70 -206 100 -381 309 -318
53 16 116 60 116 81 0 8 -17 26 -39 40 l-39 26 -37 -25 c-115 -78 -240 41
-179 170 31 65 113 83 177 40 l35 -24 41 30 c23 16 41 33 41 37 0 12 -42 47
-80 66 -47 24 -163 30 -214 11z"/>
<path d="M2782 487 c-49 -18 -99 -63 -124 -110 -17 -32 -22 -59 -22 -117 0
-86 22 -140 74 -183 35 -30 116 -57 170 -57 55 0 131 26 168 57 l33 28 -33 32
-33 33 -49 -25 c-56 -28 -83 -31 -129 -11 -31 13 -67 53 -67 76 0 6 60 10 171
10 l172 0 -7 62 c-17 147 -95 219 -235 217 -31 0 -71 -6 -89 -12z m171 -118
c15 -16 27 -38 27 -49 0 -19 -7 -20 -110 -20 l-110 0 11 27 c14 38 29 54 64
69 41 18 85 8 118 -27z"/>
<path d="M3243 480 c-59 -26 -85 -71 -80 -134 6 -66 39 -95 146 -131 84 -28
107 -47 90 -78 -15 -27 -102 -23 -168 8 -30 14 -55 24 -56 23 -2 -2 -10 -21
-19 -43 -16 -38 -16 -40 6 -57 13 -9 51 -25 85 -34 151 -41 283 22 283 136 0
70 -43 107 -172 149 -74 25 -97 53 -62 78 25 18 55 16 121 -7 32 -11 60 -20
63 -20 7 0 40 66 40 80 0 5 -25 18 -55 29 -72 27 -165 27 -222 1z"/>
<path d="M5270 265 l0 -235 65 0 65 0 0 141 0 141 34 34 c27 27 42 34 74 34
33 0 45 -6 66 -31 25 -30 26 -34 26 -175 l0 -144 65 0 65 0 0 130 c0 140 9
174 52 204 12 9 37 16 54 16 82 0 94 -27 94 -210 l0 -140 65 0 65 0 0 172 c0
154 -2 176 -21 215 -26 54 -78 83 -145 83 -60 0 -128 -32 -151 -71 l-17 -29
-29 35 c-16 20 -42 42 -57 50 -63 32 -187 7 -224 -46 -16 -23 -16 -23 -16 19
l0 42 -65 0 -65 0 0 -235z"/>
<path d="M6282 487 c-49 -18 -99 -63 -124 -110 -17 -32 -22 -59 -22 -117 0
-86 22 -140 74 -183 35 -30 116 -57 170 -57 55 0 131 26 168 57 l33 28 -33 32
-33 33 -49 -25 c-27 -14 -60 -25 -73 -25 -36 0 -88 25 -107 51 -33 47 -28 49
155 49 l172 0 -6 50 c-19 160 -93 231 -238 229 -30 0 -69 -6 -87 -12z m171
-118 c15 -16 27 -38 27 -49 0 -19 -7 -20 -110 -20 l-110 0 11 27 c14 38 29 54
64 69 41 18 85 8 118 -27z"/>
<path d="M6680 265 l0 -235 65 0 65 0 0 130 c0 140 9 174 52 204 34 24 92 20
125 -8 l28 -24 3 -151 3 -151 66 0 65 0 -4 178 c-3 155 -5 181 -23 211 -30 51
-67 74 -128 79 -68 5 -118 -10 -157 -50 l-30 -30 0 41 0 41 -65 0 -65 0 0
-235z"/>
<path d="M7250 265 l0 -235 65 0 65 0 0 235 0 235 -65 0 -65 0 0 -235z"/>
<path d="M7850 265 l0 -235 65 0 65 0 0 235 0 235 -65 0 -65 0 0 -235z"/>
<path d="M8179 473 c-95 -49 -140 -150 -119 -265 20 -104 99 -173 212 -185 69
-7 157 17 199 55 l30 27 -35 34 c-33 32 -37 33 -53 19 -45 -39 -128 -45 -179
-12 -18 12 -44 53 -44 69 0 3 77 5 171 5 l172 0 -7 61 c-15 151 -89 219 -237
219 -41 0 -70 -7 -110 -27z m157 -73 c20 0 64 -52 64 -76 0 -24 -1 -24 -105
-24 -94 0 -105 2 -105 18 0 43 71 97 115 87 11 -3 25 -5 31 -5z"/>
<path d="M8663 481 c-49 -23 -73 -55 -80 -109 -5 -40 12 -87 41 -112 9 -7 55
-27 103 -44 47 -17 91 -38 96 -48 32 -50 -79 -66 -171 -23 l-52 24 -20 -39
c-11 -22 -20 -42 -20 -45 0 -3 26 -18 58 -33 46 -21 72 -26 137 -27 127 0 195
48 195 138 0 78 -38 114 -163 153 -63 20 -91 43 -81 68 13 34 59 31 186 -10
23 -8 64 69 45 84 -51 42 -204 54 -274 23z"/>
<path d="M9859 486 c-96 -34 -149 -114 -149 -225 0 -83 23 -135 80 -183 89
-77 239 -75 345 6 20 14 19 15 -14 50 l-34 36 -35 -22 c-71 -43 -166 -23 -199
43 l-12 24 169 3 170 2 0 48 c0 106 -61 197 -147 221 -51 14 -130 13 -174 -3z
m136 -90 c30 -13 65 -58 65 -86 0 -6 -40 -10 -110 -10 -70 0 -110 4 -110 10 0
27 34 73 63 85 41 18 50 18 92 1z"/>
<path d="M10360 479 c-79 -36 -111 -77 -131 -168 -22 -106 27 -218 115 -260
94 -46 229 -33 297 27 l30 27 -33 32 -33 33 -49 -25 c-73 -37 -123 -31 -171
21 -48 51 -41 54 146 54 l172 0 -7 63 c-12 110 -60 177 -145 206 -53 17 -140
13 -191 -10z m183 -110 c15 -16 27 -38 27 -49 0 -19 -7 -20 -110 -20 l-110 0
11 27 c14 38 29 54 64 69 41 18 85 8 118 -27z"/>
</g>
</svg>
