<?xml version="1.0" encoding="utf-8" standalone="yes"?>
<svg version="1.1" baseProfile="full" xmlns="http://www.w3.org/2000/svg" xmlns:xlink="http://www.w3.org/1999/xlink" xmlns:ev="http://www.w3.org/2001/xml-events" width="3840px" height="2160px">
    <title>streaks stripes lines yellow black gold 3840x2160 #ffd700 #000000 diagonal 120° 105px 148px</title>
    <desc>streaks stripes lines yellow black gold 3840x2160 #ffd700 #000000 diagonal 120° 105px 148px</desc>
    <style type="text/css">
        <![CDATA[.x{font:20px verdana;fill:#fff;stroke:#555;stroke-width:20px;opacity:0.35;}.o{stroke:none;opacity:0.01;}]]>
    </style>
    <defs>
        <pattern id="p1" patternUnits="userSpaceOnUse" x="0" y="0" width="253" height="253" patternTransform="translate(1920,1080) rotate(240 0 0)">
            <path fill="#ffd700" d="M0 0H253v107H0z" />
            <path fill="#000000" d="M0 105H253v150H0z" />
        </pattern>
    </defs>
    <rect width="3840" height="2160" x="0" y="0" fill="url(#p1)" />
    <path class="x o" d="M5 5h2v1H6v1h1v1H5zM4 3h4v1h1v5H8v1H4V9H3V4h1v5h4V4H4zm7 1h1v2h1V4h1v2h-1v1h1v2h-1V7h-1v2h-1V7h1V6h-1zm4 0h5v5h-1V5h-1v4h-1V5h-1v4h-1zm6 0h3l-1 1h-1v3h1V5l1-1v5h-2v2h-1zm4-2h1v6h1v1h-2zm3 2h3l-1 1h-1v1h1V5l1-1v3h-2v1h2v1h-3V4zm4 4h1v1h-1zm2-4h3v1h-2v3h2v1h-3zm4 0h3v5h-3l1-1h1V5h-1v3l-1 1zm4 0h5v5h-1V5h-1v4h-1V5h-1v4h-1z" />
</svg>