<?xml version="1.0" standalone="no"?>
<!DOCTYPE svg PUBLIC "-//W3C//DTD SVG 20010904//EN"
 "http://www.w3.org/TR/2001/REC-SVG-20010904/DTD/svg10.dtd">
<svg version="1.0" xmlns="http://www.w3.org/2000/svg"
 width="1230.000000pt" height="314.000000pt" viewBox="0 0 1230.000000 314.000000"
 preserveAspectRatio="xMidYMid meet">

<g transform="translate(0.000000,314.000000) scale(0.100000,-0.100000)"
fill="#ED1C29" stroke="none">
<path d="M4870 2998 c-135 -21 -255 -110 -319 -239 -78 -156 -76 -120 -76
-1139 0 -1019 -3 -978 76 -1141 70 -145 196 -243 367 -286 48 -12 110 -17 222
-17 132 -1 167 3 235 22 193 56 318 174 379 361 40 119 46 186 46 489 l0 282
-204 0 -205 0 -3 -298 c-3 -324 -6 -343 -66 -405 -38 -40 -71 -56 -135 -63
-126 -15 -220 41 -251 147 -15 50 -16 146 -14 905 3 842 3 849 24 895 27 57
67 86 137 100 118 24 231 -33 281 -141 19 -41 21 -66 24 -292 l4 -248 204 0
204 0 0 513 c0 283 -2 516 -4 518 -2 2 -88 3 -190 1 l-185 -3 -3 -102 -3 -102
-33 52 c-104 162 -275 226 -512 191z"/>
<path d="M11166 2999 c-125 -18 -253 -105 -310 -208 -67 -125 -88 -232 -86
-460 1 -234 30 -357 121 -516 64 -112 131 -180 317 -322 341 -260 422 -381
422 -627 0 -122 -9 -166 -43 -217 -49 -72 -135 -102 -235 -81 -71 15 -106 42
-139 110 -27 56 -28 61 -33 276 l-5 219 -195 -1 c-107 -1 -199 -2 -205 -2 -8
0 -11 -652 -5 -952 0 -5 86 -8 190 -8 l190 0 0 93 c1 82 2 90 15 72 57 -80 75
-100 120 -129 69 -46 135 -67 230 -73 233 -15 407 73 490 250 63 133 70 176
70 432 0 273 -14 347 -95 510 -73 148 -119 198 -309 342 -362 276 -453 402
-454 628 0 208 53 279 208 279 77 0 113 -14 157 -61 50 -52 61 -101 65 -292 2
-96 5 -176 7 -178 3 -3 241 -5 371 -3 20 0 20 7 20 440 l0 440 -187 0 -188 0
0 -87 0 -87 -28 45 c-90 140 -258 200 -476 168z"/>
<path d="M7473 2962 c-23 -3 -23 -4 -23 -198 l0 -194 60 0 59 0 1 -922 c0
-543 4 -947 10 -982 40 -249 189 -413 426 -473 96 -24 361 -24 456 0 111 27
196 74 268 147 80 80 125 168 151 294 18 85 19 149 19 1014 l0 922 60 0 59 0
3 191 c2 104 0 193 -4 197 -4 4 -151 6 -327 4 l-321 -3 0 -194 0 -194 58 -3
57 -3 0 -905 c0 -731 -3 -914 -14 -950 -17 -57 -82 -124 -136 -139 -135 -37
-268 22 -307 136 -10 30 -13 239 -15 951 l-3 912 65 0 65 0 0 195 0 195 -22 0
c-13 0 -158 1 -323 3 -165 1 -310 1 -322 -1z"/>
<path d="M9548 2962 l-408 -2 0 -195 0 -195 60 0 60 0 -2 -982 -3 -983 -45 -1
c-25 -1 -51 -2 -57 -3 -10 -1 -13 -47 -13 -196 l0 -195 428 1 c563 2 634 9
785 85 84 43 147 105 186 187 57 117 64 158 68 443 5 295 -4 380 -56 491 -35
73 -114 157 -180 190 l-44 21 42 22 c91 46 160 145 197 285 16 60 19 107 18
320 0 277 -9 337 -64 451 -39 81 -89 131 -175 176 -147 77 -221 84 -797 80z
m509 -419 c87 -47 103 -98 103 -334 0 -319 -36 -359 -317 -359 l-133 0 0 361
0 361 153 -4 c133 -3 157 -6 194 -25z m-34 -1103 c21 -6 53 -25 72 -41 57 -50
65 -97 65 -364 0 -263 -9 -313 -63 -368 -46 -46 -92 -58 -249 -64 l-138 -6 0
433 0 433 138 -6 c75 -3 154 -11 175 -17z"/>
<path d="M130 2765 l0 -194 58 -3 57 -3 2 -925 c3 -1036 2 -1018 73 -1169 70
-147 187 -237 369 -282 74 -19 105 -21 255 -17 150 4 181 8 251 31 184 61 288
170 356 372 l24 70 2 940 c2 517 5 950 8 963 5 19 12 22 60 22 l54 0 3 191 c2
105 1 193 -1 195 -2 2 -150 4 -328 4 l-323 0 0 -195 0 -195 54 0 c50 0 54 -2
59 -27 4 -16 5 -428 4 -918 -2 -958 0 -920 -55 -994 -74 -99 -290 -99 -364 0
-55 74 -53 37 -56 989 -2 487 0 900 3 918 6 32 6 32 65 32 l60 0 0 195 0 195
-345 0 -345 0 0 -195z m585 0 l0 -40 -102 -3 -103 -3 0 -963 c0 -648 4 -982
11 -1022 25 -138 110 -249 227 -296 49 -20 74 -23 177 -22 99 1 130 5 177 23
80 31 157 104 194 183 l29 63 3 1018 2 1017 -94 0 c-101 0 -104 2 -101 55 l2
30 241 3 242 2 0 -45 0 -45 -100 0 -100 0 0 -1003 c0 -1095 3 -1043 -57 -1161
-55 -109 -185 -201 -317 -225 -254 -47 -472 47 -565 242 -62 129 -61 106 -61
1175 l0 972 -95 0 -95 0 0 45 0 45 243 -2 242 -3 0 -40z"/>
<path d="M1830 2765 l0 -195 60 0 60 0 0 -985 0 -985 -60 0 -60 0 0 -195 0
-195 310 0 310 0 0 195 0 195 -65 0 -65 0 0 713 c0 391 -3 765 -7 830 -3 66
-2 117 3 117 5 0 35 -100 67 -223 31 -122 97 -373 146 -557 49 -184 135 -510
191 -725 56 -214 111 -425 122 -467 l21 -78 264 0 263 0 0 1180 0 1180 60 0
60 0 1 43 c0 23 1 111 2 195 l2 152 -307 0 c-277 0 -307 -2 -310 -16 -2 -10
-2 -97 0 -195 l3 -179 54 0 55 0 1 -452 c1 -249 3 -475 4 -503 1 -27 5 -131 9
-230 4 -99 9 -193 11 -208 2 -18 -1 -27 -8 -24 -6 2 -114 395 -239 873 -126
478 -232 883 -236 899 l-8 30 -357 3 -357 2 0 -195z m768 -647 c106 -381 253
-909 326 -1173 l134 -480 51 -3 51 -3 0 1130 0 1131 -100 0 -100 0 0 45 0 45
239 0 c257 0 248 2 247 -55 l-1 -30 -97 -3 -98 -3 -2 -1177 -3 -1177 -123 -1
c-117 -1 -124 0 -133 20 -7 17 -622 2218 -645 2311 -6 24 -9 25 -85 25 l-79 0
0 -1130 0 -1130 86 0 85 0 -3 -47 -3 -48 -210 0 -210 0 0 45 0 45 83 3 82 3 0
1129 0 1129 -82 3 -83 3 -1 35 c0 19 1 38 3 43 2 4 111 7 241 7 l238 0 192
-692z"/>
<path d="M3640 2765 l0 -195 54 0 c39 0 55 -4 60 -15 3 -9 6 -452 6 -985 l0
-970 -60 0 -60 0 0 -195 0 -195 345 0 345 0 0 195 0 194 -62 3 -63 3 -3 950
c-1 523 0 965 3 983 6 32 6 32 65 32 l60 0 0 195 0 195 -345 0 -345 0 0 -195z
m585 10 c3 -53 0 -55 -101 -55 l-94 0 0 -1130 0 -1129 98 -3 c108 -3 98 5 93
-75 -1 -21 -1 -21 -238 -20 l-238 2 -3 48 -3 47 95 0 c85 0 96 2 96 18 0 14 0
2208 0 2235 0 4 -43 7 -95 7 l-95 0 0 45 0 45 242 -2 241 -3 2 -30z"/>
<path d="M5950 2765 l0 -195 60 0 60 0 0 -947 c0 -520 -3 -963 -6 -983 l-6
-37 -52 0 -51 1 -3 -197 -2 -197 725 0 c477 0 725 3 725 10 0 6 0 199 0 430 0
231 0 427 0 435 0 13 -29 15 -205 15 -113 0 -205 -3 -205 -7 0 -5 -1 -116 -3
-248 l-2 -240 -235 0 -235 0 -2 983 -2 982 69 0 70 0 0 195 0 195 -350 0 -350
0 0 -195z"/>
</g>
</svg>
