<?xml version="1.0" encoding="UTF-8"?>
<svg width="155px" height="50px" viewBox="0 0 155 50" version="1.1" xmlns="http://www.w3.org/2000/svg" xmlns:xlink="http://www.w3.org/1999/xlink">
    <!-- Generator: Sketch 50 (54983) - http://www.bohemiancoding.com/sketch -->
    <title>Logo</title>
    <desc>Created with Sketch.</desc>
    <defs>
        <polygon id="path-1" points="0.20207764 0.934332298 8.32090062 0.934332298 8.32090062 9.77029503 0.20207764 9.77029503"></polygon>
    </defs>
    <g id="Sticky-Nav" stroke="none" stroke-width="1" fill="none" fill-rule="evenodd">
        <g id="Subject-Landing-Sticky-Nav---Option-2" transform="translate(-120.000000, -12.000000)">
            <g id="Group-2" transform="translate(0.000000, -1.000000)">
                <g id="Group" transform="translate(120.000000, 13.000000)">
                    <g id="Logo">
                        <path d="M45.3569472,9.69818634 L45.3569472,4.52445963 C45.3569472,4.12685093 45.1008602,4.01228571 44.0245248,3.9737764 L44.0245248,3.56365217 L47.8032516,3.56365217 L47.8032516,3.9737764 C46.6633758,4.01228571 46.5738416,4.10181988 46.5738416,4.52445963 L46.5738416,9.49312422 C46.5738416,10.9920994 47.5847112,11.6448323 48.9556429,11.6448323 C49.6468851,11.6448323 50.1850528,11.4012609 50.5816988,11.0046149 C51.0428478,10.5434658 51.2353944,10.1468199 51.2353944,9.18601242 L51.2353944,5.57480124 C51.2353944,4.40989441 50.9658292,4.1143354 49.7498975,3.93526708 L49.7498975,3.56365217 L53.0020093,3.56365217 L53.0020093,3.93526708 C51.8621335,4.14032919 51.7475683,4.40989441 51.7475683,5.57480124 L51.7475683,9.57014286 C51.7475683,10.9150807 50.595177,12.1955155 48.5589969,12.1955155 C46.5988727,12.1955155 45.3569472,11.1836832 45.3569472,9.69818634" id="Fill-1" fill="#001641"></path>
                        <path d="M55.7937422,4.89578571 L55.7812267,4.89578571 L55.7812267,9.96746273 C55.7812267,11.1458478 55.935264,11.4394814 57.1637112,11.6195124 L57.1637112,11.9911273 L53.9241149,11.9911273 L53.9241149,11.6195124 C55.0639907,11.4269658 55.2690528,11.1458478 55.2690528,9.96746273 L55.2690528,4.84476087 C55.2690528,4.37109627 54.9609783,3.99948137 53.9241149,3.97348758 L53.9241149,3.56432609 L56.3184317,3.56432609 L61.0829969,10.1080217 L61.0955124,10.1080217 L61.0955124,5.57451242 C61.0955124,4.40960559 60.8269099,4.11500932 59.6100155,3.93594099 L59.6100155,3.56432609 L62.8630901,3.56432609 L62.8630901,3.93594099 C61.7232143,4.14004037 61.6076863,4.40960559 61.6076863,5.57451242 L61.6076863,12.1952267 L61.108028,12.1952267 L55.7937422,4.89578571 Z" id="Fill-3" fill="#001641"></path>
                        <path d="M63.8618292,11.5809068 C64.9372019,11.5423975 65.1942516,11.4268696 65.1942516,11.0302236 L65.1942516,4.52503727 C65.1942516,4.12742857 64.9372019,4.01286335 63.8618292,3.97435404 L63.8618292,3.56422981 L67.7416429,3.56422981 L67.7416429,3.97435404 C66.6662702,4.01286335 66.4101832,4.12742857 66.4101832,4.52503727 L66.4101832,11.0302236 C66.4101832,11.4268696 66.6662702,11.5423975 67.7416429,11.5809068 L67.7416429,11.9910311 L63.8618292,11.9910311 L63.8618292,11.5809068 Z" id="Fill-5" fill="#001641"></path>
                        <path d="M70.0344876,4.84456832 C69.8294255,4.29388509 69.6118478,4.1273323 68.6645186,3.93574845 L68.6645186,3.56413354 L72.4162888,3.56413354 L72.4162888,3.93574845 C71.3024068,3.99928882 71.1098602,4.22938199 71.2898913,4.74251863 L73.3511025,10.6200031 L73.4021273,10.6200031 L75.2977484,5.57431988 C75.771413,4.30640062 75.5923447,4.11481677 74.3889286,3.93574845 L74.3889286,3.56413354 L77.4234627,3.56413354 L77.4234627,3.93574845 C76.5531522,4.11481677 76.3220963,4.46043789 75.8994565,5.56180435 L73.3125932,12.1950342 L72.7368789,12.1950342 L70.0344876,4.84456832 Z" id="Fill-7" fill="#001641"></path>
                        <path d="M78.076677,11.5809068 C79.1520497,11.5423975 79.4090994,11.4268696 79.4090994,11.0302236 L79.4090994,4.52503727 C79.4090994,4.12742857 79.1520497,4.01286335 78.076677,3.97435404 L78.076677,3.56422981 L84.9149689,3.56422981 L84.9534783,5.921 L84.5568323,5.93351553 C84.1081988,4.49904348 83.8781056,4.03789441 82.4436335,4.03789441 L80.6250311,4.03789441 L80.6250311,7.38050311 L81.3807764,7.38050311 C82.3281056,7.38050311 82.687205,7.29096894 83.0068323,5.95854658 L83.3534161,5.95854658 L83.3534161,9.28863975 L83.0068323,9.28863975 C82.687205,7.95621739 82.3281056,7.86764596 81.3807764,7.86764596 L80.6250311,7.86764596 L80.6250311,11.5038882 L82.4436335,11.5038882 C84.1341925,11.5038882 84.543354,10.8386398 84.9919876,9.35314286 L85.3895963,9.36565839 L85.3250932,11.9910311 L78.076677,11.9910311 L78.076677,11.5809068 Z" id="Fill-9" fill="#001641"></path>
                        <path d="M89.7944845,7.54715217 C91.4080248,7.54715217 91.8056335,6.84243168 91.8056335,5.65153106 C91.8056335,4.53764907 91.241472,4.02547516 89.7049503,4.02547516 L88.808646,4.02547516 L88.808646,7.54715217 L89.7944845,7.54715217 Z M88.808646,11.0303199 C88.808646,11.4529596 88.9877143,11.5424938 90.1275901,11.5810031 L90.1275901,11.9911273 L86.2602919,11.9911273 L86.2602919,11.5810031 C87.3356646,11.5424938 87.5917516,11.4269658 87.5917516,11.0303199 L87.5917516,4.52513354 C87.5917516,4.12752484 87.3356646,4.01295963 86.2602919,3.97445031 L86.2602919,3.56432609 L89.7944845,3.56432609 C92.355354,3.56432609 93.1110994,4.5501646 93.1110994,5.61302174 C93.1110994,6.6383323 92.5353851,7.38059938 90.9728696,7.7262205 L90.9728696,7.76472981 C92.5219068,7.91876708 92.7144534,8.52047516 92.8684907,9.45528882 L93.0600745,10.6721832 C93.1756025,11.4144503 93.4827143,11.5935186 94.3665031,11.6580217 L94.3665031,12.068146 C94.2769689,12.068146 94.0333975,12.0806615 93.9438634,12.0806615 C92.1377764,12.0806615 91.8431801,11.7090466 91.753646,10.5441398 L91.6775901,9.55733851 C91.5745776,8.30289752 91.0498882,8.00830124 89.7309441,8.00830124 L88.808646,8.00830124 L88.808646,11.0303199 Z" id="Fill-11" fill="#001641"></path>
                        <path d="M95.1341863,9.50640994 L95.5308323,9.50640994 C96.1970435,10.9919068 97.042323,11.7341739 98.1051801,11.7341739 C99.3856149,11.7341739 99.9112671,10.8638634 99.9112671,10.108118 C99.9112671,9.15982609 99.2325404,8.8151677 97.6825404,8.26448447 C96.5176335,7.85436025 95.2882236,7.50873913 95.2882236,5.93370807 C95.2882236,4.33268323 96.5426646,3.35936025 98.1311739,3.35936025 C98.8484099,3.35936025 99.3605839,3.49991925 99.7697453,3.65395652 L100.17987,3.29485714 L100.460988,3.29485714 L100.460988,5.75463975 L100.064342,5.75463975 C99.6551801,4.5627764 98.9254286,3.82050932 97.9261118,3.82050932 C97.0548385,3.82050932 96.3761118,4.38370807 96.3761118,5.38206211 C96.3761118,6.30436025 97.1193416,6.59895652 98.4893106,7.06010559 C99.6551801,7.45771429 100.858596,7.85436025 100.858596,9.44286957 C100.858596,10.7098261 100.116329,12.195323 97.9896522,12.195323 C97.2984099,12.195323 96.5686584,12.0422484 96.0815155,11.8371863 L95.4412981,12.2473106 L95.1341863,12.2473106 L95.1341863,9.50640994 Z" id="Fill-13" fill="#001641"></path>
                        <path d="M102.075491,11.5809068 C103.150863,11.5423975 103.40695,11.4268696 103.40695,11.0302236 L103.40695,4.52503727 C103.40695,4.12742857 103.150863,4.01286335 102.075491,3.97435404 L102.075491,3.56422981 L105.955304,3.56422981 L105.955304,3.97435404 C104.879932,4.01286335 104.623845,4.12742857 104.623845,4.52503727 L104.623845,11.0302236 C104.623845,11.4268696 104.879932,11.5423975 105.955304,11.5809068 L105.955304,11.9910311 L102.075491,11.9910311 L102.075491,11.5809068 Z" id="Fill-15" fill="#001641"></path>
                        <path d="M108.683401,11.5809068 C109.823276,11.5423975 110.105357,11.4268696 110.105357,11.0302236 L110.105357,4.02537888 L109.46514,4.02537888 C108.23573,4.02537888 108.004674,4.69062733 107.4925,6.21559627 L107.095854,6.18960248 L107.17191,3.56422981 L114.267252,3.56422981 L114.356786,6.18960248 L113.96014,6.21559627 C113.5375,4.78112422 113.255419,4.02537888 111.9875,4.02537888 L111.321289,4.02537888 L111.321289,11.0302236 C111.321289,11.4268696 111.60337,11.5423975 112.743245,11.5809068 L112.743245,11.9910311 L108.683401,11.9910311 L108.683401,11.5809068 Z" id="Fill-17" fill="#001641"></path>
                        <path d="M121.041522,5.34432298 C121.618199,4.35848447 121.592205,4.08891925 120.464845,3.93584472 L120.464845,3.56422981 L123.372298,3.56422981 L123.372298,3.93584472 C122.642547,4.08891925 122.335435,4.25547205 121.758758,5.2162795 L119.863137,8.35382609 L119.863137,11.0302236 C119.863137,11.4268696 120.119224,11.5423975 121.195559,11.5809068 L121.195559,11.9910311 L117.314783,11.9910311 L117.314783,11.5809068 C118.391118,11.5423975 118.647205,11.4268696 118.647205,11.0302236 L118.647205,8.49438509 L116.469503,4.71662112 C116.188385,4.23044099 115.995839,4.07640373 115.227578,3.93584472 L115.227578,3.56422981 L118.851304,3.56422981 L118.851304,3.93584472 C117.724907,3.99938509 117.596863,4.28146584 117.865466,4.76764596 L119.581056,7.82817391 L121.041522,5.34432298 Z" id="Fill-19" fill="#001641"></path>
                        <path d="M51.0045311,19.7246646 C51.0045311,16.983764 49.8646553,15.7678323 48.315618,15.7678323 C46.765618,15.7678323 45.7277919,16.983764 45.7277919,19.7246646 C45.7277919,22.4780807 46.8676677,23.6814969 48.4176677,23.6814969 C49.966705,23.6814969 51.0045311,22.4780807 51.0045311,19.7246646 M44.3453075,19.7496957 C44.3453075,17.0482671 46.1379161,15.3066832 48.3666429,15.3066832 C50.6589099,15.3066832 52.3879783,16.9962795 52.3879783,19.6986708 C52.3879783,22.4135776 50.5944068,24.142646 48.3666429,24.142646 C46.0743758,24.142646 44.3453075,22.4655652 44.3453075,19.7496957" id="Fill-21" fill="#001641"></path>
                        <path d="M53.0536118,23.5281335 C54.1289845,23.4896242 54.3850714,23.3740963 54.3850714,22.9774503 L54.3850714,16.472264 C54.3850714,16.0746553 54.1289845,15.9591273 53.0536118,15.9215807 L53.0536118,15.5114565 L59.8668727,15.5114565 L59.9564068,17.9317671 L59.5587981,17.9442826 C59.1236429,16.497295 58.7010031,15.9851211 57.2665311,15.9851211 L55.6019658,15.9851211 L55.6019658,19.4297795 L56.4472453,19.4297795 C57.3945745,19.4297795 57.6121522,19.301736 57.958736,18.0347795 L58.3043571,18.0347795 L58.3043571,21.3379161 L57.958736,21.3379161 C57.638146,20.0064565 57.3945745,19.9169224 56.4472453,19.9169224 L55.6019658,19.9169224 L55.6019658,22.9774503 C55.6019658,23.4000901 55.8705683,23.4896242 57.0104441,23.5281335 L57.0104441,23.9382578 L53.0536118,23.9382578 L53.0536118,23.5281335 Z" id="Fill-23" fill="#001641"></path>
                        <path d="M69.4709037,16.9455435 C69.2533261,16.2793323 69.0097547,16.0107298 68.1904689,15.8826863 L68.1904689,15.5110714 L71.6736366,15.5110714 L71.6736366,15.8826863 C70.623295,15.9462267 70.4952516,16.2283075 70.6367733,16.6894565 L72.3648789,22.2473137 L72.4168665,22.2473137 L73.9659037,17.5222205 C74.3885435,16.2543012 74.2605,16.0617547 73.0570839,15.8826863 L73.0570839,15.5110714 L76.1561211,15.5110714 L76.1561211,15.8826863 C75.2848478,16.0617547 74.9141957,16.4458851 74.5550963,17.5087422 L72.3523634,24.141972 L71.7756863,24.141972 L69.9445683,18.4310404 L67.7678292,24.141972 L67.1911522,24.141972 L64.9499099,16.7915062 C64.7708416,16.2157919 64.553264,16.0742702 63.6059348,15.8826863 L63.6059348,15.5110714 L67.1276118,15.5110714 L67.1276118,15.8826863 C66.1417733,15.9462267 66.0647547,16.2032764 66.2053137,16.6894565 L67.818854,22.2598292 L67.8573634,22.2598292 L69.6634503,17.5597671 L69.4709037,16.9455435 Z" id="Fill-25" fill="#001641"></path>
                        <path d="M82.9689006,19.7246646 C82.9689006,16.983764 81.8290248,15.7678323 80.2799876,15.7678323 C78.7299876,15.7678323 77.6921615,16.983764 77.6921615,19.7246646 C77.6921615,22.4780807 78.8320373,23.6814969 80.3820373,23.6814969 C81.9310745,23.6814969 82.9689006,22.4780807 82.9689006,19.7246646 M76.309677,19.7496957 C76.309677,17.0482671 78.1022857,15.3066832 80.3310124,15.3066832 C82.6232795,15.3066832 84.3523478,16.9962795 84.3523478,19.6986708 C84.3523478,22.4135776 82.5587764,24.142646 80.3310124,24.142646 C78.0387453,24.142646 76.309677,22.4655652 76.309677,19.7496957" id="Fill-27" fill="#001641"></path>
                        <path d="M85.1458323,23.5281335 C86.221205,23.4896242 86.4772919,23.3740963 86.4772919,22.9774503 L86.4772919,16.472264 C86.4772919,16.0746553 86.221205,15.9591273 85.1458323,15.9215807 L85.1458323,15.5114565 L89.025646,15.5114565 L89.025646,15.9215807 C87.9502733,15.9591273 87.6941863,16.0746553 87.6941863,16.472264 L87.6941863,23.4511149 L89.0901491,23.4511149 C90.7807081,23.4511149 91.177354,22.8494068 91.6644969,21.107823 L92.0611429,21.1338168 L91.9716087,23.9382578 L85.1458323,23.9382578 L85.1458323,23.5281335 Z" id="Fill-29" fill="#001641"></path>
                        <path d="M93.1495124,23.5281335 C94.2248851,23.4896242 94.480972,23.3740963 94.480972,22.9774503 L94.480972,16.472264 C94.480972,16.0746553 94.2248851,15.9591273 93.1495124,15.9215807 L93.1495124,15.5114565 L97.0293261,15.5114565 L97.0293261,15.9215807 C95.9539534,15.9591273 95.6978665,16.0746553 95.6978665,16.472264 L95.6978665,23.4511149 L97.0938292,23.4511149 C98.7843882,23.4511149 99.1810342,22.8494068 99.668177,21.107823 L100.064823,21.1338168 L99.9752888,23.9382578 L93.1495124,23.9382578 L93.1495124,23.5281335 Z" id="Fill-31" fill="#001641"></path>
                        <path d="M107.684084,19.7246646 C107.684084,16.983764 106.544208,15.7678323 104.995171,15.7678323 C103.445171,15.7678323 102.408307,16.983764 102.408307,19.7246646 C102.408307,22.4780807 103.548183,23.6814969 105.09722,23.6814969 C106.64722,23.6814969 107.684084,22.4780807 107.684084,19.7246646 M101.02486,19.7496957 C101.02486,17.0482671 102.817469,15.3066832 105.046196,15.3066832 C107.338463,15.3066832 109.067531,16.9962795 109.067531,19.6986708 C109.067531,22.4135776 107.27396,24.142646 105.046196,24.142646 C102.753929,24.142646 101.02486,22.4655652 101.02486,19.7496957" id="Fill-33" fill="#001641"></path>
                        <path d="M111.53877,16.8430124 L111.525292,16.8430124 L111.525292,21.9146894 C111.525292,23.0930745 111.679329,23.3867081 112.908739,23.5667391 L112.908739,23.938354 L109.669143,23.938354 L109.669143,23.5667391 C110.809019,23.3741925 111.014081,23.0930745 111.014081,21.9146894 L111.014081,16.7919876 C111.014081,16.318323 110.706006,15.9467081 109.669143,15.9207143 L109.669143,15.5115528 L112.06346,15.5115528 L116.828025,22.0552484 L116.84054,22.0552484 L116.84054,17.5217391 C116.84054,16.3568323 116.571938,16.062236 115.355043,15.8831677 L115.355043,15.5115528 L118.608118,15.5115528 L118.608118,15.8831677 C117.468242,16.0872671 117.352714,16.3568323 117.352714,17.5217391 L117.352714,24.1424534 L116.853056,24.1424534 L111.53877,16.8430124 Z" id="Fill-35" fill="#001641"></path>
                        <path d="M119.01728,19.7499845 C119.01728,17.1120963 121.028429,15.3060093 123.384236,15.3060093 C124.165975,15.3060093 125.010292,15.523587 125.432932,15.7161335 L125.779516,15.3060093 L126.176161,15.3060093 L126.176161,17.7783075 L125.792031,17.7783075 C125.279857,16.4198913 124.422062,15.7671584 123.256193,15.7671584 C121.847714,15.7671584 120.400727,17.0475932 120.400727,19.7249534 C120.400727,22.3878727 121.963242,23.6817857 123.358242,23.6817857 C124.139981,23.6817857 124.715696,23.5277484 125.074795,23.2466304 L125.074795,20.8638665 C125.074795,20.4672205 124.818708,20.3516925 123.743335,20.314146 L123.743335,19.9040217 L127.136006,19.9040217 L127.136006,20.314146 C126.35523,20.3516925 126.291689,20.4412267 126.291689,20.8638665 L126.291689,23.4892391 C125.560975,23.8858851 124.294019,24.141972 123.461255,24.141972 C121.091969,24.141972 119.01728,22.6564752 119.01728,19.7499845" id="Fill-37" fill="#001641"></path>
                        <path d="M134.92259,19.7246646 C134.92259,16.983764 133.782714,15.7678323 132.233677,15.7678323 C130.683677,15.7678323 129.646814,16.983764 129.646814,19.7246646 C129.646814,22.4780807 130.786689,23.6814969 132.335727,23.6814969 C133.885727,23.6814969 134.92259,22.4780807 134.92259,19.7246646 M128.263366,19.7496957 C128.263366,17.0482671 130.055975,15.3066832 132.284702,15.3066832 C134.576969,15.3066832 136.306037,16.9962795 136.306037,19.6986708 C136.306037,22.4135776 134.512466,24.142646 132.284702,24.142646 C129.992435,24.142646 128.263366,22.4655652 128.263366,19.7496957" id="Fill-39" fill="#001641"></path>
                        <path d="M138.841202,16.8430124 L138.828686,16.8430124 L138.828686,21.9146894 C138.828686,23.0930745 138.981761,23.3867081 140.211171,23.5667391 L140.211171,23.938354 L136.971575,23.938354 L136.971575,23.5667391 C138.11145,23.3741925 138.316512,23.0930745 138.316512,21.9146894 L138.316512,16.7919876 C138.316512,16.318323 138.008438,15.9467081 136.971575,15.9207143 L136.971575,15.5115528 L139.365891,15.5115528 L144.130457,22.0552484 L144.142972,22.0552484 L144.142972,17.5217391 C144.142972,16.3568323 143.87437,16.062236 142.657475,15.8831677 L142.657475,15.5115528 L145.91055,15.5115528 L145.91055,15.8831677 C144.770674,16.0872671 144.655146,16.3568323 144.655146,17.5217391 L144.655146,24.1424534 L144.155488,24.1424534 L138.841202,16.8430124 Z" id="Fill-41" fill="#001641"></path>
                        <g id="Group-45" transform="translate(146.335404, 14.371677)">
                            <mask id="mask-2" fill="white">
                                <use xlink:href="#path-1"></use>
                            </mask>
                            <g id="Clip-44"></g>
                            <path d="M0.20207764,5.37830745 C0.20207764,2.74041925 2.21226398,0.934332298 4.56903416,0.934332298 C5.35173602,0.934332298 6.1960528,1.15190994 6.61772981,1.34445652 L6.96335093,0.934332298 L7.36192236,0.934332298 L7.36192236,3.40663043 L6.97682919,3.40663043 C6.46465528,2.04821429 5.60686025,1.39548137 4.44099068,1.39548137 C3.03251242,1.39548137 1.58552484,2.67591615 1.58552484,5.3532764 C1.58552484,8.01619565 3.14900311,9.3101087 4.54400311,9.3101087 C5.3247795,9.3101087 5.90049379,9.15607143 6.25959317,8.87495342 L6.25959317,6.49218944 C6.25959317,6.09554348 6.00350621,5.98001553 4.92717081,5.94246894 L4.92717081,5.53234472 L8.32176708,5.53234472 L8.32176708,5.94246894 C7.54002795,5.98001553 7.47745031,6.06954969 7.47745031,6.49218944 L7.47745031,9.11756211 C6.74577329,9.51420807 5.47785404,9.77029503 4.6460528,9.77029503 C2.27676708,9.77029503 0.20207764,8.28479814 0.20207764,5.37830745" id="Fill-43" fill="#001641" mask="url(#mask-2)"></path>
                        </g>
                        <path d="M48.8530155,32.2608913 L47.687146,28.8672578 L47.6361211,28.8672578 L46.3306553,32.2608913 L48.8530155,32.2608913 Z M49.0195683,32.7220404 L46.1506242,32.7220404 L45.6644441,33.9774441 C45.1907795,35.1808602 45.2543199,35.3339348 46.3682019,35.5139658 L46.3682019,35.8855807 L43.5897547,35.8855807 L43.5897547,35.5139658 C44.4600652,35.3339348 44.742146,34.8352391 45.1773012,33.7338727 L47.7516491,27.330736 L48.3283261,27.330736 L50.9142267,34.4636242 C51.1452826,35.1038416 51.4013696,35.3859224 52.3496615,35.5139658 L52.3496615,35.8855807 L48.5709348,35.8855807 L48.5709348,35.5139658 C49.6857795,35.4494627 49.8898789,35.206854 49.6472702,34.5271646 L49.0195683,32.7220404 Z" id="Fill-46" fill="#001641"></path>
                        <path d="M52.9384689,33.5926398 L52.9384689,28.418913 C52.9384689,28.0213043 52.682382,27.9067391 51.6070093,27.8682298 L51.6070093,27.4581056 L55.3847733,27.4581056 L55.3847733,27.8682298 C54.2448975,27.9067391 54.1553634,27.9962733 54.1553634,28.418913 L54.1553634,33.3875776 C54.1553634,34.8865528 55.1662329,35.5392857 56.5371646,35.5392857 C57.2284068,35.5392857 57.7665745,35.2957143 58.1632205,34.8990683 C58.6243696,34.4379193 58.8169161,34.0412733 58.8169161,33.0804658 L58.8169161,29.4692547 C58.8169161,28.3043478 58.5473509,28.0087888 57.3314193,27.8297205 L57.3314193,27.4581056 L60.5835311,27.4581056 L60.5835311,27.8297205 C59.4436553,28.0347826 59.3290901,28.3043478 59.3290901,29.4692547 L59.3290901,33.4645963 C59.3290901,34.8095342 58.1766988,36.0899689 56.1405186,36.0899689 C54.1803944,36.0899689 52.9384689,35.0781366 52.9384689,33.5926398" id="Fill-48" fill="#001641"></path>
                        <path d="M61.1339255,33.400382 L61.5305714,33.400382 C62.1967826,34.8858789 63.0420621,35.628146 64.1049193,35.628146 C65.385354,35.628146 65.9110062,34.7578354 65.9110062,34.0020901 C65.9110062,33.0537981 65.2322795,32.7091398 63.6822795,32.1584565 C62.5173727,31.7483323 61.2879627,31.4027112 61.2879627,29.8276801 C61.2879627,28.2266553 62.5424037,27.2533323 64.130913,27.2533323 C64.8481491,27.2533323 65.360323,27.3938913 65.7694845,27.5479286 L66.1796087,27.1888292 L66.4607267,27.1888292 L66.4607267,29.6486118 L66.0640807,29.6486118 C65.6549193,28.4567484 64.924205,27.7144814 63.9258509,27.7144814 C63.0545776,27.7144814 62.3758509,28.2776801 62.3758509,29.2760342 C62.3758509,30.1983323 63.1190807,30.4929286 64.4890497,30.9540776 C65.6549193,31.3516863 66.8583354,31.7483323 66.8583354,33.3368416 C66.8583354,34.6037981 66.1160683,36.089295 63.9893913,36.089295 C63.2981491,36.089295 62.5683975,35.9362205 62.0812547,35.7311584 L61.4410373,36.1412826 L61.1339255,36.1412826 L61.1339255,33.400382 Z" id="Fill-50" fill="#001641"></path>
                        <path d="M69.4962236,35.4747826 C70.6360994,35.4362733 70.9181801,35.3207453 70.9181801,34.9240994 L70.9181801,27.9192547 L70.277,27.9192547 C69.0475901,27.9192547 68.8174969,28.5845031 68.305323,30.1085093 L67.9077143,30.0834783 L67.9847329,27.4581056 L75.0800745,27.4581056 L75.1696087,30.0834783 L74.7729627,30.1085093 C74.350323,28.675 74.0682422,27.9192547 72.800323,27.9192547 L72.1341118,27.9192547 L72.1341118,34.9240994 C72.1341118,35.3207453 72.4161925,35.4362733 73.5560683,35.4747826 L73.5560683,35.8849068 L69.4962236,35.8849068 L69.4962236,35.4747826 Z" id="Fill-52" fill="#001641"></path>
                        <path d="M79.7159224,31.441028 C81.3294627,31.441028 81.7270714,30.7363075 81.7270714,29.5454068 C81.7270714,28.4315248 81.1629099,27.9193509 79.6263882,27.9193509 L78.7300839,27.9193509 L78.7300839,31.441028 L79.7159224,31.441028 Z M78.7300839,34.9241957 C78.7300839,35.3468354 78.9091522,35.4363696 80.049028,35.4748789 L80.049028,35.8850031 L76.1817298,35.8850031 L76.1817298,35.4748789 C77.2571025,35.4363696 77.5131894,35.3208416 77.5131894,34.9241957 L77.5131894,28.4190093 C77.5131894,28.0214006 77.2571025,27.9068354 76.1817298,27.8683261 L76.1817298,27.4582019 L79.7159224,27.4582019 C82.2767919,27.4582019 83.0325373,28.4440404 83.0325373,29.5068975 C83.0325373,30.5322081 82.456823,31.2744752 80.8943075,31.6200963 L80.8943075,31.6586056 C82.4433447,31.8126429 82.6358913,32.4143509 82.7899286,33.3491646 L82.9815124,34.566059 C83.0970404,35.3083261 83.4041522,35.4873944 84.287941,35.5518975 L84.287941,35.9620217 C84.1984068,35.9620217 83.9548354,35.9745373 83.8653012,35.9745373 C82.0592143,35.9745373 81.764618,35.6029224 81.6750839,34.4380155 L81.599028,33.4512143 C81.4960155,32.1967733 80.9713261,31.902177 79.652382,31.902177 L78.7300839,31.902177 L78.7300839,34.9241957 Z" id="Fill-54" fill="#001641"></path>
                        <path d="M89.9989689,32.2608913 L88.8340621,28.8672578 L88.7820745,28.8672578 L87.4766087,32.2608913 L89.9989689,32.2608913 Z M90.1655217,32.7220404 L87.2965776,32.7220404 L86.8103975,33.9774441 C86.3367329,35.1808602 86.4002733,35.3339348 87.515118,35.5139658 L87.515118,35.8855807 L84.7357081,35.8855807 L84.7357081,35.5139658 C85.6060186,35.3339348 85.8880994,34.8352391 86.3232547,33.7338727 L88.8976025,27.330736 L89.4742795,27.330736 L92.0601801,34.4636242 C92.291236,35.1038416 92.547323,35.3859224 93.4956149,35.5139658 L93.4956149,35.8855807 L89.7178509,35.8855807 L89.7178509,35.5139658 C90.8317329,35.4494627 91.036795,35.206854 90.7932236,34.5271646 L90.1655217,32.7220404 Z" id="Fill-56" fill="#001641"></path>
                        <path d="M94.0972267,35.4747826 C95.1725994,35.4362733 95.4286863,35.3207453 95.4286863,34.9240994 L95.4286863,28.418913 C95.4286863,28.0213043 95.1725994,27.9067391 94.0972267,27.8672671 L94.0972267,27.4581056 L97.9770404,27.4581056 L97.9770404,27.8672671 C96.9016677,27.9067391 96.6455807,28.0213043 96.6455807,28.418913 L96.6455807,35.397764 L98.0415435,35.397764 C99.7321025,35.397764 100.128748,34.7960559 100.615891,33.054472 L101.012537,33.0804658 L100.923003,35.8849068 L94.0972267,35.8849068 L94.0972267,35.4747826 Z" id="Fill-58" fill="#001641"></path>
                        <path d="M101.780702,35.4747826 C102.856075,35.4362733 103.112161,35.3207453 103.112161,34.9240994 L103.112161,28.418913 C103.112161,28.0213043 102.856075,27.9067391 101.780702,27.8672671 L101.780702,27.4581056 L105.660516,27.4581056 L105.660516,27.8672671 C104.585143,27.9067391 104.329056,28.0213043 104.329056,28.418913 L104.329056,34.9240994 C104.329056,35.3207453 104.585143,35.4362733 105.660516,35.4747826 L105.660516,35.8849068 L101.780702,35.8849068 L101.780702,35.4747826 Z" id="Fill-60" fill="#001641"></path>
                        <path d="M111.858879,32.2608913 L110.693009,28.8672578 L110.641984,28.8672578 L109.336519,32.2608913 L111.858879,32.2608913 Z M112.025432,32.7220404 L109.156488,32.7220404 L108.670307,33.9774441 C108.196643,35.1808602 108.260183,35.3339348 109.374065,35.5139658 L109.374065,35.8855807 L106.595618,35.8855807 L106.595618,35.5139658 C107.465929,35.3339348 107.748009,34.8352391 108.183165,33.7338727 L110.757512,27.330736 L111.334189,27.330736 L113.92009,34.4636242 C114.151146,35.1038416 114.407233,35.3859224 115.355525,35.5139658 L115.355525,35.8855807 L111.576798,35.8855807 L111.576798,35.5139658 C112.691643,35.4494627 112.895742,35.206854 112.653134,34.5271646 L112.025432,32.7220404 Z" id="Fill-62" fill="#001641"></path>
                        <path d="M5.18402795,9.26996273 C5.51905901,8.95514907 6.06974224,8.98980745 6.24881056,9.04949689 C6.42787888,9.1082236 6.62620186,9.21797516 6.65123292,9.27959006 C6.34027019,9.28151553 5.98405901,9.48754037 5.59704037,9.59536646 C5.18980435,9.72726087 4.79027019,9.75036646 4.79315839,9.64254037 C4.79315839,9.64254037 4.94527019,9.49331677 5.18402795,9.26996273 M6.94775466,6.69368944 C6.96700932,6.61667081 7.01418323,6.6224472 7.02092236,6.7100559 C7.05269255,7.1047764 7.34825155,7.44847205 7.50517702,7.75847205 C7.70542547,8.15222981 7.59182298,8.58064596 7.59182298,8.58064596 C7.57256832,8.61434161 7.25486646,8.34959006 7.06328261,8.07809938 C6.67241304,7.52356522 6.89384161,6.89682609 6.94775466,6.69368944 M7.48688509,11.6469503 C7.17977329,11.9983478 6.99492857,12.0512981 6.7792764,12.426764 C6.61368634,12.7136584 6.36337578,12.7425404 6.36722671,12.6992174 C6.38359317,12.5499938 6.3758913,12.1533478 6.73595342,11.6835342 C7.0950528,11.2137205 7.67269255,11.085677 7.67269255,11.085677 C7.67269255,11.085677 7.59952484,11.5198696 7.48688509,11.6469503 M8.23781677,9.37201242 C8.65082919,9.03409317 9.16107764,8.97536646 9.37672981,9.24011801 C9.59527019,9.50486957 9.43641925,9.99297516 9.02436957,10.3308944 C8.61231988,10.6697764 8.10207143,10.7285031 7.88545652,10.4637516 C7.66787888,10.1980373 7.82576708,9.70993168 8.23781677,9.37201242 M9.92067391,7.20875155 C10.2499286,6.75915528 10.6485,6.68213665 10.7707671,6.59645342 C10.8708913,6.52521118 10.8352702,6.91319255 10.5724441,7.20586335 C10.309618,7.49853416 10.2566677,7.60058385 10.1459534,7.85474534 C10.0130963,8.15993168 9.49129503,8.28604969 9.47300311,8.24368944 C9.47300311,8.24368944 9.59045652,7.65834783 9.92067391,7.20875155 M9.72523913,10.959559 C9.43834472,11.2339379 9.18418323,11.2589689 8.82123292,11.2512671 C8.5603323,11.2464534 8.34853106,11.1703975 8.33890373,11.1511429 C8.3235,11.1174472 8.42843789,11.0953043 8.55070497,11.0616087 C8.89536335,10.9662981 9.58660559,10.7044348 9.8735,10.0103043 C9.94281677,9.84278882 9.96495963,9.7311118 9.98902795,9.72726087 C10.0130963,9.72340994 10.0631584,9.92750932 10.0660466,10.0180062 C10.071823,10.2548385 10.0737484,10.6254907 9.72523913,10.959559 M4.40036335,9.9563913 C4.71517702,10.1152422 4.68629503,10.4098385 5.40545652,10.7958944 C5.82039441,11.0192484 6.50297205,10.9374161 6.79275466,10.8180373 C7.14511491,10.6717019 7.2327236,10.862323 6.93235093,11.0413913 C6.36626398,11.381236 6.08995963,12.0031615 6.09477329,12.6924783 C6.09669876,12.9668571 5.85697826,13.2056149 6.04856211,13.3971988 C6.14002174,13.4886584 6.27961801,13.3760186 6.50200932,13.3490621 C6.84859317,13.3076646 7.58989752,13.5146522 8.25803416,13.0044037 C8.68356211,12.6799627 8.7008913,12.1052112 8.78464907,11.9136273 C8.89151242,11.6700559 8.97623292,11.6989379 9.02340683,11.8298696 C9.07154348,11.961764 9.48551863,12.5625093 10.4752081,12.606795 C11.0721025,12.6337516 11.1741522,12.606795 11.4591211,12.736764 C11.7402391,12.8638447 12.0223199,12.6799627 11.7922267,12.4046211 C11.5409534,12.1013602 11.7835621,11.9627267 11.5322888,11.0298385 C11.4475683,10.7130994 11.0326304,10.0671056 10.439587,9.8947764 C10.2239348,9.83219876 10.2470404,9.71763354 10.439587,9.62617391 C11.1491211,9.28536646 11.8952391,8.10601863 11.4244627,6.84965217 C11.2848665,6.47707453 11.4408292,6.2421677 11.282941,6.13915528 C11.171264,6.06598758 10.9854565,6.11219876 10.8805186,6.2363913 C10.6225062,6.54350311 9.54520807,6.48862733 9.20247516,7.49468323 C9.0869472,7.83452795 9.15433851,8.18785093 8.9521646,8.23406211 C8.81160559,8.26679503 8.80582919,8.0232236 8.81160559,7.8711118 C8.82893478,7.38108075 8.47753727,6.73219876 8.09725776,6.51269565 C7.76318944,6.32014907 7.39542547,6.24409317 7.1711087,6.04962112 C6.99781677,5.90136025 6.74558075,5.87825466 6.76290994,6.29126708 C6.78120186,6.72642236 6.13617081,7.60732298 6.88517702,8.58257143 C6.92946273,8.65573913 7.06905901,8.74719876 7.04210248,8.85213665 C7.03632609,8.87331677 6.94486646,8.98980745 6.8553323,8.95418634 C6.64738199,8.8713913 6.34797205,8.5642795 5.72700932,8.70195031 C5.10604658,8.84058385 4.71036335,9.43073913 4.40036335,9.51449689 C4.2087795,9.56552174 4.13753727,9.82353416 4.40036335,9.9563913" id="Fill-64" fill="#001641"></path>
                        <path d="M11.4206118,9.84625466 C12.1378478,10.3305093 12.3044006,11.333677 12.2687795,11.997 C12.2649286,12.0663168 12.5566366,12.0557267 12.7164503,12.0143292 C12.9417298,11.9565652 14.6014814,12.7671863 15.5343696,13.6837081 C15.6267919,13.7645776 15.8472578,13.6163168 15.6085,13.2495155 C14.8556429,12.0894224 13.9266056,11.6706335 13.4413882,11.2701366 C12.9561708,10.8696398 12.9677236,10.7242671 12.7722888,10.2881491 C12.469028,9.61423602 12.0925994,9.23684472 11.8028168,9.23106832 C11.7652702,9.23010559 11.7075062,9.40436025 11.4485311,9.5959441 C11.3426304,9.6748882 11.2530963,9.7509441 11.4206118,9.84625466" id="Fill-66" fill="#001641"></path>
                        <path d="M27.6277391,6.5961646 C27.7500062,6.68281056 28.1485776,6.75886646 28.4778323,7.20942547 C28.8080497,7.65805901 28.9255031,8.24340062 28.9255031,8.24340062 C28.9062484,8.28576087 28.3854099,8.15964286 28.2525528,7.85445652 C28.1418385,7.60029503 28.0888882,7.49920807 27.8260621,7.20653727 C27.5622733,6.91290373 27.5276149,6.52492236 27.6277391,6.5961646 M29.0208137,9.24079193 C29.2374286,8.97507764 29.747677,9.03476708 30.1606894,9.3717236 C30.5727391,9.70964286 30.7306273,10.1977484 30.5130497,10.4634627 C30.2964348,10.7282143 29.7861863,10.6694876 29.3741366,10.3315683 C28.962087,9.99364907 28.803236,9.50458075 29.0208137,9.24079193 M31.6625528,11.6832453 C32.0226149,12.1540217 32.014913,12.5506677 32.0312795,12.6998913 C32.0351304,12.7432143 31.7838571,12.7143323 31.6182671,12.4274379 C31.4035776,12.0510093 31.2187329,11.998059 30.9106584,11.6476242 C30.7989814,11.5195807 30.7248509,11.0853882 30.7248509,11.0853882 C30.7248509,11.0853882 31.3024907,11.2134317 31.6625528,11.6832453 M30.8933292,7.75914596 C31.0502547,7.44914596 31.3458137,7.10545031 31.3766211,6.70976708 C31.384323,6.62215839 31.4305342,6.61734472 31.4507516,6.69340062 C31.5037019,6.8975 31.7251304,7.5232764 31.3352236,8.07781056 C31.1436398,8.34930124 30.8259379,8.6140528 30.8066832,8.58035714 C30.8066832,8.58035714 30.6930807,8.15290373 30.8933292,7.75914596 M29.5772733,11.251941 C29.214323,11.2596429 28.9601615,11.2346118 28.6732671,10.9592702 C28.3247578,10.6252019 28.3266832,10.2545497 28.3324596,10.0186801 C28.3343851,9.92818323 28.3854099,9.72408385 28.4094783,9.72793478 C28.4325839,9.73178571 28.4556894,9.8425 28.5250062,10.0100155 C28.8119006,10.704146 29.5031429,10.966972 29.8478012,11.0622826 C29.9700683,11.0959783 30.0750062,11.1171584 30.0586398,11.150854 C30.0499752,11.1701087 29.8381739,11.2471273 29.5772733,11.251941 M32.1496957,9.04920807 C32.328764,8.98951863 32.8794472,8.95582298 33.2144783,9.26967391 C33.453236,9.49399068 33.6053478,9.64225155 33.6053478,9.64225155 C33.608236,9.75104037 33.2087019,9.72793478 32.8014658,9.59507764 C32.4144472,9.48821429 32.0572733,9.28122671 31.7463106,9.28026398 C31.7723043,9.21768634 31.9706273,9.10889752 32.1496957,9.04920807 M27.9589193,9.62588509 C28.1514658,9.71830745 28.1736087,9.83287267 27.9589193,9.89448758 C27.3658758,10.0677795 26.9509379,10.7137733 26.8662174,11.0295497 C26.6149441,11.9634006 26.8575528,12.1020342 26.6062795,12.4043323 C26.3761863,12.6796739 26.6582671,12.8645186 26.9393851,12.7364752 C27.2233913,12.6065062 27.3264037,12.6344255 27.9232981,12.6074689 C28.9129876,12.5631832 29.3269627,11.9614752 29.3750994,11.8305435 C29.4222733,11.6986491 29.5069938,11.6707298 29.6138571,11.9143012 C29.6976149,12.1049224 29.7149441,12.6796739 30.140472,13.0050776 C30.8086087,13.5143634 31.549913,13.3073758 31.8955342,13.3487733 C32.1188882,13.3757298 32.2584845,13.4883696 32.3499441,13.3969099 C32.5405652,13.2062888 32.3018075,12.9665683 32.3037329,12.6931522 C32.3085466,12.0028727 32.0322422,11.3809472 31.4651925,11.0420652 C31.1657826,10.8629969 31.2533913,10.6723758 31.6057516,10.8177484 C31.8945714,10.9371273 32.5771491,11.0189596 32.9930497,10.7956056 C33.7112484,10.4105124 33.6833292,10.1159161 33.9981429,9.95610248 C34.2609689,9.82324534 34.1897267,9.56523292 33.9981429,9.51420807 C33.6881429,9.43045031 33.2924596,8.84029503 32.6714969,8.70262422 C32.0505342,8.56399068 31.7511242,8.87110248 31.5431739,8.95389752 C31.4536398,8.99048137 31.3621801,8.87399068 31.3564037,8.85184783 C31.3294472,8.74787267 31.4680807,8.65545031 31.5133292,8.58228261 C32.2623354,7.60703416 31.6173043,6.72709627 31.6355963,6.29194099 C31.6519627,5.87796584 31.4006894,5.90203416 31.2273975,6.05029503 C31.0030807,6.24380435 30.6353168,6.31986025 30.3012484,6.51336957 C29.9209689,6.73287267 29.5695714,7.38079193 29.5869006,7.87082298 C29.592677,8.02293478 29.5869006,8.26650621 29.4463416,8.23473602 C29.243205,8.18852484 29.311559,7.83520186 29.1960311,7.49535714 C28.8523354,6.48930124 27.776,6.54417702 27.5179876,6.23706522 C27.4130497,6.11190994 27.2272422,6.06569876 27.1155652,6.13886646 C26.957677,6.24187888 27.1136398,6.47774845 26.9740435,6.85032609 C26.5032671,8.10572981 27.2493851,9.28604037 27.9589193,9.62588509" id="Fill-68" fill="#001641"></path>
                        <path d="M22.7896211,13.2492267 C22.5508634,13.6169907 22.7713292,13.7642888 22.8637516,13.6834193 C23.7966398,12.7668975 25.4563913,11.9562764 25.6807081,12.0150031 C25.8414845,12.0564006 26.1331925,12.066028 26.1293416,11.9967112 C26.0927578,11.3333882 26.2602733,10.3302205 26.9775093,9.84596584 C27.1450248,9.75065528 27.0554907,9.67459938 26.9495901,9.59565528 C26.6906149,9.40407143 26.6318882,9.22981677 26.5953043,9.2307795 C26.3055217,9.23751863 25.9281304,9.6139472 25.6258323,10.2878602 C25.4294348,10.724941 25.4409876,10.8703137 24.9567329,11.2698478 C24.4715155,11.6703447 23.5424783,12.0891335 22.7896211,13.2492267" id="Fill-70" fill="#001641"></path>
                        <path d="M20.1044627,6.04702174 C20.2238416,5.83714596 20.5078478,5.52714596 20.824587,5.41546894 C21.1557671,5.2970528 21.4099286,5.31823292 21.4985,5.32112112 C21.6044006,5.32304658 21.5774441,5.34615217 21.4898354,5.37888509 C20.907382,5.77456832 20.6926925,6.43211491 20.4539348,6.76618323 C20.2767919,7.01360559 19.9119161,7.06463043 19.8994006,7.00494099 C19.8666677,6.84320186 19.9523509,6.31369876 20.1044627,6.04702174 M19.2774752,10.7730776 C19.2678478,10.7730776 19.2582205,10.7740404 19.2485932,10.7740404 L19.2447422,10.7740404 C19.241854,10.7740404 19.2399286,10.7740404 19.2380031,10.7750031 L19.2370404,10.7750031 L19.2370404,10.7740404 L19.2341522,10.7740404 L19.2303012,10.7740404 L19.2303012,10.7750031 L19.2293385,10.7750031 C19.227413,10.7740404 19.2254876,10.7740404 19.2225994,10.7740404 L19.2187484,10.7740404 C19.2091211,10.7740404 19.1994938,10.7730776 19.1908292,10.7730776 C18.1116056,10.7653758 17.7265124,9.78242547 17.9315745,9.69481677 C17.9315745,9.69481677 18.1953634,10.1665559 19.1542453,10.2118043 C19.159059,10.2118043 19.1629099,10.2108416 19.1677236,10.2108416 C19.1802391,10.2108416 19.1927547,10.2098789 19.2052702,10.2098789 L19.2071957,10.2098789 L19.2091211,10.2098789 L19.2110466,10.2098789 L19.2139348,10.2098789 L19.2148975,10.2098789 L19.2177857,10.2098789 C19.2303012,10.2098789 19.2428168,10.2108416 19.2553323,10.2108416 C19.260146,10.2108416 19.2639969,10.2118043 19.2697733,10.2118043 C20.2286553,10.1665559 20.5357671,9.69481677 20.5357671,9.69481677 C20.7408292,9.78242547 20.3566988,10.7653758 19.2774752,10.7730776 M16.9081894,5.37888509 C16.8282826,5.32978571 16.794587,5.33556211 16.8995248,5.32112112 C17.0015745,5.30668012 17.2287795,5.2970528 17.5609224,5.41546894 C17.8766988,5.52714596 18.160705,5.83714596 18.2800839,6.04702174 C18.4321957,6.31369876 18.5313571,6.84320186 18.4986242,7.00494099 C18.4870714,7.06463043 18.059618,6.89615217 17.8853634,6.64680435 C17.6340901,6.2886677 17.3770404,5.66674224 16.9081894,5.37888509 M19.1956429,8.01869876 L19.1966056,8.01869876 L19.1966056,8.01966149 L19.1985311,8.01966149 L19.202382,8.01966149 L19.202382,8.01869876 C19.6904876,8.02928882 20.0832826,8.34121429 20.0832826,8.72534472 C20.0832826,9.11043789 19.6904876,9.42236335 19.202382,9.43199068 L19.1994938,9.43199068 L19.1966056,9.43199068 L19.1956429,9.43199068 C18.7075373,9.42236335 18.315705,9.11043789 18.315705,8.72534472 C18.315705,8.34121429 18.7075373,8.02928882 19.1956429,8.01869876 M21.7526615,8.23531366 C21.9375062,8.13037578 22.3591832,7.90798447 22.8521025,8.13230124 C23.0475373,8.22087267 23.3353944,8.40475466 23.5308292,8.49332609 C23.7599596,8.59633851 23.8793385,8.59633851 24.0198975,8.64062422 C24.0574441,8.65217702 24.0121957,8.6897236 23.9669472,8.69935093 C23.765736,8.74074845 23.5144627,9.03149379 22.5286242,8.69164907 C22.2205497,8.58478571 21.9519472,8.34506522 21.7728789,8.33158696 C21.7006739,8.32677329 21.6881584,8.27189752 21.7526615,8.23531366 M16.5972267,8.34121429 C16.4181584,8.35372981 16.1428168,8.58767391 15.8366677,8.70031366 C15.0866988,8.97565528 14.707382,8.78599689 14.4041211,8.70801553 C14.3588727,8.69646273 14.3405807,8.65217702 14.3781273,8.64062422 C14.5186863,8.59633851 14.6380652,8.59633851 14.8671957,8.49332609 C15.0626304,8.40475466 15.3504876,8.22087267 15.5459224,8.13230124 C16.0388416,7.90798447 16.4605186,8.13037578 16.6453634,8.23531366 C16.7098665,8.27189752 16.6694317,8.33640062 16.5972267,8.34121429 M19.2389658,7.08195963 C19.2293385,7.08966149 19.216823,7.09543789 19.202382,7.09736335 L19.202382,7.09543789 C19.2014193,7.09543789 19.1994938,7.09543789 19.1994938,7.09640062 C19.1985311,7.09543789 19.1975683,7.09543789 19.1966056,7.09543789 L19.1966056,7.09736335 L19.1956429,7.09736335 C19.1812019,7.09543789 19.1696491,7.08966149 19.159059,7.08195963 C19.1032205,7.03671118 19.1215124,6.89518944 19.076264,6.64487888 C18.8663882,5.46264286 18.2136553,4.83397826 16.9592143,4.77043789 C16.3344006,4.73963043 16.2901149,4.49605901 16.0619472,4.58559317 C15.8597733,4.6655 16.0263261,4.85612112 15.9897422,5.23543789 C15.9194627,5.9815559 15.9887795,6.62851242 16.7387484,7.32745652 C17.0275683,7.57391615 16.9842453,7.84540683 16.8523509,7.80400932 C16.7580031,7.77320186 16.5721957,7.6807795 16.3825373,7.61146273 C15.540146,7.30723913 14.8999286,7.87236335 14.5475683,8.12074845 C14.4021957,8.22376087 14.3011087,8.36913354 14.0594627,8.42978571 C13.7186553,8.51450621 13.7321335,8.82546894 14.0479099,8.93618323 C14.4175994,9.06615217 14.407972,9.35786025 14.8546801,9.88062422 C15.5170404,10.6604379 16.5115435,10.5718665 17.1161398,10.4505621 C17.4386553,10.3668043 17.4925683,10.4794441 17.5070093,10.5198789 C17.5821025,10.724941 16.9611398,11.4296615 17.8343385,12.4183882 C18.2752702,12.9170839 18.7489348,13.1202205 18.9058602,13.4196304 C18.9963571,13.5919596 19.0030963,13.684382 19.1648354,13.7036366 L19.1648354,13.7055621 C19.1735,13.7065248 19.1821646,13.7065248 19.1917919,13.7065248 C19.1927547,13.7065248 19.1937174,13.7074876 19.1937174,13.7074876 L19.1956429,13.7074876 L19.1966056,13.7074876 L19.1994938,13.7074876 L19.202382,13.7074876 L19.2033447,13.7074876 L19.2062329,13.7065248 C19.2158602,13.7065248 19.2245248,13.7065248 19.2331894,13.7055621 L19.2331894,13.7036366 C19.3958913,13.684382 19.4016677,13.5919596 19.4921646,13.4196304 C19.6481273,13.1202205 20.1227547,12.9170839 20.5636863,12.4183882 C21.4368851,11.4296615 20.8159224,10.724941 20.8910155,10.5198789 C20.9054565,10.4794441 20.9593696,10.3668043 21.2818851,10.4505621 C21.8864814,10.5718665 22.8809845,10.6604379 23.5443075,9.88062422 C23.9900528,9.35786025 23.9804255,9.06615217 24.3501149,8.93618323 C24.6658913,8.82546894 24.6793696,8.51450621 24.3385621,8.42978571 C24.0969161,8.36913354 23.9967919,8.22376087 23.8504565,8.12074845 C23.4980963,7.87236335 22.8578789,7.30723913 22.0154876,7.61146273 C21.8258292,7.6807795 21.6400217,7.77320186 21.5456739,7.80400932 C21.4137795,7.84540683 21.3704565,7.57391615 21.6602391,7.32745652 C22.4092453,6.62851242 22.4785621,5.9815559 22.4082826,5.23543789 C22.3726615,4.85612112 22.5382516,4.6655 22.3360776,4.58559317 C22.1079099,4.49605901 22.0636242,4.73963043 21.4388106,4.77043789 C20.1853323,4.83397826 19.5316366,5.46264286 19.3217609,6.64487888 C19.2774752,6.89518944 19.2948043,7.03671118 19.2389658,7.08195963" id="Fill-72" fill="#001641"></path>
                        <path d="M36.1305963,29.2574534 C36.1305963,32.2987267 35.6319006,35.6394099 32.0129876,39.4556832 C29.1141988,42.513323 22.6918075,46.0224845 19.1653168,47.5984783 C12.7159689,44.741087 7.86475776,41.0981056 6.30898137,39.4556832 C2.68910559,35.6394099 2.19040994,32.2987267 2.19040994,29.2574534 L2.19040994,4.98984472 C9.17985093,2.04484472 18.2719006,2.18347826 19.0998509,2.20273292 C19.1191056,2.20465839 19.1402857,2.20465839 19.1605031,2.20465839 C19.1816832,2.20465839 19.2009379,2.20465839 19.2211553,2.20273292 C20.0491056,2.18251553 29.142118,2.04484472 36.1305963,4.98984472 L36.1305963,29.2574534 Z M19.1605031,1.18993789 C18.4095714,1.1668323 8.87659006,0.950217391 1.47991304,4.1907764 L1.17665217,4.32459627 L1.17665217,29.2574534 C1.17665217,32.5086025 1.70904348,36.0793789 5.57249068,40.1536646 C8.63975776,43.3894099 15.4125839,47.062236 18.9621801,48.6170497 L19.1662795,48.7065839 L19.3694161,48.6170497 C22.9199752,47.0564596 29.6918385,43.3788199 32.7485155,40.1536646 C36.6119627,36.0793789 37.1453168,32.5086025 37.1453168,29.2574534 L37.1453168,4.32459627 L36.8410932,4.1907764 C29.4453789,0.950217391 19.910472,1.1668323 19.1605031,1.18993789 Z" id="Fill-74" fill="#001641"></path>
                        <path d="M37.8303975,29.2579348 C37.8303975,32.6515683 37.2749006,36.3773447 33.2458634,40.6268478 C30.1198696,43.9242081 23.2449938,47.6625 19.6453354,49.2452329 L19.1658944,49.4570342 L18.6854907,49.2452329 C15.0887205,47.6692391 8.21288199,43.9357609 5.07437267,40.6268478 C1.0453354,36.3773447 0.490801242,32.6515683 0.490801242,29.2579348 L0.490801242,3.87548137 L1.20514907,3.5635559 C7.52837888,0.792810559 15.2543106,0.493400621 18.2821056,0.493400621 C18.7288137,0.493400621 19.0320745,0.500139752 19.160118,0.503990683 C19.2881615,0.500139752 19.5904596,0.493400621 20.036205,0.493400621 C23.0649627,0.493400621 30.7937826,0.792810559 37.1160497,3.5635559 L37.8303975,3.87548137 L37.8303975,29.2579348 Z M38.026795,3.42684783 L37.3124472,3.11492236 C30.9044969,0.306630435 23.0957702,0.00336956522 20.036205,0.00336956522 C19.5846832,0.00336956522 19.2823851,-0.00048136646 19.160118,0.00336956522 C19.0378509,-0.00048136646 18.7345901,0.00336956522 18.2821056,0.00336956522 C15.2235031,0.00336956522 7.41670186,0.306630435 1.00875155,3.11395963 L0.294403727,3.42684783 L0.000770186335,3.5548913 L0.000770186335,3.87548137 L0.000770186335,29.2579348 C0.000770186335,32.7526553 0.57263354,36.5901087 4.71912422,40.9638043 C7.90673292,44.324705 14.8567019,48.1024689 18.4881304,49.6938665 L18.9685342,49.904705 L19.1668571,49.9923137 L19.3642174,49.904705 L19.8436584,49.6929037 C23.4760497,48.0966925 30.4250559,44.3141149 33.6011118,40.9638043 C37.7485652,36.589146 38.3204286,32.7526553 38.3204286,29.2579348 L38.3204286,3.87548137 L38.3204286,3.5548913 L38.026795,3.42684783 Z" id="Fill-76" fill="#001641"></path>
                        <path d="M21.5448075,28.5585093 C21.5708012,28.5585093 21.5996832,28.5556211 21.6333789,28.5479193 C21.8576957,28.5122981 22.0810497,28.4949689 22.317882,28.4949689 C22.9147764,28.4949689 23.5858012,28.602795 24.3136273,28.8194099 C24.9134099,28.9946273 25.5257081,29.0543168 25.8366708,29.0735714 L25.8385963,29.0514286 C25.3918882,28.945528 24.9220745,28.7972671 24.4416708,28.6085714 C23.7773851,28.3476708 23.150646,28.1849689 22.5797453,28.1243168 C22.4757702,28.1185404 22.3852733,28.1166149 22.3024783,28.1166149 C22.0771988,28.1166149 21.8567329,28.1320186 21.6208634,28.1695652 C21.4928199,28.1917081 21.330118,28.2350311 21.2251801,28.2745031 C21.2261429,28.2764286 21.286795,28.5585093 21.5448075,28.5585093" id="Fill-78" fill="#001641"></path>
                        <path d="M21.5448075,27.1609099 C21.5708012,27.1609099 21.5996832,27.1580217 21.6333789,27.1503199 C21.8586584,27.113736 22.0820124,27.0973696 22.317882,27.0973696 C22.9138137,27.0973696 23.5858012,27.2051957 24.3136273,27.4208478 C24.7507081,27.5488913 25.2638447,27.6355373 25.8366708,27.6769348 L25.8385963,27.6528665 C25.3909255,27.5479286 24.9211118,27.398705 24.4416708,27.210972 C23.7773851,26.9500714 23.150646,26.7873696 22.5797453,26.7267174 C22.4825093,26.720941 22.3891242,26.7190155 22.3024783,26.7190155 C22.0743106,26.7190155 21.8548075,26.7344193 21.6208634,26.7719658 C21.4928199,26.7941087 21.330118,26.8374317 21.2251801,26.875941 C21.2261429,26.8788292 21.286795,27.1609099 21.5448075,27.1609099" id="Fill-80" fill="#001641"></path>
                        <path d="M21.5448075,25.7633106 C21.571764,25.7633106 21.5996832,25.7604224 21.6324161,25.7527205 C21.8567329,25.7170994 22.0810497,25.6997702 22.317882,25.6997702 C22.9147764,25.6997702 23.5858012,25.808559 24.3136273,26.0232484 C24.9114845,26.1994286 25.5776957,26.2610435 25.8366708,26.2793354 L25.8385963,26.2562298 C25.3918882,26.1503292 24.9211118,26.0020683 24.4416708,25.8133727 C23.7773851,25.552472 23.150646,25.3897702 22.5797453,25.329118 C22.4767329,25.3233416 22.3852733,25.3214161 22.3024783,25.3214161 C22.076236,25.3214161 21.8557702,25.3368199 21.6208634,25.3743665 C21.4928199,25.3955466 21.330118,25.4398323 21.2251801,25.4783416 C21.2261429,25.4812298 21.286795,25.7633106 21.5448075,25.7633106" id="Fill-82" fill="#001641"></path>
                        <path d="M21.5448075,29.9564938 C21.5708012,29.9564938 21.5996832,29.9536056 21.6333789,29.9459037 C21.8567329,29.9102826 22.080087,29.8929534 22.317882,29.8929534 C22.9138137,29.8929534 23.5858012,30.0007795 24.3136273,30.2154689 C24.7478199,30.3435124 25.2609565,30.4301584 25.8366708,30.4715559 L25.8385963,30.4484503 C25.3918882,30.3435124 24.9220745,30.1942888 24.4416708,30.0065559 C23.7783478,29.7456553 23.150646,29.5829534 22.5797453,29.5223012 C22.4748075,29.5165248 22.3833478,29.5145994 22.3024783,29.5145994 C22.076236,29.5145994 21.8557702,29.5300031 21.6208634,29.5675497 C21.4928199,29.5887298 21.330118,29.6330155 21.2251801,29.6715248 C21.2261429,29.674413 21.286795,29.9564938 21.5448075,29.9564938" id="Fill-84" fill="#001641"></path>
                        <path d="M11.3149037,20.7381335 C11.5247795,20.7785683 11.5623261,20.783382 11.8549969,20.7949348 L11.8935062,20.7968602 C11.9291273,20.7987857 11.9637857,20.7997484 11.9994068,20.7997484 C12.0148106,20.7997484 12.0302143,20.7997484 12.045618,20.7987857 C13.1623882,20.7487236 13.4935683,20.3694068 13.4897174,20.3636304 C13.4868292,20.3588168 13.4820155,20.3559286 13.4743137,20.3559286 L13.4723882,20.3559286 C13.2355559,20.4108043 12.9919845,20.4348727 12.8985994,20.4425745 C12.5905248,20.4830093 12.297854,20.5032267 12.0292516,20.5032267 C11.4429472,20.5032267 11.0944379,20.4079161 10.9413634,20.3511149 L10.8980404,20.3376366 L10.8835994,20.3414876 C10.8797484,20.3443758 10.8768602,20.3501522 10.877823,20.3549658 C10.8787857,20.3588168 10.9269224,20.6640031 11.3149037,20.7381335" id="Fill-86" fill="#001641"></path>
                        <path d="M24.3141087,31.6130683 C24.9215932,31.7921366 25.5810652,31.8518261 25.8361894,31.8691553 L25.8381149,31.8460497 C25.3914068,31.7411118 24.9225559,31.5918882 24.4421522,31.4041553 C23.7769037,31.1432547 23.1501646,30.9795901 22.579264,30.9199006 C22.4772143,30.9141242 22.3857547,30.911236 22.3029596,30.911236 C22.0747919,30.911236 21.8543261,30.9276025 21.6213447,30.9651491 C21.4933012,30.9863292 21.3296366,31.0306149 21.2246988,31.0691242 C21.2256615,31.0720124 21.2872764,31.3540932 21.5452888,31.3540932 C21.5712826,31.3540932 21.6001646,31.351205 21.6357857,31.3425404 C21.8591398,31.3069193 22.0824938,31.2905528 22.3174006,31.2905528 C22.914295,31.2905528 23.5853199,31.3983789 24.3141087,31.6130683" id="Fill-88" fill="#001641"></path>
                        <path d="M11.3149037,22.1530621 C11.5247795,22.1934969 11.5623261,22.1992733 11.8549969,22.2098634 L11.8935062,22.2117888 C11.9291273,22.2137143 11.9637857,22.214677 11.9994068,22.214677 C12.0148106,22.214677 12.0302143,22.214677 12.045618,22.2137143 C13.1623882,22.1636522 13.4935683,21.7843354 13.4897174,21.778559 C13.4868292,21.7747081 13.4820155,21.7708571 13.4743137,21.7708571 L13.4723882,21.7708571 C13.2355559,21.8257329 12.9919845,21.850764 12.8985994,21.8575031 C12.5905248,21.8979379 12.297854,21.9181553 12.0292516,21.9181553 C11.4429472,21.9181553 11.0944379,21.8228447 10.9413634,21.7660435 L10.8980404,21.7525652 L10.8835994,21.7564161 C10.8797484,21.7602671 10.8768602,21.7650807 10.877823,21.7698944 C10.8787857,21.7727826 10.9269224,22.0789317 11.3149037,22.1530621" id="Fill-90" fill="#001641"></path>
                        <path d="M5.88489752,26.9239814 C5.93303416,26.9855963 5.96095342,27.0616522 5.96095342,27.1444472 C5.96095342,27.3495093 5.78958696,27.5160621 5.57778571,27.5160621 C5.37176087,27.5160621 5.20520807,27.3591366 5.19558075,27.1617764 C5.16092236,27.2301304 5.1416677,27.3061863 5.1416677,27.3860932 C5.1416677,27.6672112 5.37657453,27.8953789 5.66731988,27.8953789 C5.95710248,27.8953789 6.19297205,27.6672112 6.19297205,27.3860932 C6.19297205,27.1810311 6.06685404,27.0038882 5.88489752,26.9239814" id="Fill-92" fill="#001641"></path>
                        <path d="M5.88489752,31.7371646 C5.93303416,31.7987795 5.96095342,31.8748354 5.96095342,31.9576304 C5.96095342,32.1626925 5.78958696,32.3292453 5.57778571,32.3292453 C5.37176087,32.3292453 5.20520807,32.1723199 5.19558075,31.9759224 C5.16092236,32.0423509 5.1416677,32.1193696 5.1416677,32.2002391 C5.1416677,32.4803944 5.37657453,32.7085621 5.66731988,32.7085621 C5.95710248,32.7085621 6.19297205,32.4803944 6.19297205,32.2002391 C6.19297205,31.9942143 6.06685404,31.8170714 5.88489752,31.7371646" id="Fill-94" fill="#001641"></path>
                        <path d="M21.5448075,24.3658075 C21.571764,24.3658075 21.5996832,24.3629193 21.6314534,24.3561801 C21.8567329,24.3195963 22.0810497,24.3022671 22.317882,24.3022671 C22.9147764,24.3022671 23.5858012,24.4110559 24.3136273,24.6257453 C24.7526335,24.7547516 25.2657702,24.8413975 25.8366708,24.8818323 L25.8385963,24.8587267 C25.3918882,24.7528261 24.9211118,24.6045652 24.4416708,24.4168323 C23.7783478,24.1549689 23.150646,23.9922671 22.5797453,23.9316149 C22.4748075,23.9258385 22.3833478,23.923913 22.3024783,23.923913 C22.0752733,23.923913 21.8548075,23.9393168 21.6208634,23.9768634 C21.4937826,23.9980435 21.330118,24.0423292 21.2251801,24.0808385 C21.2261429,24.0837267 21.286795,24.3658075 21.5448075,24.3658075" id="Fill-96" fill="#001641"></path>
                        <path d="M5.88489752,22.1103168 C5.93303416,22.1719317 5.96095342,22.2479876 5.96095342,22.3307826 C5.96095342,22.5358447 5.78958696,22.7023975 5.57778571,22.7023975 C5.37176087,22.7023975 5.20520807,22.545472 5.19558075,22.3481118 C5.16092236,22.4164658 5.1416677,22.491559 5.1416677,22.5724286 C5.1416677,22.8535466 5.37657453,23.0817143 5.66731988,23.0817143 C5.95710248,23.0817143 6.19297205,22.8535466 6.19297205,22.5724286 C6.19297205,22.3673665 6.06685404,22.1902236 5.88489752,22.1103168" id="Fill-98" fill="#001641"></path>
                        <path d="M21.5452888,20.1721429 C21.5722453,20.1721429 21.6001646,20.1692547 21.6300093,20.1625155 C21.8562516,20.1268944 22.0805683,20.1086025 22.3174006,20.1086025 C22.914295,20.1086025 23.5862826,20.2173913 24.3141087,20.4320807 C24.885972,20.600559 25.4578354,20.6640994 25.8371522,20.6891304 L25.8381149,20.6650621 C25.3904441,20.5591615 24.9206304,20.4109006 24.4421522,20.2231677 C23.7778665,19.9622671 23.1511273,19.7986025 22.579264,19.7379503 C22.478177,19.7331366 22.3876801,19.7302484 22.3029596,19.7302484 C22.099823,19.7302484 21.8976491,19.7446894 21.6752578,19.7735714 L21.6502267,19.7764596 L21.6213447,19.7831988 C21.494264,19.8043789 21.3305994,19.8486646 21.2256615,19.8871739 C21.2256615,19.8900621 21.2872764,20.1721429 21.5452888,20.1721429" id="Fill-100" fill="#001641"></path>
                        <path d="M21.5448075,22.9677267 C21.571764,22.9677267 21.5996832,22.9638758 21.6314534,22.9580994 C21.8567329,22.9215155 22.0810497,22.9041863 22.317882,22.9041863 C22.9138137,22.9041863 23.5858012,23.0129752 24.3136273,23.2276646 C24.895118,23.3990311 25.4111429,23.4529441 25.8366708,23.4837516 L25.8385963,23.460646 C25.3909255,23.3547453 24.9211118,23.2064845 24.4416708,23.0177888 C23.7793106,22.7578509 23.1516087,22.5941863 22.5797453,22.5335342 C22.4757702,22.5287205 22.3843106,22.5258323 22.3024783,22.5258323 C22.0993416,22.5258323 21.896205,22.5402733 21.6795901,22.5691553 L21.6555217,22.5710807 C21.6468571,22.5720435 21.6381925,22.5730062 21.6208634,22.5787826 C21.4937826,22.5999627 21.330118,22.6442484 21.2251801,22.6827578 C21.2261429,22.685646 21.286795,22.9677267 21.5448075,22.9677267" id="Fill-102" fill="#001641"></path>
                        <path d="M21.5452888,21.5697422 C21.5722453,21.5697422 21.6001646,21.566854 21.630972,21.5601149 C21.8562516,21.5244938 22.0805683,21.5062019 22.3174006,21.5062019 C22.914295,21.5062019 23.5862826,21.6149907 24.3141087,21.8296801 C24.7473385,21.9577236 25.2585497,22.0434068 25.8371522,22.0857671 L25.8381149,22.0626615 C25.3894814,21.9567609 24.9196677,21.8075373 24.4421522,21.6207671 C23.7778665,21.3598665 23.1511273,21.1962019 22.579264,21.1355497 C22.4762516,21.130736 22.3847919,21.1278478 22.3029596,21.1278478 C22.099823,21.1278478 21.8966863,21.1422888 21.678146,21.1711708 L21.6550404,21.1730963 L21.6213447,21.1807981 C21.494264,21.2019783 21.3305994,21.246264 21.2256615,21.2847733 C21.2256615,21.2876615 21.2872764,21.5697422 21.5452888,21.5697422" id="Fill-104" fill="#001641"></path>
                        <path d="M11.8939876,32.1216801 C11.928646,32.1236056 11.9642671,32.1245683 11.9998882,32.1245683 C12.0152919,32.1245683 12.0306957,32.1245683 12.0460994,32.1236056 C13.1619068,32.0735435 13.493087,31.6942267 13.4901988,31.6884503 C13.4873106,31.6836366 13.4824969,31.6807484 13.4738323,31.6807484 L13.4728696,31.6807484 C13.2360373,31.7356242 12.9915031,31.7596925 12.8990807,31.7683571 C12.5910062,31.8078292 12.2983354,31.8280466 12.0297329,31.8280466 C11.4424658,31.8280466 11.0949193,31.732736 10.9418447,31.6759348 L10.897559,31.6624565 L10.8840807,31.6663075 C10.8792671,31.6691957 10.8773416,31.674972 10.8783043,31.6797857 C10.8783043,31.6826739 10.9274037,31.988823 11.3153851,32.0629534 C11.5252609,32.1033882 11.5628075,32.1082019 11.8554783,32.1197547 L11.8939876,32.1216801 Z" id="Fill-106" fill="#001641"></path>
                        <path d="M11.3149037,27.8157609 C11.5247795,27.8561957 11.5623261,27.861972 11.8549969,27.8725621 L11.8935062,27.8744876 C11.9291273,27.876413 11.9637857,27.8773758 11.9994068,27.8773758 C12.0148106,27.8773758 12.0302143,27.8773758 12.045618,27.876413 C13.1623882,27.8263509 13.4935683,27.4470342 13.4897174,27.4412578 C13.4868292,27.4374068 13.4820155,27.4345186 13.4743137,27.4345186 L13.4723882,27.4345186 C13.2355559,27.4884317 12.9919845,27.5134627 12.8985994,27.5202019 C12.5905248,27.5606366 12.297854,27.580854 12.0292516,27.580854 C11.4429472,27.580854 11.0944379,27.4855435 10.9413634,27.4287422 L10.8980404,27.415264 L10.8835994,27.4191149 C10.8797484,27.4229658 10.8768602,27.4277795 10.877823,27.4325932 C10.8787857,27.4354814 10.9269224,27.7416304 11.3149037,27.8157609" id="Fill-108" fill="#001641"></path>
                        <path d="M11.3149037,30.6470621 C11.5247795,30.6874969 11.5623261,30.6932733 11.8549969,30.7048261 L11.8935062,30.7057888 C11.9291273,30.7077143 11.9637857,30.708677 11.9994068,30.708677 C12.0148106,30.708677 12.0302143,30.708677 12.045618,30.7077143 C13.1623882,30.6576522 13.4935683,30.2783354 13.4897174,30.272559 C13.4868292,30.2687081 13.4820155,30.2648571 13.4743137,30.2648571 L13.4723882,30.2648571 C13.2355559,30.3197329 12.9919845,30.344764 12.8985994,30.3524658 C12.5905248,30.3919379 12.297854,30.4121553 12.0292516,30.4121553 C11.4429472,30.4121553 11.0944379,30.3168447 10.9413634,30.2600435 L10.8980404,30.2465652 L10.8835994,30.2504161 C10.8797484,30.2542671 10.8768602,30.2590807 10.877823,30.2638944 C10.8787857,30.2667826 10.9269224,30.5729317 11.3149037,30.6470621" id="Fill-110" fill="#001641"></path>
                        <path d="M11.3149037,23.5689534 C11.5247795,23.6093882 11.5623261,23.6142019 11.8549969,23.6257547 L11.8935062,23.6276801 C11.9291273,23.6296056 11.9637857,23.6305683 11.9994068,23.6305683 C12.0148106,23.6305683 12.0302143,23.6305683 12.045618,23.6296056 C13.1623882,23.5795435 13.4935683,23.2002267 13.4897174,23.1944503 C13.4868292,23.1896366 13.4820155,23.1877112 13.4743137,23.1877112 L13.4723882,23.1877112 C13.2355559,23.2416242 12.9919845,23.2656925 12.8985994,23.2733944 C12.5905248,23.3138292 12.297854,23.3340466 12.0292516,23.3340466 C11.4429472,23.3340466 11.0944379,23.238736 10.9413634,23.1819348 L10.8980404,23.1684565 L10.8835994,23.1723075 C10.8797484,23.1751957 10.8768602,23.180972 10.877823,23.1857857 C10.8787857,23.1896366 10.9269224,23.494823 11.3149037,23.5689534" id="Fill-112" fill="#001641"></path>
                        <path d="M11.3149037,29.2316522 C11.5247795,29.272087 11.5623261,29.2769006 11.8549969,29.2884534 L11.8935062,29.2903789 C11.9291273,29.2923043 11.9637857,29.2932671 11.9994068,29.2932671 C12.0148106,29.2932671 12.0302143,29.2932671 12.045618,29.2923043 C13.1623882,29.2422422 13.4935683,28.8629255 13.4897174,28.8571491 C13.4868292,28.8523354 13.4820155,28.8494472 13.4743137,28.8494472 L13.4723882,28.8494472 C13.2355559,28.904323 12.9919845,28.9283913 12.8985994,28.9360932 C12.5905248,28.976528 12.297854,28.9967453 12.0292516,28.9967453 C11.4429472,28.9967453 11.0944379,28.9014348 10.9413634,28.8446335 L10.8980404,28.8311553 L10.8835994,28.8350062 C10.8797484,28.8378944 10.8768602,28.8436708 10.877823,28.8484845 C10.8787857,28.8513727 10.9269224,29.1575217 11.3149037,29.2316522" id="Fill-114" fill="#001641"></path>
                        <path d="M11.3149037,26.4008323 C11.5247795,26.4412671 11.5623261,26.4460807 11.8549969,26.4576335 L11.8935062,26.459559 C11.9291273,26.4614845 11.9637857,26.4624472 11.9994068,26.4624472 C12.0148106,26.4624472 12.0302143,26.4624472 12.045618,26.4614845 C13.1623882,26.4114224 13.4935683,26.0321056 13.4897174,26.0263292 C13.4868292,26.0215155 13.4820155,26.0186273 13.4743137,26.0186273 L13.4723882,26.0186273 C13.2355559,26.0735031 12.9919845,26.0975714 12.8985994,26.1052733 C12.5905248,26.1457081 12.297854,26.1659255 12.0292516,26.1659255 C11.4429472,26.1659255 11.0944379,26.0706149 10.9413634,26.0138137 L10.8980404,26.0003354 L10.8835994,26.0041863 C10.8797484,26.0070745 10.8768602,26.0128509 10.877823,26.0176646 C10.8787857,26.0205528 10.9269224,26.3267019 11.3149037,26.4008323" id="Fill-116" fill="#001641"></path>
                        <path d="M11.3149037,24.9848447 C11.5247795,25.0252795 11.5623261,25.0310559 11.8549969,25.041646 L11.8935062,25.0435714 C11.9291273,25.0454969 11.9637857,25.0464596 11.9994068,25.0464596 C12.0148106,25.0464596 12.0302143,25.0464596 12.045618,25.0454969 C13.1623882,24.9954348 13.4935683,24.616118 13.4897174,24.6103416 C13.4868292,24.6064907 13.4820155,24.6036025 13.4743137,24.6036025 L13.4723882,24.6036025 C13.2355559,24.6575155 12.9919845,24.6825466 12.8985994,24.6892857 C12.5905248,24.7297205 12.297854,24.7499379 12.0292516,24.7499379 C11.4429472,24.7499379 11.0944379,24.6546273 10.9413634,24.5978261 L10.8980404,24.5843478 L10.8835994,24.5881988 C10.8797484,24.5920497 10.8768602,24.5968634 10.877823,24.601677 C10.8787857,24.605528 10.9269224,24.9107143 11.3149037,24.9848447" id="Fill-118" fill="#001641"></path>
                        <path d="M33.5704969,24.0503199 L32.3709317,24.0503199 L32.3709317,23.3051646 L32.3786335,23.3051646 L33.0323292,22.7371522 L31.5295031,22.7371522 L31.5295031,22.0661273 L32.3709317,22.0661273 L32.3709317,21.2940155 L33.5704969,21.2940155 L33.5704969,24.0503199 Z M33.5704969,28.8947919 L32.3709317,28.8947919 L32.3709317,28.1486739 L32.3786335,28.1486739 L33.0323292,27.5816242 L31.5295031,27.5816242 L31.5295031,26.9096366 L32.3709317,26.9096366 L32.3709317,26.1384876 L33.5704969,26.1384876 L33.5704969,28.8947919 Z M33.5704969,33.7383012 L32.3709317,33.7383012 L32.3709317,32.9921832 L32.3786335,32.9921832 L33.0323292,32.4251335 L31.5295031,32.4251335 L31.5295031,31.7541087 L32.3709317,31.7541087 L32.3709317,30.9810342 L33.5704969,30.9810342 L33.5704969,33.7383012 Z M31.1039752,35.8871211 L21.9926708,35.8871211 L21.9917081,35.8871211 C21.7490994,35.9034876 21.505528,35.8813447 21.152205,36.1547609 C20.8576087,36.4262516 20.276118,36.8113447 19.3181988,36.8575559 C18.1966149,36.9114689 17.4870807,36.4185497 17.1626398,36.1201025 C16.8882609,35.9265932 16.682236,35.9111894 16.4848758,35.9015621 L7.55071429,35.9015621 L7.55071429,20.337059 L8.95341615,20.337059 L8.89854037,20.4025248 L8.89854037,34.1301335 L8.49611801,34.6307547 L8.49611801,20.8858168 L8.08214286,21.3835497 L8.10524845,35.2507547 L16.5907764,35.2507547 C16.613882,35.2526801 16.642764,35.2526801 16.6735714,35.2507547 L16.8160559,35.2507547 C17.248323,35.2690466 17.4370186,35.4760342 17.601646,35.6117795 C17.8712112,35.8437981 18.3699068,36.0989224 19.2036335,36.0989224 C19.8881366,36.0989224 20.3415839,35.8977112 20.6284783,35.6926491 C20.643882,35.6887981 20.6592857,35.6830217 20.6775776,35.6714689 C20.8576087,35.5636429 21.0164596,35.3056304 21.4496894,35.2507547 L30.5475155,35.2507547 L30.5436646,21.4663447 L30.1056211,20.9002578 L30.1056211,34.6307547 L29.7031988,34.1301335 L29.7031988,20.3794193 L29.6704658,20.337059 L31.1039752,20.337059 L31.1039752,35.8871211 Z M9.34813665,19.8027422 L9.75055901,19.3021211 L9.75055901,33.0692019 L9.34813665,33.569823 L9.34813665,19.8027422 Z M10.2232609,19.1028354 C11.8868634,19.9365621 14.1069255,18.8082391 16.0603106,18.6310963 C17.6035714,18.4905373 18.4228571,19.1596366 18.7174534,19.4734876 L18.7174534,20.3534255 C18.5162422,20.2022764 18.236087,20.0636429 17.8586957,19.9307857 C17.7508696,19.900941 17.4245031,19.8085186 17.1173913,19.8085186 C17.0326708,19.8085186 16.9556522,19.8152578 16.8863354,19.8229596 C16.8738199,19.8239224 16.8699689,19.8296988 16.8844099,19.8316242 C16.9614286,19.843177 17.1096894,19.8710963 17.2926087,19.9327112 L17.3118634,19.9384876 C18.0695342,20.2157547 18.5046894,20.6403199 18.7174534,20.899295 L18.7174534,21.7436118 C18.5480124,21.6223075 18.2871118,21.4846366 17.8558075,21.3383012 C17.752795,21.310382 17.4370186,21.2266242 17.1356832,21.2266242 C17.0451863,21.2266242 16.9623913,21.2333634 16.8892236,21.2429907 C16.8767081,21.2449161 16.8699689,21.2516553 16.8911491,21.2555062 C16.895,21.2555062 16.8988509,21.2564689 16.9027019,21.2564689 C16.9768323,21.2680217 17.1135404,21.2882391 17.2897205,21.3469658 L17.3099379,21.3527422 C18.0570186,21.6049783 18.5018012,22.0372453 18.7174534,22.294295 L18.7174534,23.1376491 C18.5210559,22.9990155 18.2409006,22.8719348 17.8509938,22.744854 C17.7412422,22.7169348 17.4485714,22.6418416 17.1530124,22.6418416 C17.0596273,22.6418416 16.9749068,22.6495435 16.8988509,22.6591708 C16.880559,22.662059 16.8747826,22.6707236 16.8959627,22.6726491 C16.9768323,22.6822764 17.1154658,22.7063447 17.2820186,22.7573696 L17.3465217,22.7785497 C18.1041925,23.0635186 18.5191304,23.4515 18.7174534,23.6844814 L18.7174534,24.5249472 C18.5239441,24.3930528 18.246677,24.2736739 17.8519565,24.1504441 C17.756646,24.1273385 17.4678261,24.0560963 17.1780435,24.0560963 C17.0721429,24.0560963 16.9758696,24.0657236 16.8921118,24.0792019 C16.8776708,24.0811273 16.8728571,24.0897919 16.9007764,24.0926801 C16.9729814,24.1013447 17.1087267,24.1177112 17.287795,24.1706615 L17.3773292,24.1985807 C18.1003416,24.4517795 18.517205,24.8416863 18.7174534,25.0756304 L18.7174534,25.9141708 C18.5249068,25.7870901 18.246677,25.6715621 17.8529193,25.5541087 C17.7604969,25.5329286 17.4813043,25.4693882 17.205,25.4693882 C17.0865839,25.4693882 16.9806832,25.4799783 16.8901863,25.4963447 C16.8776708,25.4982702 16.8728571,25.505972 16.8844099,25.5078975 C16.8959627,25.5088602 16.909441,25.5107857 16.9258075,25.5127112 C17.006677,25.5213758 17.1270186,25.5338913 17.2906832,25.5810652 L17.3099379,25.5858789 C17.5332919,25.6696366 18.2303106,25.9623075 18.7174534,26.4889224 L18.7174534,27.3053199 C18.5249068,27.1801646 18.2486025,27.0694503 17.8548447,26.9568106 C17.7576087,26.9356304 17.4986335,26.8797919 17.2300311,26.8797919 C17.1019876,26.8797919 16.9883851,26.8923075 16.8882609,26.9105994 C16.8757453,26.9134876 16.8728571,26.9183012 16.8882609,26.919264 C16.9652795,26.9240776 17.1087267,26.9404441 17.291646,26.9895435 L17.3099379,26.9943571 C17.882764,27.1609099 18.3776087,27.4689845 18.7174534,27.8608168 L18.7174534,28.6983944 C18.5258696,28.5751646 18.2476398,28.4663758 17.8519565,28.3585497 C17.7065839,28.328705 17.4870807,28.2892329 17.2540994,28.2892329 C17.118354,28.2892329 16.9980124,28.3036739 16.8921118,28.3238913 C16.8776708,28.3267795 16.8738199,28.3325559 16.8901863,28.3335186 C16.9681677,28.3383323 17.1125776,28.3518106 17.2897205,28.3980217 L17.3080124,28.4028354 C17.5111491,28.4577112 18.163882,28.678177 18.7174534,29.2827733 L18.7174534,30.0885807 C18.5249068,29.9653509 18.2486025,29.8613758 17.853882,29.7593261 C17.7162112,29.7323696 17.5063354,29.6977112 17.2829814,29.6977112 C17.1356832,29.6977112 17.0047516,29.7131149 16.895,29.7371832 C16.8815217,29.7400714 16.8670807,29.7468106 16.8863354,29.7477733 C16.948913,29.7506615 17.0971739,29.7564379 17.291646,29.8045745 L17.3099379,29.8084255 C17.5563975,29.8517484 18.3313975,30.2146988 18.7174534,30.6132702 L18.7174534,31.4768416 C18.5249068,31.3516863 18.2457143,31.2467484 17.8442547,31.1485497 C17.7614596,31.1341087 17.5409938,31.0955994 17.3041615,31.0955994 C17.147236,31.0955994 17.0086025,31.1119658 16.8930745,31.1389224 C16.8795963,31.1418106 16.8786335,31.1514379 16.9055901,31.1524006 C16.977795,31.1543261 17.1116149,31.1601025 17.2858696,31.2005373 L17.3041615,31.2043882 C17.9520807,31.342059 18.4565528,31.7483323 18.7174534,32.0323385 L18.7174534,33.0615 C18.095528,32.6234565 16.8767081,31.9119969 14.2465217,32.7534255 C12.1901242,33.410972 10.5197826,33.075941 10.2232609,32.8275559 L10.2232609,19.1028354 Z M19.728323,19.4917795 C20.0450621,19.1875559 20.9529193,18.4876491 22.528913,18.6310963 C24.4822981,18.8082391 26.7023602,19.9365621 28.365,19.1028354 L28.365,32.8275559 C28.069441,33.075941 26.3990994,33.410972 24.3427019,32.7534255 C21.4939752,31.8426801 20.3001863,32.7515 19.728323,33.1635497 L19.728323,19.4917795 Z M28.8521429,19.3021211 L29.2545652,19.8027422 L29.2545652,33.569823 L28.8521429,33.0692019 L28.8521429,19.3021211 Z M7.09437888,23.1212826 L6.35692547,23.1212826 C6.36173913,23.2772453 6.36751553,23.5314068 6.35307453,23.6613758 C6.31745342,24.0185497 5.93813665,24.2582702 5.60695652,24.2582702 C5.41729814,24.2582702 5.24881988,24.183177 5.13425466,24.0483944 C4.90127329,23.7749783 5.11403727,23.3090155 5.19779503,23.1723075 C5.06012422,23.2156304 4.93111801,23.2368106 4.81462733,23.2368106 C4.59512422,23.2368106 4.22350932,23.1482391 4.1936646,22.5542329 C4.22350932,21.9515621 4.59512422,21.8629907 4.81559006,21.8629907 C4.93111801,21.8629907 5.06012422,21.8851335 5.19779503,21.9284565 C5.115,21.7907857 4.90127329,21.3257857 5.13425466,21.0523696 C5.24881988,20.9166242 5.41729814,20.8424938 5.60695652,20.8424938 C5.93909938,20.8424938 6.31745342,21.0822143 6.35307453,21.4393882 C6.3665528,21.562618 6.36270186,21.8485497 6.35692547,21.9958478 L7.09437888,21.9958478 L7.09437888,23.1212826 Z M7.09437888,27.9359099 L6.35692547,27.9359099 C6.36173913,28.0909099 6.36751553,28.3441087 6.35307453,28.4750404 C6.31745342,28.8322143 5.93909938,29.0719348 5.60695652,29.0719348 C5.41729814,29.0719348 5.24881988,28.9968416 5.13425466,28.862059 C4.90127329,28.5886429 5.115,28.1236429 5.19779503,27.9850093 C5.06012422,28.029295 4.93111801,28.0504752 4.81462733,28.0504752 C4.59512422,28.0504752 4.22350932,27.9619037 4.1936646,27.3678975 C4.22350932,26.7652267 4.59512422,26.6766553 4.81559006,26.6766553 C4.93111801,26.6766553 5.06012422,26.6987981 5.19779503,26.7421211 C5.115,26.6044503 4.90127329,26.1384876 5.13425466,25.8660342 C5.24978261,25.7302888 5.41729814,25.6561584 5.60791925,25.6561584 C5.93909938,25.6561584 6.31745342,25.8958789 6.35307453,26.2520901 C6.36462733,26.3637671 6.3636646,26.6564379 6.3578882,26.8095124 L7.09437888,26.8095124 L7.09437888,27.9359099 Z M7.09437888,32.7486118 L6.35692547,32.7486118 C6.36173913,32.9045745 6.36751553,33.158736 6.35307453,33.288705 C6.31745342,33.6458789 5.93909938,33.8855994 5.60695652,33.8855994 C5.41729814,33.8855994 5.24881988,33.8114689 5.13425466,33.6747609 C4.90127329,33.4023075 5.115,32.9373075 5.19779503,32.7986739 C5.06012422,32.8429596 4.93111801,32.8641398 4.81559006,32.8641398 C4.59512422,32.8641398 4.22350932,32.7755683 4.1936646,32.1815621 C4.22158385,31.608736 4.54698758,31.4903199 4.81462733,31.4903199 C4.93111801,31.4903199 5.05916149,31.5124627 5.19779503,31.5557857 C5.115,31.4181149 4.90127329,30.9521522 5.13425466,30.6796988 C5.24881988,30.5439534 5.41729814,30.4688602 5.60695652,30.4688602 C5.93909938,30.4688602 6.31745342,30.7085807 6.35307453,31.0657547 C6.3665528,31.1918727 6.36270186,31.4778043 6.35692547,31.623177 L7.09437888,31.623177 L7.09437888,32.7486118 Z M32.913913,14.5933944 C31.5121739,14.6049472 30.4069565,14.9332391 29.338323,15.250941 C28.3707764,15.5378354 27.3704969,15.8343571 26.1593789,15.8738292 C25.2322671,15.9046366 24.3956522,15.6639534 23.4261801,15.3857236 L23.4136646,15.3818727 C22.2631988,15.052618 20.9586957,14.6781149 19.2122981,14.6781149 L19.1160248,14.6781149 C17.8038199,14.6781149 16.6995652,14.9678975 15.528882,15.2750093 C14.483354,15.5503509 13.4012422,15.8333944 12.1747205,15.8738292 C11.1831056,15.9046366 10.1857143,15.6427733 9.13152174,15.3645435 L9.12285714,15.362618 C7.93388199,15.0478043 6.70350932,14.7233634 5.24400621,14.7195124 L5.20453416,14.7195124 C4.29667702,14.7195124 3.52263975,14.8215621 2.87664596,14.9476801 L2.87664596,29.2577422 C2.87664596,32.1574938 3.35223602,35.3422143 6.80555901,38.9842329 C8.29201863,40.5525248 12.9400932,44.0472453 19.1631988,46.8468727 C22.6174845,45.2699161 28.7809006,41.8685807 31.5150621,38.9842329 C34.9683851,35.3422143 35.4449379,32.1574938 35.4449379,29.2577422 L35.4449379,14.897618 C34.7171118,14.7272143 33.8881988,14.5933944 32.9437578,14.5933944 L32.913913,14.5933944 Z" id="Fill-120" fill="#001641"></path>
                    </g>
                </g>
            </g>
        </g>
    </g>
</svg>