<svg id="svg" version="1.1" xmlns="http://www.w3.org/2000/svg" xmlns:xlink="http://www.w3.org/1999/xlink" width="400" height="400" viewBox="0, 0, 400,400"><g id="svgg"><path id="path0" d="M204.400 88.400 C 204.400 88.620,204.029 88.800,203.576 88.800 C 203.123 88.800,202.864 88.980,203.000 89.200 C 203.153 89.448,202.364 89.611,200.924 89.628 C 199.256 89.648,198.826 89.753,199.400 90.000 C 200.163 90.328,200.159 90.345,199.300 90.372 C 198.805 90.387,198.400 90.192,198.400 89.939 C 198.400 89.685,198.040 89.893,197.600 90.400 C 197.160 90.907,196.800 91.475,196.800 91.661 C 196.800 91.848,196.530 92.000,196.200 92.000 C 195.870 92.000,195.600 91.820,195.600 91.600 C 195.600 91.380,195.311 91.200,194.957 91.200 C 194.537 91.200,194.398 91.418,194.556 91.830 C 194.837 92.562,193.941 93.600,193.029 93.600 C 192.683 93.600,192.400 93.780,192.400 94.000 C 192.400 94.220,192.130 94.400,191.800 94.400 C 191.470 94.400,191.200 94.220,191.200 94.000 C 191.200 93.780,191.020 93.600,190.800 93.600 C 190.580 93.600,190.400 93.870,190.400 94.200 C 190.400 94.554,190.031 94.803,189.500 94.806 C 188.772 94.811,188.715 94.886,189.200 95.200 C 189.688 95.516,189.638 95.589,188.928 95.594 C 188.331 95.598,188.015 95.884,187.927 96.500 C 187.831 97.169,187.563 97.375,186.886 97.302 C 185.967 97.204,182.400 100.298,182.400 101.193 C 182.400 101.421,181.860 102.172,181.200 102.863 C 180.540 103.554,180.000 104.279,180.000 104.476 C 180.000 104.673,179.640 105.220,179.200 105.692 C 178.387 106.565,178.156 107.238,178.700 107.153 C 179.478 107.030,179.538 107.264,178.914 107.992 C 178.462 108.520,178.145 108.635,177.961 108.337 C 177.556 107.681,176.684 109.513,176.939 110.487 C 177.161 111.337,176.532 112.787,175.713 113.313 C 175.411 113.506,175.316 114.078,175.463 114.813 C 175.672 115.861,175.589 116.001,174.750 116.006 C 173.986 116.011,173.918 116.089,174.400 116.406 C 174.933 116.756,174.933 116.848,174.400 117.230 C 173.948 117.555,173.924 117.711,174.300 117.864 C 174.575 117.975,174.800 118.242,174.800 118.457 C 174.800 118.672,174.620 118.736,174.400 118.600 C 174.169 118.457,174.000 118.833,174.000 119.488 C 174.000 120.165,173.677 120.856,173.200 121.200 C 172.511 121.697,172.400 122.235,172.400 125.088 C 172.400 127.029,172.234 128.400,172.000 128.400 C 171.780 128.400,171.600 129.120,171.600 130.000 C 171.600 130.880,171.420 131.600,171.200 131.600 C 170.980 131.600,170.800 132.320,170.800 133.200 C 170.800 134.080,170.980 134.800,171.200 134.800 C 171.420 134.800,171.600 135.070,171.600 135.400 C 171.600 136.216,170.928 136.158,170.447 135.300 C 170.172 134.810,170.076 135.759,170.127 138.458 C 170.167 140.580,170.315 142.247,170.455 142.163 C 171.389 141.598,171.628 255.895,170.694 256.871 C 169.690 257.921,170.396 283.376,171.459 284.438 C 176.027 289.000,199.501 288.250,202.078 283.460 C 202.420 282.822,202.587 264.562,202.724 212.900 C 202.841 168.304,203.047 143.200,203.295 143.200 C 203.524 143.200,203.625 141.931,203.541 140.100 C 203.435 137.774,203.525 137.025,203.900 137.100 C 204.193 137.159,204.400 136.787,204.400 136.200 C 204.400 135.650,204.220 135.200,204.000 135.200 C 203.780 135.200,203.600 134.919,203.600 134.576 C 203.600 134.233,203.780 134.064,204.000 134.200 C 204.236 134.346,204.400 133.900,204.400 133.112 C 204.400 132.235,204.675 131.578,205.200 131.200 C 206.187 130.489,206.237 129.386,205.300 128.988 C 204.699 128.732,204.742 128.651,205.600 128.417 C 206.379 128.204,206.583 127.907,206.525 127.072 C 206.467 126.252,206.632 126.000,207.225 126.000 C 207.819 126.000,208.000 125.721,208.000 124.800 C 208.000 123.867,208.178 123.600,208.800 123.600 C 209.240 123.600,209.600 123.342,209.600 123.027 C 209.600 122.712,209.960 122.340,210.400 122.200 C 210.846 122.058,211.200 121.595,211.200 121.151 C 211.200 114.018,238.947 113.905,242.601 121.023 C 243.568 122.906,244.768 123.987,245.556 123.685 C 245.967 123.527,246.066 123.652,245.890 124.110 C 245.706 124.590,245.810 124.694,246.290 124.510 C 246.784 124.321,246.875 124.428,246.671 124.960 C 246.365 125.756,247.217 126.800,248.171 126.800 C 248.517 126.800,248.800 126.980,248.800 127.200 C 248.800 127.420,248.620 127.600,248.400 127.600 C 248.180 127.600,248.000 127.778,248.000 127.995 C 248.000 128.213,248.405 128.348,248.900 128.295 C 249.690 128.212,249.785 128.359,249.674 129.500 C 249.569 130.587,249.684 130.800,250.374 130.800 C 250.855 130.800,251.200 131.060,251.200 131.424 C 251.200 131.767,251.020 131.936,250.800 131.800 C 249.969 131.286,250.447 132.123,251.600 133.200 C 252.630 134.162,252.800 134.610,252.800 136.360 C 252.800 137.482,252.980 138.400,253.200 138.400 C 253.420 138.400,253.600 139.030,253.600 139.800 C 253.600 140.570,253.780 141.200,254.000 141.200 C 254.262 141.200,254.400 148.667,254.400 162.800 C 254.400 176.933,254.538 184.400,254.800 184.400 C 255.020 184.400,255.200 184.591,255.200 184.824 C 255.200 185.057,255.020 185.136,254.800 185.000 C 254.580 184.864,254.400 185.023,254.400 185.353 C 254.400 185.683,254.608 186.081,254.862 186.238 C 255.171 186.429,255.218 186.338,255.003 185.962 C 254.744 185.507,254.786 185.496,255.221 185.900 C 255.631 186.281,259.176 186.400,270.070 186.400 L 284.379 186.400 284.981 185.237 C 285.750 183.750,285.907 96.252,285.142 95.330 C 284.435 94.478,258.000 94.558,258.000 95.413 C 258.000 95.749,257.730 96.129,257.400 96.255 C 256.899 96.448,256.800 97.613,256.800 103.309 C 256.800 107.063,256.687 110.020,256.548 109.881 C 256.409 109.743,256.291 106.608,256.285 102.915 L 256.274 96.200 255.999 102.200 C 255.692 108.887,255.759 108.400,255.153 108.400 C 254.889 108.400,254.787 107.979,254.904 107.368 C 255.041 106.652,254.903 106.267,254.451 106.106 C 253.169 105.652,252.759 105.131,253.235 104.558 C 253.720 103.974,252.886 102.800,251.986 102.800 C 251.727 102.800,251.617 102.532,251.743 102.204 C 252.022 101.477,250.240 99.600,249.271 99.600 C 248.450 99.600,247.200 98.252,247.200 97.367 C 247.200 97.024,246.930 96.473,246.600 96.143 C 246.270 95.813,246.000 95.736,246.000 95.971 C 246.000 96.207,245.730 96.400,245.400 96.400 C 245.070 96.400,244.800 96.220,244.800 96.000 C 244.800 94.778,243.851 94.063,242.558 94.310 C 241.990 94.419,240.559 93.942,238.912 93.096 C 235.477 91.333,232.260 90.222,228.200 89.398 C 224.233 88.593,208.269 87.794,208.070 88.390 C 207.894 88.918,206.800 88.927,206.800 88.400 C 206.800 88.180,206.260 88.000,205.600 88.000 C 204.940 88.000,204.400 88.180,204.400 88.400 M255.060 248.400 C 255.213 249.164,255.137 249.600,254.850 249.600 C 254.521 249.600,254.400 256.340,254.400 274.567 C 254.400 294.166,254.293 299.577,253.900 299.735 C 253.500 299.896,253.500 299.943,253.900 299.968 C 254.497 300.006,254.596 302.800,254.000 302.800 C 253.413 302.800,253.511 304.795,254.100 304.827 C 254.375 304.842,254.195 305.049,253.700 305.288 C 252.730 305.756,252.485 307.006,253.300 307.335 C 253.700 307.496,253.700 307.543,253.300 307.568 C 253.025 307.586,252.800 308.050,252.800 308.600 C 252.800 309.204,252.572 309.600,252.224 309.600 C 251.907 309.600,251.519 309.808,251.362 310.062 C 251.185 310.348,251.252 310.415,251.538 310.238 C 251.848 310.047,252.000 310.344,252.000 311.139 C 252.000 312.069,251.849 312.287,251.300 312.149 C 250.838 312.032,250.442 312.318,250.137 312.987 C 249.883 313.545,249.838 313.900,250.037 313.777 C 250.237 313.654,250.400 313.923,250.400 314.376 C 250.400 314.829,250.241 315.200,250.047 315.200 C 249.852 315.200,249.599 315.560,249.484 316.000 C 249.356 316.489,248.938 316.800,248.409 316.800 C 247.276 316.800,246.335 317.766,246.655 318.600 C 246.821 319.031,246.716 319.233,246.354 319.183 C 245.086 319.006,244.749 319.209,245.000 320.000 C 245.180 320.568,245.072 320.800,244.627 320.800 C 244.282 320.800,244.000 320.980,244.000 321.200 C 244.000 321.420,243.447 321.600,242.771 321.600 C 241.556 321.600,240.208 322.474,240.686 322.952 C 240.822 323.089,239.947 323.200,238.742 323.200 C 237.104 323.200,236.334 323.402,235.692 324.000 C 234.733 324.894,232.975 325.068,232.665 324.300 C 232.504 323.900,232.457 323.900,232.432 324.300 C 232.413 324.599,231.836 324.800,231.000 324.800 C 230.230 324.800,229.600 324.980,229.600 325.200 C 229.600 325.420,229.150 325.600,228.600 325.600 C 228.050 325.600,227.600 325.420,227.600 325.200 C 227.600 324.974,226.467 324.800,225.000 324.800 C 223.570 324.800,222.400 324.663,222.400 324.496 C 222.400 324.329,222.021 323.956,221.558 323.667 C 221.095 323.378,220.836 323.334,220.982 323.570 C 221.128 323.807,221.057 324.000,220.824 324.000 C 220.591 324.000,220.400 323.820,220.400 323.600 C 220.400 323.380,220.040 323.200,219.600 323.200 C 219.160 323.200,218.800 323.399,218.800 323.642 C 218.800 323.886,218.276 323.523,217.635 322.837 C 216.837 321.983,216.396 321.749,216.235 322.095 C 216.048 322.498,215.953 322.499,215.767 322.100 C 215.638 321.825,214.918 321.600,214.167 321.600 C 212.915 321.600,212.800 321.499,212.800 320.400 C 212.800 319.740,212.609 319.200,212.376 319.200 C 212.143 319.200,212.064 319.380,212.200 319.600 C 212.581 320.216,211.483 320.074,210.489 319.377 C 209.983 319.023,209.600 318.334,209.600 317.777 C 209.600 317.240,209.465 316.821,209.300 316.847 C 208.491 316.975,208.112 316.674,207.194 315.175 C 206.299 313.712,206.080 313.574,205.000 313.798 C 196.631 315.531,189.178 316.144,180.700 315.796 L 174.000 315.521 174.000 318.134 C 174.000 320.395,174.108 320.780,174.800 321.000 C 175.240 321.140,175.600 321.602,175.600 322.027 C 175.600 322.452,175.780 322.800,176.000 322.800 C 176.220 322.800,176.400 323.070,176.400 323.400 C 176.400 323.730,176.220 324.000,176.000 324.000 C 175.398 324.000,175.520 325.062,176.200 325.743 C 176.530 326.073,176.800 326.500,176.800 326.692 C 176.800 327.294,177.786 329.194,178.100 329.197 C 178.265 329.199,178.400 329.449,178.400 329.753 C 178.400 330.058,178.760 330.401,179.200 330.516 C 179.640 330.631,180.000 330.933,180.000 331.186 C 180.000 331.440,179.802 331.525,179.560 331.375 C 179.284 331.204,179.307 331.453,179.623 332.043 C 180.164 333.054,181.199 334.200,181.571 334.200 C 181.697 334.200,181.757 334.515,181.705 334.900 C 181.652 335.285,181.787 335.600,182.005 335.600 C 183.628 335.600,184.441 336.296,184.154 337.441 C 183.952 338.247,184.071 338.494,184.750 338.671 C 185.218 338.793,185.600 339.130,185.600 339.420 C 185.600 339.709,185.960 340.060,186.400 340.200 C 186.840 340.340,187.200 340.635,187.200 340.856 C 187.200 341.319,188.203 342.400,188.633 342.400 C 188.793 342.400,188.597 342.039,188.198 341.598 C 187.335 340.644,187.629 340.086,188.524 340.981 C 188.864 341.321,189.324 341.600,189.544 341.600 C 189.765 341.600,190.060 341.960,190.200 342.400 C 190.340 342.840,190.725 343.200,191.056 343.200 C 191.945 343.200,192.833 344.248,192.556 344.970 C 192.383 345.420,192.555 345.600,193.157 345.600 C 193.621 345.600,194.003 345.825,194.006 346.100 C 194.010 346.439,194.132 346.411,194.384 346.013 C 194.696 345.519,194.877 345.566,195.524 346.313 C 195.948 346.801,196.458 347.200,196.659 347.200 C 196.859 347.200,197.283 347.560,197.600 348.000 C 198.022 348.586,198.635 348.800,199.888 348.800 C 200.830 348.800,201.600 348.980,201.600 349.200 C 201.600 349.420,202.005 349.613,202.500 349.628 C 203.359 349.655,203.363 349.672,202.600 350.000 C 202.024 350.247,202.445 350.352,204.100 350.372 C 205.365 350.387,206.400 350.580,206.400 350.800 C 206.400 351.020,206.835 351.200,207.367 351.200 C 207.898 351.200,208.409 351.425,208.502 351.700 C 208.633 352.090,208.816 352.079,209.335 351.651 C 209.919 351.169,210.000 351.206,210.000 351.951 C 210.000 352.533,210.251 352.800,210.800 352.800 C 211.240 352.800,211.600 352.620,211.600 352.400 C 211.600 352.180,211.960 352.000,212.400 352.000 C 212.840 352.000,213.200 352.195,213.200 352.434 C 213.200 352.700,213.861 352.817,214.900 352.734 C 216.102 352.639,216.571 352.747,216.500 353.100 C 216.356 353.822,219.116 353.741,219.856 353.001 C 220.305 352.552,220.650 352.505,221.228 352.815 C 222.372 353.427,222.167 353.929,220.700 354.111 C 219.985 354.199,223.000 354.283,227.400 354.296 C 231.800 354.309,234.950 354.194,234.400 354.039 L 233.400 353.758 234.552 352.999 C 235.685 352.252,235.714 352.253,236.352 353.020 C 237.112 353.934,238.724 353.852,239.460 352.861 C 239.829 352.365,240.132 352.300,240.676 352.600 C 241.083 352.825,242.540 352.899,244.000 352.769 C 245.430 352.642,246.375 352.507,246.100 352.469 C 245.386 352.371,245.479 351.200,246.200 351.200 C 246.530 351.200,246.804 351.515,246.809 351.900 C 246.816 352.476,246.948 352.430,247.554 351.642 C 247.965 351.108,248.491 350.809,248.745 350.966 C 248.995 351.121,249.200 351.057,249.200 350.824 C 249.200 350.587,250.007 350.400,251.024 350.400 C 252.291 350.400,252.761 350.260,252.564 349.942 C 252.370 349.628,252.602 349.545,253.304 349.680 C 254.048 349.822,254.271 349.728,254.121 349.338 C 253.988 348.992,254.216 348.800,254.757 348.800 C 255.221 348.800,255.600 348.620,255.600 348.400 C 255.600 348.180,256.050 348.000,256.600 348.000 C 257.150 348.000,257.600 347.853,257.600 347.674 C 257.600 347.230,260.551 345.600,261.354 345.600 C 261.710 345.600,262.003 345.375,262.006 345.100 C 262.010 344.743,262.113 344.760,262.366 345.159 C 262.652 345.610,262.823 345.552,263.256 344.859 C 263.551 344.386,264.092 344.000,264.459 344.000 C 264.928 344.000,265.063 343.764,264.916 343.200 C 264.774 342.657,264.904 342.400,265.320 342.400 C 265.657 342.400,266.009 342.265,266.101 342.100 C 266.306 341.734,266.096 342.544,265.738 343.500 C 265.593 343.888,265.928 343.690,266.489 343.056 C 267.094 342.372,267.423 341.610,267.306 341.163 C 267.168 340.634,267.470 340.208,268.333 339.712 C 269.006 339.326,269.633 338.718,269.727 338.359 C 269.824 337.987,270.502 337.595,271.310 337.443 C 272.586 337.204,273.542 336.209,273.009 335.676 C 272.894 335.561,272.800 335.677,272.800 335.933 C 272.800 336.190,272.620 336.400,272.400 336.400 C 271.775 336.400,271.927 335.830,272.800 334.892 C 273.240 334.420,273.600 333.846,273.600 333.617 C 273.600 333.388,273.960 333.200,274.400 333.200 C 274.992 333.200,275.200 332.933,275.200 332.173 C 275.200 331.294,275.330 331.185,276.100 331.418 C 276.834 331.640,276.908 331.593,276.500 331.165 C 275.903 330.538,275.835 329.200,276.400 329.200 C 276.620 329.200,276.800 328.930,276.800 328.600 C 276.800 328.270,276.980 328.000,277.200 328.000 C 277.420 328.000,277.606 327.685,277.613 327.300 C 277.630 326.326,278.559 325.200,279.344 325.200 C 279.827 325.200,280.000 324.831,280.000 323.800 C 280.000 323.030,280.180 322.400,280.400 322.400 C 280.620 322.400,280.800 322.040,280.800 321.600 C 280.800 321.160,280.980 320.800,281.200 320.800 C 281.777 320.800,281.693 319.310,281.100 319.033 C 280.700 318.847,280.700 318.753,281.100 318.567 C 281.375 318.438,281.600 317.988,281.600 317.567 C 281.600 317.145,281.780 316.800,282.000 316.800 C 282.220 316.800,282.400 316.275,282.400 315.633 C 282.400 314.992,282.625 314.362,282.900 314.233 C 283.300 314.047,283.300 313.953,282.900 313.767 C 282.307 313.490,282.223 312.000,282.800 312.000 C 283.020 312.000,283.200 311.280,283.200 310.400 C 283.200 309.493,283.393 308.800,283.645 308.800 C 283.936 308.800,283.998 308.317,283.825 307.395 C 283.625 306.324,283.709 305.933,284.181 305.752 C 284.887 305.481,285.036 303.345,284.365 303.122 C 284.126 303.042,284.001 302.442,284.088 301.788 L 284.246 300.600 284.713 301.700 C 284.970 302.305,285.246 302.800,285.327 302.800 C 285.907 302.800,285.534 249.072,284.948 248.177 L 284.308 247.200 269.564 247.200 L 254.820 247.200 255.060 248.400 " stroke="none" fill="#e30605" fill-rule="evenodd"></path><path id="path1" d="M115.254 67.453 C 115.201 80.375,115.220 80.712,115.997 80.915 C 116.435 81.030,119.533 81.132,122.881 81.143 C 128.685 81.162,128.983 81.202,129.278 82.000 C 129.946 83.805,129.683 262.522,129.012 262.897 C 128.200 263.352,128.174 265.262,128.983 264.951 C 129.605 264.713,129.829 265.345,130.138 268.200 C 130.233 269.080,130.576 270.880,130.900 272.200 C 131.224 273.520,131.469 275.320,131.445 276.200 C 131.420 277.080,131.600 278.013,131.845 278.273 C 132.089 278.533,132.407 279.485,132.552 280.388 C 132.696 281.291,133.171 282.695,133.607 283.509 C 134.043 284.322,134.400 285.142,134.400 285.329 C 134.400 285.517,134.940 286.837,135.600 288.263 C 136.260 289.689,136.800 290.995,136.800 291.166 C 136.800 291.336,137.160 291.802,137.600 292.200 C 138.040 292.598,138.400 293.166,138.400 293.462 C 138.400 293.758,138.760 294.360,139.200 294.800 C 139.640 295.240,140.000 295.870,140.000 296.200 C 140.000 296.530,140.159 296.800,140.353 296.800 C 140.925 296.800,141.215 298.543,140.697 298.864 C 140.436 299.025,140.363 299.296,140.533 299.467 C 140.704 299.637,140.992 299.536,141.174 299.242 C 141.628 298.508,142.148 298.860,146.007 302.504 C 147.815 304.211,149.723 305.716,150.247 305.848 C 150.771 305.979,151.200 306.214,151.200 306.369 C 151.200 306.785,154.361 308.400,155.176 308.400 C 155.561 308.400,156.202 308.760,156.600 309.200 C 156.998 309.640,157.651 310.000,158.050 310.000 C 158.449 310.000,159.383 310.341,160.126 310.759 C 160.869 311.176,162.810 311.830,164.438 312.213 C 166.067 312.596,168.390 313.168,169.600 313.484 C 175.197 314.946,196.247 314.606,202.400 312.954 C 203.610 312.629,205.300 312.285,206.155 312.190 C 207.010 312.095,208.621 311.563,209.734 311.008 C 210.847 310.454,211.956 310.000,212.200 310.000 C 212.650 310.000,216.506 308.257,217.600 307.560 C 217.930 307.349,218.515 307.071,218.900 306.942 C 219.285 306.812,219.600 306.539,219.600 306.334 C 219.600 306.129,220.103 305.745,220.718 305.481 C 223.457 304.303,229.935 297.480,232.188 293.400 C 232.795 292.300,233.631 290.922,234.046 290.338 C 234.461 289.754,234.800 288.973,234.800 288.601 C 234.800 288.230,235.143 287.491,235.561 286.958 C 235.980 286.426,236.533 285.048,236.791 283.895 C 237.369 281.313,238.004 279.600,238.384 279.600 C 238.541 279.600,238.702 278.751,238.742 277.713 C 238.781 276.676,238.990 275.650,239.207 275.433 C 239.423 275.217,239.600 274.566,239.600 273.987 C 239.600 273.407,239.711 272.822,239.848 272.686 C 239.984 272.549,240.132 271.685,240.176 270.766 C 240.229 269.688,240.513 268.906,240.978 268.567 C 241.642 268.081,241.647 267.990,241.049 267.392 C 240.228 266.571,240.196 264.453,241.000 264.145 C 241.330 264.018,241.603 263.619,241.606 263.257 C 241.611 262.687,241.663 262.679,242.000 263.200 C 242.268 263.614,242.375 262.870,242.347 260.800 C 242.318 258.688,242.221 258.155,242.022 259.000 C 241.308 262.022,241.164 251.103,241.084 187.800 L 241.000 120.600 238.958 119.600 C 235.352 117.834,234.669 117.600,233.120 117.600 C 232.284 117.600,231.600 117.411,231.600 117.179 C 231.600 116.154,218.547 117.132,217.910 118.205 C 217.751 118.473,217.187 118.610,216.657 118.509 C 216.127 118.408,215.572 118.522,215.423 118.762 C 215.275 119.003,214.816 119.200,214.403 119.200 C 213.991 119.200,213.540 119.560,213.400 120.000 C 213.260 120.440,212.888 120.800,212.573 120.800 C 212.078 120.800,212.000 130.324,212.000 190.920 C 212.000 246.481,211.896 261.145,211.500 261.544 C 211.099 261.948,211.140 261.994,211.705 261.779 C 213.297 261.173,214.214 263.706,213.133 265.726 C 212.876 266.206,212.625 267.049,212.576 267.600 C 212.288 270.835,211.085 275.233,210.245 276.126 C 209.999 276.387,209.439 277.294,208.999 278.143 C 207.930 280.208,202.838 285.265,201.150 285.939 C 195.072 288.367,194.362 288.516,188.000 288.709 C 181.764 288.899,174.166 287.926,173.034 286.794 C 172.817 286.577,172.379 286.400,172.059 286.400 C 170.882 286.400,164.800 281.281,164.800 280.290 C 164.800 280.045,164.383 279.384,163.873 278.822 C 163.363 278.260,162.625 276.990,162.232 276.000 C 161.839 275.010,161.356 273.887,161.159 273.505 C 160.962 273.123,160.800 272.279,160.800 271.629 C 160.800 270.979,160.639 270.348,160.442 270.226 C 160.245 270.105,159.990 269.239,159.875 268.303 C 159.596 266.032,159.552 82.001,159.830 81.551 C 159.950 81.358,162.568 81.200,165.650 81.200 C 173.582 81.200,172.800 82.592,172.800 68.475 L 172.800 56.578 171.559 55.489 L 170.318 54.400 145.002 54.400 C 124.719 54.400,119.646 54.502,119.488 54.915 C 119.379 55.199,118.610 55.476,117.779 55.532 C 116.949 55.588,116.131 55.719,115.963 55.823 C 115.795 55.927,115.579 55.604,115.483 55.106 C 115.387 54.608,115.284 60.164,115.254 67.453 M200.458 55.300 C 200.111 55.955,200.011 59.581,200.091 68.600 L 200.200 81.000 206.391 81.111 C 213.525 81.239,213.354 81.152,213.243 84.554 L 213.160 87.140 219.080 87.383 C 222.336 87.516,226.125 87.665,227.500 87.713 C 229.187 87.772,230.000 87.963,230.000 88.300 C 230.000 88.587,230.502 88.800,231.176 88.800 C 231.823 88.800,232.464 88.980,232.600 89.200 C 232.736 89.420,233.276 89.600,233.800 89.600 C 234.324 89.600,234.864 89.780,235.000 90.000 C 235.136 90.220,235.597 90.400,236.024 90.400 C 236.451 90.400,236.800 90.603,236.800 90.850 C 236.800 91.135,237.233 91.213,237.982 91.064 C 238.872 90.886,239.114 90.960,238.958 91.365 C 238.822 91.719,239.144 91.960,239.906 92.072 L 241.060 92.241 241.149 88.805 C 241.197 86.915,241.070 84.926,240.867 84.384 C 240.607 83.694,240.664 83.072,241.058 82.300 L 241.621 81.200 247.637 81.200 C 251.258 81.200,253.981 81.024,254.477 80.759 C 255.110 80.420,255.381 80.443,255.645 80.859 C 255.840 81.166,255.990 75.906,255.994 68.676 C 255.998 59.938,255.869 56.034,255.582 56.211 C 255.353 56.353,254.921 56.267,254.623 56.019 C 254.325 55.772,253.659 55.488,253.142 55.389 C 252.625 55.289,252.142 55.026,252.068 54.804 C 251.979 54.538,243.245 54.400,226.434 54.400 L 200.935 54.400 200.458 55.300 M212.120 85.200 C 212.120 86.410,212.195 86.905,212.287 86.300 C 212.378 85.695,212.378 84.705,212.287 84.100 C 212.195 83.495,212.120 83.990,212.120 85.200 M213.200 122.800 C 213.200 123.434,213.020 124.064,212.800 124.200 C 212.558 124.350,212.400 123.796,212.400 122.800 C 212.400 121.804,212.558 121.250,212.800 121.400 C 213.020 121.536,213.200 122.166,213.200 122.800 " stroke="none" fill="#0434cb" fill-rule="evenodd"></path><path id="path2" d="M210.600 87.600 C 210.459 87.828,210.804 88.000,211.400 88.000 C 211.996 88.000,212.341 87.828,212.200 87.600 C 212.064 87.380,211.704 87.200,211.400 87.200 C 211.096 87.200,210.736 87.380,210.600 87.600 M206.800 88.400 C 206.800 88.620,207.070 88.800,207.400 88.800 C 207.730 88.800,208.000 88.620,208.000 88.400 C 208.000 88.180,207.730 88.000,207.400 88.000 C 207.070 88.000,206.800 88.180,206.800 88.400 M201.200 89.200 C 201.200 89.420,201.661 89.600,202.224 89.600 C 202.804 89.600,203.140 89.427,203.000 89.200 C 202.864 88.980,202.403 88.800,201.976 88.800 C 201.549 88.800,201.200 88.980,201.200 89.200 M195.600 91.600 C 195.600 91.820,195.870 92.000,196.200 92.000 C 196.530 92.000,196.800 91.820,196.800 91.600 C 196.800 91.380,196.530 91.200,196.200 91.200 C 195.870 91.200,195.600 91.380,195.600 91.600 M192.509 92.728 C 191.168 93.426,190.755 94.400,191.800 94.400 C 192.130 94.400,192.400 94.220,192.400 94.000 C 192.400 93.780,192.683 93.600,193.029 93.600 C 193.635 93.600,194.800 92.698,194.800 92.229 C 194.800 91.827,193.838 92.036,192.509 92.728 M244.687 95.059 C 244.361 95.586,245.008 96.531,245.568 96.344 C 245.897 96.234,245.871 95.976,245.475 95.435 C 245.171 95.019,244.817 94.850,244.687 95.059 M256.600 95.031 C 256.184 95.206,256.165 109.498,256.580 109.913 C 256.701 110.034,256.800 107.063,256.800 103.309 C 256.800 97.613,256.899 96.448,257.400 96.255 C 257.730 96.129,258.000 95.749,258.000 95.413 C 258.000 94.825,257.448 94.675,256.600 95.031 M186.984 96.827 C 186.839 97.061,186.816 97.349,186.933 97.467 C 187.220 97.753,188.000 97.248,188.000 96.776 C 188.000 96.265,187.309 96.299,186.984 96.827 M247.200 97.595 C 247.200 98.204,248.515 99.600,249.089 99.600 C 249.881 99.600,249.697 99.028,248.597 98.072 C 247.486 97.106,247.200 97.008,247.200 97.595 M253.028 104.755 C 252.733 105.232,253.861 106.133,254.365 105.822 C 254.585 105.686,254.664 105.310,254.540 104.987 C 254.291 104.339,253.372 104.198,253.028 104.755 M178.324 107.358 C 177.958 107.627,177.788 108.057,177.947 108.315 C 178.151 108.645,178.433 108.554,178.903 108.005 C 179.683 107.094,179.289 106.653,178.324 107.358 M254.800 107.600 C 254.800 108.040,254.980 108.400,255.200 108.400 C 255.420 108.400,255.600 108.040,255.600 107.600 C 255.600 107.160,255.420 106.800,255.200 106.800 C 254.980 106.800,254.800 107.160,254.800 107.600 M176.400 110.920 C 176.400 111.294,176.220 111.600,176.000 111.600 C 175.780 111.600,175.600 111.960,175.600 112.400 C 175.600 113.521,176.109 113.390,176.700 112.117 C 177.034 111.399,177.067 110.907,176.800 110.640 C 176.533 110.373,176.400 110.467,176.400 110.920 M174.800 115.200 C 174.800 115.640,174.980 116.000,175.200 116.000 C 175.420 116.000,175.600 115.640,175.600 115.200 C 175.600 114.760,175.420 114.400,175.200 114.400 C 174.980 114.400,174.800 114.760,174.800 115.200 M171.600 127.200 C 171.600 127.860,171.780 128.400,172.000 128.400 C 172.220 128.400,172.400 127.860,172.400 127.200 C 172.400 126.540,172.220 126.000,172.000 126.000 C 171.780 126.000,171.600 126.540,171.600 127.200 M247.600 127.200 C 247.600 127.420,247.870 127.600,248.200 127.600 C 248.530 127.600,248.800 127.420,248.800 127.200 C 248.800 126.980,248.530 126.800,248.200 126.800 C 247.870 126.800,247.600 126.980,247.600 127.200 M248.800 128.567 C 248.800 128.915,249.085 129.200,249.433 129.200 C 250.140 129.200,250.017 128.339,249.275 128.092 C 249.014 128.005,248.800 128.218,248.800 128.567 M171.012 130.517 C 170.841 130.912,170.813 131.347,170.951 131.484 C 171.357 131.890,171.684 131.320,171.497 130.531 C 171.332 129.833,171.310 129.832,171.012 130.517 M251.200 133.800 C 251.200 134.130,251.380 134.400,251.600 134.400 C 251.820 134.400,252.000 134.850,252.000 135.400 C 252.000 135.950,252.180 136.400,252.400 136.400 C 253.007 136.400,252.878 134.421,252.229 133.771 C 251.497 133.040,251.200 133.048,251.200 133.800 M170.471 135.068 C 170.542 135.434,170.825 135.809,171.100 135.900 C 171.835 136.145,171.710 134.928,170.971 134.644 C 170.532 134.476,170.381 134.604,170.471 135.068 M203.360 137.360 C 203.214 137.742,203.292 138.252,203.534 138.494 C 203.854 138.814,204.046 138.745,204.240 138.240 C 204.386 137.858,204.308 137.348,204.066 137.106 C 203.746 136.786,203.554 136.855,203.360 137.360 M252.800 138.976 C 252.800 139.293,252.980 139.664,253.200 139.800 C 253.420 139.936,253.600 139.677,253.600 139.224 C 253.600 138.771,253.420 138.400,253.200 138.400 C 252.980 138.400,252.800 138.659,252.800 138.976 M253.600 142.200 C 253.600 142.750,253.780 143.200,254.000 143.200 C 254.220 143.200,254.400 142.750,254.400 142.200 C 254.400 141.650,254.220 141.200,254.000 141.200 C 253.780 141.200,253.600 141.650,253.600 142.200 M170.287 142.246 C 169.862 142.671,169.931 257.200,170.357 257.200 C 171.151 257.200,171.199 253.835,171.172 199.667 C 171.146 147.257,171.057 141.477,170.287 142.246 M202.750 198.100 C 202.722 228.295,202.587 259.885,202.450 268.300 C 202.312 276.716,202.232 283.601,202.271 283.600 C 202.311 283.600,202.627 283.316,202.975 282.968 C 203.730 282.212,203.948 143.200,203.193 143.200 C 202.938 143.200,202.782 162.411,202.750 198.100 M254.400 248.800 C 254.400 249.240,254.580 249.600,254.800 249.600 C 255.020 249.600,255.200 249.240,255.200 248.800 C 255.200 248.360,255.020 248.000,254.800 248.000 C 254.580 248.000,254.400 248.360,254.400 248.800 M160.406 263.500 C 160.403 263.995,160.580 264.400,160.800 264.400 C 161.301 264.400,161.301 263.976,160.800 263.200 C 160.486 262.715,160.411 262.772,160.406 263.500 M253.867 300.267 C 253.445 300.688,253.556 302.800,254.000 302.800 C 254.220 302.800,254.400 302.170,254.400 301.400 C 254.400 299.961,254.327 299.806,253.867 300.267 M284.000 301.920 C 284.000 302.816,284.188 303.200,284.627 303.200 C 285.091 303.200,285.183 302.966,284.982 302.300 C 284.514 300.752,284.000 300.553,284.000 301.920 M252.800 304.600 C 252.800 305.677,253.060 305.807,254.000 305.200 C 254.400 304.942,254.433 304.810,254.100 304.806 C 253.825 304.803,253.600 304.530,253.600 304.200 C 253.600 303.870,253.420 303.600,253.200 303.600 C 252.980 303.600,252.800 304.050,252.800 304.600 M283.798 306.004 C 283.448 306.569,283.978 308.061,284.429 307.782 C 284.915 307.482,284.911 305.600,284.424 305.600 C 284.217 305.600,283.935 305.782,283.798 306.004 M252.000 309.000 C 252.000 309.330,252.180 309.600,252.400 309.600 C 252.620 309.600,252.800 309.330,252.800 309.000 C 252.800 308.670,252.620 308.400,252.400 308.400 C 252.180 308.400,252.000 308.670,252.000 309.000 M283.200 309.600 C 283.200 310.040,283.380 310.400,283.600 310.400 C 283.820 310.400,284.000 310.040,284.000 309.600 C 284.000 309.160,283.820 308.800,283.600 308.800 C 283.380 308.800,283.200 309.160,283.200 309.600 M251.419 310.500 C 251.252 310.885,251.252 311.515,251.419 311.900 C 251.709 312.567,251.732 312.567,251.891 311.900 C 252.174 310.719,251.803 309.619,251.419 310.500 M282.400 312.800 C 282.400 313.240,282.580 313.600,282.800 313.600 C 283.020 313.600,283.200 313.240,283.200 312.800 C 283.200 312.360,283.020 312.000,282.800 312.000 C 282.580 312.000,282.400 312.360,282.400 312.800 M206.400 313.806 C 206.400 314.967,208.965 317.504,209.411 316.783 C 209.541 316.572,209.457 316.400,209.224 316.400 C 208.991 316.400,208.800 316.161,208.800 315.870 C 208.800 315.578,208.383 314.948,207.874 314.470 C 206.985 313.635,206.400 313.371,206.400 313.806 M249.100 314.973 C 247.833 316.568,247.771 316.800,248.613 316.800 C 248.949 316.800,249.341 316.485,249.483 316.100 C 249.625 315.715,249.907 315.288,250.110 315.152 C 250.313 315.016,250.416 314.608,250.339 314.246 C 250.233 313.745,249.938 313.918,249.100 314.973 M173.200 316.600 C 173.200 317.150,173.380 317.600,173.600 317.600 C 173.820 317.600,174.000 317.150,174.000 316.600 C 174.000 316.050,173.820 315.600,173.600 315.600 C 173.380 315.600,173.200 316.050,173.200 316.600 M209.600 318.191 C 209.600 318.874,211.364 320.145,212.012 319.929 C 212.552 319.749,210.776 317.600,210.087 317.600 C 209.819 317.600,209.600 317.866,209.600 318.191 M212.800 320.800 C 212.800 321.333,213.067 321.600,213.600 321.600 C 214.507 321.600,214.625 321.185,213.920 320.480 C 213.215 319.775,212.800 319.893,212.800 320.800 M243.500 320.557 C 242.641 321.209,242.604 321.600,243.400 321.600 C 243.730 321.600,244.000 321.420,244.000 321.200 C 244.000 320.980,244.270 320.800,244.600 320.800 C 244.930 320.800,245.200 320.620,245.200 320.400 C 245.200 319.843,244.335 319.923,243.500 320.557 M175.003 321.900 C 175.161 322.285,175.381 322.915,175.492 323.300 C 175.738 324.156,176.400 324.229,176.400 323.400 C 176.400 323.070,176.220 322.800,176.000 322.800 C 175.780 322.800,175.600 322.440,175.600 322.000 C 175.600 321.560,175.401 321.200,175.157 321.200 C 174.892 321.200,174.830 321.481,175.003 321.900 M222.400 324.400 C 222.400 324.620,222.850 324.800,223.400 324.800 C 223.950 324.800,224.400 324.620,224.400 324.400 C 224.400 324.180,223.950 324.000,223.400 324.000 C 222.850 324.000,222.400 324.180,222.400 324.400 M232.800 324.400 C 232.800 324.620,233.340 324.800,234.000 324.800 C 234.660 324.800,235.200 324.620,235.200 324.400 C 235.200 324.180,234.660 324.000,234.000 324.000 C 233.340 324.000,232.800 324.180,232.800 324.400 M227.600 325.200 C 227.600 325.420,228.050 325.600,228.600 325.600 C 229.150 325.600,229.600 325.420,229.600 325.200 C 229.600 324.980,229.150 324.800,228.600 324.800 C 228.050 324.800,227.600 324.980,227.600 325.200 M278.096 325.995 C 277.823 326.432,277.600 327.062,277.600 327.395 C 277.600 327.728,277.420 328.000,277.200 328.000 C 276.980 328.000,276.800 328.270,276.800 328.600 C 276.800 328.930,276.620 329.200,276.400 329.200 C 276.180 329.200,276.000 329.560,276.000 330.000 C 276.000 330.440,276.103 330.800,276.229 330.800 C 276.616 330.800,277.600 329.681,277.600 329.241 C 277.600 329.012,277.960 328.183,278.400 327.400 C 279.548 325.357,279.277 324.104,278.096 325.995 M178.619 330.904 C 178.869 331.556,180.094 331.682,179.878 331.033 C 179.799 330.795,179.434 330.542,179.068 330.471 C 178.633 330.387,178.478 330.537,178.619 330.904 M275.200 331.800 C 275.200 332.130,275.380 332.400,275.600 332.400 C 275.820 332.400,276.000 332.130,276.000 331.800 C 276.000 331.470,275.820 331.200,275.600 331.200 C 275.380 331.200,275.200 331.470,275.200 331.800 M273.600 333.800 C 273.600 334.130,273.463 334.400,273.296 334.400 C 272.887 334.400,271.892 336.025,272.146 336.279 C 272.353 336.486,273.827 335.149,274.770 333.900 C 275.232 333.287,275.192 333.200,274.449 333.200 C 273.961 333.200,273.600 333.455,273.600 333.800 M181.039 333.938 C 180.900 334.161,180.982 334.465,181.220 334.612 C 181.835 334.993,182.232 334.472,181.718 333.958 C 181.431 333.671,181.207 333.664,181.039 333.938 M182.613 335.979 C 182.484 336.188,182.731 336.549,183.163 336.780 C 184.135 337.301,184.400 337.308,184.400 336.814 C 184.400 336.230,182.893 335.526,182.613 335.979 M269.741 338.305 C 269.639 338.693,269.026 339.315,268.378 339.687 C 267.240 340.340,266.749 341.600,267.633 341.600 C 268.120 341.600,271.583 338.365,271.593 337.900 C 271.607 337.265,269.916 337.635,269.741 338.305 M187.600 340.629 C 187.600 341.100,189.386 343.200,189.787 343.200 C 190.027 343.200,190.483 343.560,190.800 344.000 C 191.318 344.718,192.800 345.142,192.800 344.571 C 192.800 344.112,191.640 343.200,191.056 343.200 C 190.725 343.200,190.340 342.840,190.200 342.400 C 190.060 341.960,189.688 341.600,189.373 341.600 C 189.058 341.600,188.800 341.439,188.800 341.243 C 188.800 341.046,188.530 340.782,188.200 340.655 C 187.870 340.529,187.600 340.517,187.600 340.629 M266.000 341.933 C 266.000 342.190,265.730 342.400,265.400 342.400 C 265.070 342.400,264.800 342.670,264.800 343.000 C 264.800 343.330,264.974 343.600,265.186 343.600 C 265.671 343.600,266.546 342.012,266.232 341.699 C 266.105 341.571,266.000 341.677,266.000 341.933 M194.400 345.986 C 194.400 346.198,194.760 346.565,195.200 346.800 C 196.133 347.300,196.246 346.989,195.429 346.171 C 194.764 345.507,194.400 345.441,194.400 345.986 M259.200 346.450 C 258.430 346.916,257.740 347.455,257.667 347.648 C 257.593 347.842,257.098 348.000,256.567 348.000 C 256.035 348.000,255.600 348.180,255.600 348.400 C 255.600 349.099,257.416 348.831,258.308 348.000 C 258.780 347.560,259.624 347.200,260.183 347.200 C 260.933 347.200,261.200 346.990,261.200 346.400 C 261.200 345.393,260.936 345.400,259.200 346.450 M200.400 349.200 C 200.400 349.420,200.670 349.600,201.000 349.600 C 201.330 349.600,201.600 349.420,201.600 349.200 C 201.600 348.980,201.330 348.800,201.000 348.800 C 200.670 348.800,200.400 348.980,200.400 349.200 M254.000 349.172 C 254.000 349.377,253.595 349.615,253.100 349.702 C 252.248 349.851,252.241 349.877,252.976 350.202 C 253.487 350.427,253.806 350.383,253.909 350.072 C 253.996 349.812,254.322 349.600,254.633 349.600 C 254.945 349.600,255.200 349.420,255.200 349.200 C 255.200 348.980,254.930 348.800,254.600 348.800 C 254.270 348.800,254.000 348.967,254.000 349.172 M205.200 350.800 C 205.200 351.020,205.470 351.200,205.800 351.200 C 206.130 351.200,206.400 351.020,206.400 350.800 C 206.400 350.580,206.130 350.400,205.800 350.400 C 205.470 350.400,205.200 350.580,205.200 350.800 M249.200 350.756 C 249.200 350.951,248.904 351.086,248.543 351.056 C 248.182 351.025,247.807 351.225,247.710 351.500 C 247.469 352.183,248.421 352.128,249.939 351.371 C 251.461 350.611,251.518 350.400,250.200 350.400 C 249.650 350.400,249.200 350.560,249.200 350.756 M206.800 351.600 C 206.800 351.820,207.160 352.000,207.600 352.000 C 208.040 352.000,208.400 351.820,208.400 351.600 C 208.400 351.380,208.040 351.200,207.600 351.200 C 207.160 351.200,206.800 351.380,206.800 351.600 M209.378 351.635 C 209.231 351.874,209.310 352.270,209.555 352.515 C 209.882 352.842,210.000 352.726,210.000 352.080 C 210.000 351.114,209.792 350.965,209.378 351.635 M245.600 351.800 C 245.600 352.130,245.870 352.400,246.200 352.400 C 246.530 352.400,246.800 352.130,246.800 351.800 C 246.800 351.470,246.530 351.200,246.200 351.200 C 245.870 351.200,245.600 351.470,245.600 351.800 M211.600 352.400 C 211.600 352.620,211.960 352.800,212.400 352.800 C 212.840 352.800,213.200 352.620,213.200 352.400 C 213.200 352.180,212.840 352.000,212.400 352.000 C 211.960 352.000,211.600 352.180,211.600 352.400 M215.000 352.785 C 214.266 353.087,214.257 353.138,214.900 353.400 C 215.771 353.755,216.938 353.346,216.602 352.803 C 216.314 352.337,216.096 352.335,215.000 352.785 M219.828 353.029 C 218.947 353.910,219.018 354.000,220.600 354.000 C 222.141 354.000,222.428 353.457,221.228 352.815 C 220.645 352.503,220.302 352.555,219.828 353.029 M234.344 353.187 C 233.451 353.931,233.443 353.976,234.200 354.017 C 234.640 354.041,235.314 354.121,235.698 354.195 C 236.619 354.371,236.992 353.714,236.385 352.982 C 235.751 352.218,235.473 352.246,234.344 353.187 M239.480 352.653 C 238.934 353.200,239.211 353.654,240.016 353.528 C 240.465 353.458,240.834 353.220,240.837 353.000 C 240.843 352.513,239.869 352.264,239.480 352.653 " stroke="none" fill="#f49c94" fill-rule="evenodd"></path><path id="path3" d="M114.679 55.600 C 114.093 58.154,114.518 82.284,115.159 82.881 C 115.501 83.199,115.615 83.217,115.452 82.928 C 115.025 82.167,116.074 81.813,116.605 82.539 C 117.012 83.096,117.918 83.200,122.344 83.200 L 127.600 83.200 127.699 170.100 L 127.797 257.000 128.000 170.000 L 128.203 83.000 128.305 170.800 C 128.361 219.090,128.524 259.575,128.667 260.767 C 128.894 262.656,128.845 262.903,128.284 262.688 C 127.829 262.513,127.707 262.614,127.867 263.031 C 128.051 263.510,128.216 263.527,128.747 263.123 C 129.106 262.850,129.450 262.600,129.512 262.568 C 129.787 262.424,129.555 82.747,129.278 82.000 C 128.983 81.202,128.685 81.162,122.881 81.143 C 119.533 81.132,116.437 81.030,116.002 80.916 C 115.236 80.716,115.207 80.279,115.105 67.455 C 115.043 59.640,114.868 54.775,114.679 55.600 M115.600 55.146 C 115.600 55.791,115.805 55.855,117.100 55.618 C 117.925 55.467,118.775 55.325,118.990 55.302 C 120.460 55.144,119.341 54.400,117.633 54.400 C 115.915 54.400,115.600 54.516,115.600 55.146 M170.800 54.730 C 170.800 54.938,171.250 55.403,171.800 55.763 L 172.800 56.418 172.800 68.395 C 172.800 82.605,173.584 81.200,165.650 81.200 C 162.568 81.200,159.950 81.358,159.830 81.551 C 159.552 82.001,159.596 266.032,159.875 268.303 C 159.990 269.239,160.245 270.105,160.442 270.226 C 160.639 270.348,160.800 270.979,160.800 271.629 C 160.800 272.279,160.962 273.123,161.159 273.505 C 161.356 273.887,161.839 275.010,162.232 276.000 C 162.625 276.990,163.363 278.260,163.873 278.822 C 164.383 279.384,164.800 280.045,164.800 280.290 C 164.800 281.281,170.882 286.400,172.059 286.400 C 172.379 286.400,172.817 286.577,173.034 286.794 C 174.166 287.926,181.764 288.899,188.000 288.709 C 194.362 288.516,195.072 288.367,201.150 285.939 C 202.838 285.265,207.930 280.208,208.999 278.143 C 209.439 277.294,209.999 276.387,210.245 276.126 C 211.085 275.233,212.288 270.835,212.576 267.600 C 212.625 267.049,212.876 266.206,213.133 265.726 C 213.782 264.512,213.717 262.595,213.005 262.004 C 212.318 261.434,211.197 261.735,211.206 262.487 C 211.211 262.888,211.286 262.884,211.550 262.466 C 212.008 261.745,212.482 262.920,212.117 263.871 C 211.887 264.472,211.825 264.462,211.523 263.771 C 211.304 263.268,211.258 263.579,211.393 264.667 C 211.531 265.782,211.434 266.411,211.099 266.567 C 210.700 266.753,210.700 266.847,211.100 267.033 C 211.814 267.367,211.721 268.132,211.000 267.855 C 210.588 267.697,210.400 267.880,210.400 268.436 C 210.400 268.979,210.566 269.148,210.900 268.947 C 211.263 268.729,211.255 268.826,210.871 269.299 C 210.580 269.658,210.375 270.278,210.417 270.676 C 210.547 271.926,210.413 272.455,210.028 272.217 C 209.823 272.091,209.525 272.198,209.366 272.455 C 209.185 272.748,209.250 272.816,209.538 272.638 C 209.830 272.458,210.000 272.656,210.000 273.176 C 210.000 273.656,209.739 274.000,209.376 274.000 C 209.033 274.000,208.855 274.165,208.979 274.366 C 209.103 274.567,209.001 274.800,208.752 274.883 C 208.504 274.965,208.300 275.485,208.300 276.038 C 208.300 276.713,207.941 277.249,207.206 277.671 C 206.604 278.016,205.862 278.863,205.556 279.554 C 205.251 280.244,204.685 280.909,204.300 281.032 C 203.901 281.158,203.600 281.649,203.600 282.172 C 203.600 289.141,172.488 290.657,170.200 283.800 C 169.757 282.470,168.103 280.936,167.310 281.118 C 167.030 281.182,166.800 280.951,166.800 280.603 C 166.800 279.958,165.812 278.220,164.905 277.271 C 164.627 276.981,164.400 276.487,164.400 276.175 C 164.400 275.862,164.040 275.382,163.600 275.107 C 162.717 274.556,162.520 273.600,163.289 273.600 C 163.558 273.600,163.366 273.311,162.862 272.958 C 162.358 272.606,162.041 272.070,162.157 271.769 C 162.272 271.468,162.059 271.042,161.683 270.823 C 161.294 270.596,161.215 270.419,161.500 270.412 C 162.089 270.398,162.188 268.800,161.600 268.800 C 161.380 268.800,161.200 268.080,161.200 267.200 C 161.200 266.320,161.020 265.600,160.800 265.600 C 160.535 265.600,160.400 234.933,160.400 174.400 L 160.400 83.200 166.112 83.200 C 171.365 83.200,171.870 83.136,172.400 82.400 C 172.717 81.960,173.213 81.600,173.502 81.600 C 173.928 81.600,174.006 79.041,173.914 68.100 L 173.800 54.600 172.300 54.476 C 171.475 54.408,170.800 54.522,170.800 54.730 M198.800 67.957 C 198.800 80.029,198.870 81.541,199.442 81.761 C 199.808 81.901,199.985 82.263,199.854 82.603 C 199.657 83.117,200.515 83.200,206.013 83.200 L 212.400 83.200 212.400 85.213 C 212.400 86.474,212.587 87.283,212.900 87.379 C 213.995 87.716,225.363 87.934,224.600 87.603 C 224.160 87.412,221.405 87.244,218.479 87.228 L 213.158 87.200 213.242 84.584 C 213.354 81.149,213.532 81.239,206.391 81.111 L 200.200 81.000 200.094 68.426 C 200.026 60.314,200.132 55.708,200.394 55.446 C 201.067 54.773,200.856 54.400,199.800 54.400 L 198.800 54.400 198.800 67.957 M252.000 54.800 C 252.000 55.157,252.614 55.358,252.918 55.100 C 252.982 55.045,253.542 55.332,254.160 55.737 C 255.381 56.537,256.203 56.195,255.770 55.067 C 255.485 54.323,252.000 54.077,252.000 54.800 M254.400 80.800 C 254.070 81.013,251.060 81.191,247.710 81.194 L 241.621 81.200 241.058 82.300 C 240.664 83.072,240.607 83.694,240.867 84.384 C 241.070 84.926,241.197 86.915,241.149 88.805 L 241.060 92.241 239.906 92.072 C 239.129 91.958,238.821 91.722,238.963 91.351 C 239.196 90.745,238.980 90.707,237.843 91.153 C 237.096 91.447,240.701 93.600,241.940 93.600 C 242.563 93.600,242.528 92.110,241.900 91.899 C 241.508 91.767,241.519 91.507,241.953 90.692 C 242.491 89.682,242.438 87.996,241.755 84.456 C 241.575 83.519,241.663 83.005,242.048 82.762 C 242.803 82.284,243.703 82.309,243.400 82.800 C 243.239 83.060,245.228 83.198,249.076 83.194 C 252.334 83.191,254.772 83.043,254.492 82.866 C 254.122 82.631,254.249 82.402,254.960 82.021 C 255.522 81.721,255.847 81.266,255.725 80.949 C 255.477 80.303,255.214 80.274,254.400 80.800 M227.600 87.969 L 225.800 88.219 227.666 88.529 C 229.312 88.802,234.146 90.222,236.100 91.005 C 236.514 91.171,236.800 91.105,236.800 90.843 C 236.800 90.599,236.451 90.400,236.024 90.400 C 235.597 90.400,235.136 90.220,235.000 90.000 C 234.864 89.780,234.324 89.600,233.800 89.600 C 233.276 89.600,232.736 89.420,232.600 89.200 C 232.464 88.980,231.823 88.800,231.176 88.800 C 230.397 88.800,230.000 88.597,230.000 88.200 C 230.000 87.870,229.865 87.627,229.700 87.660 C 229.535 87.693,228.590 87.832,227.600 87.969 M223.200 116.400 C 221.548 116.602,222.321 116.686,226.300 116.735 C 229.523 116.774,231.600 116.957,231.600 117.200 C 231.600 117.420,232.284 117.600,233.120 117.600 C 234.669 117.600,235.352 117.834,238.958 119.600 L 241.000 120.600 241.084 187.800 C 241.159 247.353,241.338 262.750,241.915 259.200 C 242.004 258.650,242.330 258.056,242.638 257.880 C 242.947 257.704,243.200 257.379,243.200 257.157 C 243.200 256.934,243.020 256.864,242.800 257.000 C 242.580 257.136,242.398 257.012,242.395 256.724 C 242.393 256.436,242.395 226.365,242.400 189.900 C 242.407 141.230,242.290 123.600,241.961 123.600 C 241.682 123.600,241.609 123.220,241.766 122.592 C 242.527 119.561,232.433 115.379,226.010 116.065 C 225.675 116.101,224.410 116.252,223.200 116.400 M218.600 117.069 C 215.513 117.751,210.530 120.800,212.503 120.800 C 212.857 120.800,213.260 120.440,213.400 120.000 C 213.540 119.560,213.991 119.200,214.403 119.200 C 214.816 119.200,215.275 119.003,215.423 118.762 C 215.572 118.522,216.137 118.409,216.678 118.513 C 217.288 118.629,217.744 118.491,217.874 118.151 C 217.991 117.848,218.471 117.597,218.943 117.594 C 219.414 117.591,220.070 117.413,220.400 117.200 C 221.058 116.775,220.212 116.714,218.600 117.069 M212.400 122.800 C 212.400 123.796,212.558 124.350,212.800 124.200 C 213.020 124.064,213.200 123.434,213.200 122.800 C 213.200 122.166,213.020 121.536,212.800 121.400 C 212.558 121.250,212.400 121.804,212.400 122.800 M241.606 263.257 C 241.603 263.619,241.330 264.018,241.000 264.145 C 240.388 264.379,240.205 265.827,240.643 266.967 C 241.044 268.012,241.600 267.682,241.600 266.400 C 241.600 265.740,241.780 265.200,242.000 265.200 C 242.508 265.200,242.508 263.986,242.000 263.200 C 241.663 262.679,241.611 262.687,241.606 263.257 M128.611 265.182 C 128.209 265.832,128.479 270.567,128.952 271.177 C 129.294 271.617,129.282 271.683,128.900 271.453 C 128.625 271.288,128.400 271.343,128.400 271.576 C 128.400 271.809,128.541 272.000,128.713 272.000 C 128.885 272.000,129.066 272.485,129.115 273.078 C 129.164 273.670,129.380 274.264,129.595 274.397 C 129.811 274.530,130.035 275.755,130.093 277.119 C 130.152 278.484,130.335 279.600,130.500 279.600 C 130.665 279.600,130.800 280.230,130.800 281.000 C 130.800 281.770,130.980 282.400,131.200 282.400 C 131.420 282.400,131.600 282.934,131.600 283.587 C 131.600 284.479,131.750 284.717,132.200 284.545 C 132.530 284.418,132.800 284.514,132.800 284.757 C 132.800 285.001,132.575 285.206,132.300 285.213 C 132.000 285.220,132.086 285.442,132.515 285.768 C 132.908 286.066,133.178 286.474,133.115 286.675 C 132.948 287.206,134.091 290.000,134.475 290.000 C 134.654 290.000,134.800 290.191,134.800 290.424 C 134.800 290.657,134.637 290.746,134.437 290.623 C 134.238 290.500,134.280 290.834,134.531 291.365 C 134.782 291.897,135.125 292.246,135.293 292.142 C 135.462 292.038,135.600 292.233,135.600 292.576 C 135.600 292.933,135.942 293.200,136.400 293.200 C 137.067 293.200,137.200 293.467,137.200 294.800 C 137.200 295.853,137.379 296.400,137.725 296.400 C 138.465 296.400,140.065 297.971,139.785 298.424 C 139.657 298.631,139.923 298.800,140.376 298.800 C 141.038 298.800,141.201 299.056,141.206 300.100 C 141.210 300.936,141.330 301.215,141.541 300.881 C 141.804 300.467,141.974 300.487,142.384 300.981 C 142.760 301.434,142.771 301.600,142.425 301.600 C 142.165 301.600,142.059 301.772,142.189 301.983 C 142.319 302.193,142.690 302.264,143.013 302.140 C 143.336 302.016,143.600 302.114,143.600 302.357 C 143.600 302.601,143.611 302.935,143.624 303.100 C 143.659 303.535,145.281 305.200,145.670 305.200 C 145.851 305.200,146.367 305.567,146.815 306.015 C 147.263 306.463,147.790 306.730,147.986 306.609 C 148.182 306.488,148.457 306.751,148.598 307.194 C 148.739 307.637,149.022 308.023,149.227 308.050 C 149.432 308.078,149.765 308.123,149.967 308.150 C 150.168 308.178,150.468 308.335,150.633 308.500 C 150.798 308.665,151.341 308.800,151.840 308.800 C 152.395 308.800,152.845 309.110,153.000 309.600 C 153.140 310.040,153.432 310.400,153.651 310.400 C 153.869 310.400,153.936 310.220,153.800 310.000 C 153.664 309.780,153.844 309.600,154.200 309.600 C 154.556 309.600,154.736 309.780,154.600 310.000 C 154.464 310.220,154.723 310.400,155.176 310.400 C 155.629 310.400,156.001 310.535,156.003 310.700 C 156.008 311.179,158.059 312.000,159.253 312.000 C 159.995 312.000,160.428 312.257,160.600 312.800 C 160.816 313.482,161.205 313.600,163.227 313.600 C 164.542 313.600,165.600 313.778,165.600 314.000 C 165.600 314.220,166.151 314.400,166.824 314.400 C 167.600 314.400,167.949 314.558,167.780 314.833 C 167.592 315.137,168.453 315.202,170.656 315.052 C 172.385 314.934,174.970 314.874,176.400 314.918 C 187.716 315.273,199.310 314.673,202.400 313.573 C 203.796 313.076,207.600 312.841,207.600 313.252 C 207.600 313.906,209.603 313.421,209.828 312.713 C 209.978 312.238,210.454 312.000,211.251 312.000 C 211.946 312.000,212.344 311.833,212.200 311.600 C 212.059 311.372,212.404 311.200,213.000 311.200 C 213.731 311.200,213.957 311.351,213.747 311.700 C 213.440 312.211,214.788 311.287,215.236 310.680 C 215.366 310.504,215.848 310.332,216.308 310.297 C 216.768 310.262,217.056 310.091,216.949 309.917 C 216.841 309.743,217.123 309.600,217.576 309.600 C 218.029 309.600,218.400 309.420,218.400 309.200 C 218.400 308.980,218.786 308.800,219.259 308.800 C 219.731 308.800,220.886 308.170,221.826 307.400 C 222.766 306.630,223.651 306.000,223.793 306.000 C 223.935 306.000,224.506 305.460,225.061 304.800 C 225.617 304.140,226.308 303.600,226.598 303.600 C 226.928 303.600,227.047 303.301,226.916 302.800 C 226.754 302.181,226.904 302.000,227.577 302.000 C 228.056 302.000,228.352 301.846,228.236 301.659 C 228.120 301.471,228.650 300.797,229.413 300.161 C 230.244 299.468,230.800 298.643,230.800 298.102 C 230.800 297.480,231.038 297.200,231.566 297.200 C 232.033 297.200,232.541 296.731,232.864 296.000 C 233.156 295.340,233.531 294.800,233.698 294.800 C 233.864 294.800,234.000 294.519,234.000 294.176 C 234.000 293.833,234.184 293.667,234.410 293.806 C 234.635 293.945,234.794 293.911,234.763 293.730 C 234.603 292.812,234.842 291.578,235.142 291.764 C 235.330 291.881,235.465 291.486,235.442 290.888 C 235.416 290.214,235.590 289.838,235.900 289.900 C 236.175 289.955,236.400 289.732,236.400 289.405 C 236.400 289.077,236.703 288.456,237.072 288.024 C 237.442 287.592,237.807 286.829,237.884 286.328 C 237.960 285.827,238.198 285.242,238.411 285.029 C 238.625 284.815,238.800 284.316,238.800 283.920 C 238.800 283.524,238.980 283.200,239.200 283.200 C 239.420 283.200,239.600 283.009,239.600 282.776 C 239.600 282.543,239.375 282.480,239.100 282.635 C 238.700 282.861,238.700 282.810,239.100 282.379 C 239.375 282.082,239.600 281.437,239.600 280.944 C 239.600 280.451,239.780 279.936,240.000 279.800 C 240.220 279.664,240.400 279.373,240.400 279.153 C 240.400 278.933,240.220 278.864,240.000 279.000 C 239.780 279.136,239.600 279.057,239.600 278.824 C 239.600 278.591,239.870 278.400,240.200 278.400 C 240.530 278.400,240.800 278.220,240.800 278.000 C 240.800 277.780,240.620 277.600,240.400 277.600 C 239.736 277.600,239.949 276.605,240.812 275.680 C 241.631 274.800,241.740 272.797,241.031 271.650 C 240.852 271.360,240.906 270.934,241.155 270.685 C 241.714 270.126,241.740 268.400,241.190 268.400 C 240.609 268.400,239.911 270.425,240.119 271.508 C 240.214 272.009,240.137 272.515,239.946 272.633 C 239.756 272.751,239.600 273.341,239.600 273.944 C 239.600 274.547,239.423 275.217,239.207 275.433 C 238.990 275.650,238.781 276.676,238.742 277.713 C 238.702 278.751,238.541 279.600,238.384 279.600 C 238.004 279.600,237.369 281.313,236.791 283.895 C 236.533 285.048,235.980 286.426,235.561 286.958 C 235.143 287.491,234.800 288.230,234.800 288.601 C 234.800 288.973,234.461 289.754,234.046 290.338 C 233.631 290.922,232.795 292.300,232.188 293.400 C 229.935 297.480,223.457 304.303,220.718 305.481 C 220.103 305.745,219.600 306.129,219.600 306.334 C 219.600 306.539,219.285 306.812,218.900 306.942 C 218.515 307.071,217.930 307.349,217.600 307.560 C 216.506 308.257,212.650 310.000,212.200 310.000 C 211.956 310.000,210.847 310.454,209.734 311.008 C 208.621 311.563,207.010 312.095,206.155 312.190 C 205.300 312.285,203.610 312.629,202.400 312.954 C 196.247 314.606,175.197 314.946,169.600 313.484 C 168.390 313.168,166.067 312.596,164.438 312.213 C 162.810 311.830,160.869 311.176,160.126 310.759 C 159.383 310.341,158.449 310.000,158.050 310.000 C 157.651 310.000,156.998 309.640,156.600 309.200 C 156.202 308.760,155.561 308.400,155.176 308.400 C 154.361 308.400,151.200 306.785,151.200 306.369 C 151.200 306.214,150.766 305.978,150.235 305.845 C 149.705 305.711,147.770 304.166,145.935 302.410 C 144.101 300.654,142.285 299.111,141.901 298.982 C 141.516 298.853,141.092 298.309,140.958 297.773 C 140.823 297.238,140.553 296.800,140.357 296.800 C 140.160 296.800,140.000 296.530,140.000 296.200 C 140.000 295.870,139.640 295.240,139.200 294.800 C 138.760 294.360,138.400 293.758,138.400 293.462 C 138.400 293.166,138.040 292.598,137.600 292.200 C 137.160 291.802,136.800 291.336,136.800 291.166 C 136.800 290.995,136.260 289.689,135.600 288.263 C 134.940 286.837,134.400 285.517,134.400 285.329 C 134.400 285.142,134.043 284.322,133.607 283.509 C 133.171 282.695,132.696 281.291,132.552 280.388 C 132.407 279.485,132.089 278.533,131.845 278.273 C 131.600 278.013,131.420 277.080,131.445 276.200 C 131.469 275.320,131.224 273.520,130.900 272.200 C 130.576 270.880,130.233 269.080,130.138 268.200 C 129.791 264.987,129.314 264.045,128.611 265.182 M145.816 304.027 C 146.285 304.786,145.601 304.973,144.905 304.276 C 144.281 303.653,144.280 303.600,144.891 303.600 C 145.255 303.600,145.671 303.792,145.816 304.027 " stroke="none" fill="#0b2ccb" fill-rule="evenodd"></path><path id="path4" d="M172.500 82.198 C 171.847 82.941,171.869 83.200,172.586 83.200 C 172.908 83.200,173.365 82.840,173.600 82.400 C 174.116 81.436,173.303 81.287,172.500 82.198 M199.091 82.426 C 199.232 82.966,199.443 83.117,199.699 82.861 C 200.113 82.447,199.787 81.600,199.214 81.600 C 199.027 81.600,198.972 81.972,199.091 82.426 M254.688 82.165 C 254.025 82.668,254.023 82.723,254.656 82.966 C 255.037 83.112,255.479 83.001,255.662 82.714 C 256.395 81.558,255.875 81.265,254.688 82.165 M115.398 82.403 C 115.261 82.624,115.438 82.917,115.792 83.052 C 116.558 83.346,116.985 83.022,116.616 82.427 C 116.284 81.889,115.722 81.878,115.398 82.403 M242.048 82.762 C 241.663 83.005,241.575 83.519,241.755 84.456 C 242.438 87.996,242.491 89.682,241.953 90.692 C 241.519 91.507,241.508 91.767,241.900 91.899 C 242.558 92.120,242.548 93.600,241.889 93.600 C 241.608 93.600,240.342 93.062,239.075 92.405 C 233.603 89.566,227.528 88.118,219.729 87.793 C 216.688 87.666,213.713 87.487,213.118 87.395 C 212.338 87.274,212.092 87.376,212.239 87.757 C 212.391 88.154,214.033 88.343,218.721 88.504 C 227.552 88.807,232.943 90.032,238.886 93.083 C 243.061 95.227,243.135 95.145,243.280 88.179 C 243.399 82.427,243.296 81.972,242.048 82.762 M128.056 169.600 C 127.983 217.230,127.850 257.606,127.760 259.325 C 127.664 261.165,127.748 262.356,127.964 262.222 C 128.166 262.097,128.392 262.176,128.466 262.398 C 128.614 262.842,128.460 114.137,128.293 95.000 C 128.235 88.400,128.128 121.970,128.056 169.600 M219.600 116.197 C 216.201 116.879,213.571 117.908,212.700 118.895 C 211.682 120.049,211.841 120.688,212.900 119.697 C 215.564 117.202,223.687 115.642,230.003 116.413 C 237.561 117.335,242.442 119.899,241.766 122.592 C 241.609 123.220,241.682 123.600,241.961 123.600 C 242.290 123.600,242.407 141.230,242.400 189.900 C 242.395 226.365,242.393 256.436,242.395 256.724 C 242.398 257.012,242.580 257.136,242.800 257.000 C 243.306 256.687,243.358 122.545,242.852 122.232 C 242.660 122.114,242.393 121.465,242.258 120.792 C 241.525 117.124,228.321 114.446,219.600 116.197 M170.114 140.200 C 170.117 141.300,170.195 141.703,170.287 141.095 C 170.379 140.486,170.377 139.586,170.282 139.095 C 170.187 138.603,170.111 139.100,170.114 140.200 M285.293 250.800 C 285.293 251.570,285.375 251.885,285.476 251.500 C 285.576 251.115,285.576 250.485,285.476 250.100 C 285.375 249.715,285.293 250.030,285.293 250.800 M170.088 271.926 C 169.990 285.043,169.956 284.862,172.728 286.065 C 181.334 289.801,197.979 288.712,202.580 284.111 C 203.837 282.854,203.950 282.032,202.700 283.236 C 198.372 287.408,184.489 288.985,175.659 286.309 C 170.304 284.686,170.637 285.597,170.388 271.890 L 170.176 260.200 170.088 271.926 M211.515 262.456 C 211.403 262.755,211.434 263.347,211.585 263.771 C 211.840 264.486,211.879 264.491,212.131 263.836 C 212.280 263.449,212.248 262.857,212.060 262.522 C 211.785 262.030,211.680 262.017,211.515 262.456 M160.400 265.000 C 160.400 265.330,160.580 265.600,160.800 265.600 C 161.020 265.600,161.200 265.330,161.200 265.000 C 161.200 264.670,161.020 264.400,160.800 264.400 C 160.580 264.400,160.400 264.670,160.400 265.000 M241.600 266.424 C 241.600 267.137,241.767 267.544,242.000 267.400 C 242.220 267.264,242.400 266.713,242.400 266.176 C 242.400 265.639,242.220 265.200,242.000 265.200 C 241.780 265.200,241.600 265.751,241.600 266.424 M240.978 270.835 C 240.831 271.074,240.910 271.470,241.155 271.715 C 241.482 272.042,241.600 271.926,241.600 271.280 C 241.600 270.314,241.392 270.165,240.978 270.835 M209.950 271.400 C 209.923 271.510,209.871 271.735,209.836 271.900 C 209.801 272.065,209.547 272.605,209.272 273.100 C 208.868 273.827,208.871 274.000,209.288 274.000 C 209.572 274.000,210.001 273.370,210.242 272.600 C 210.483 271.830,210.527 271.200,210.340 271.200 C 210.153 271.200,209.978 271.290,209.950 271.400 M162.800 274.200 C 162.800 274.530,162.980 274.800,163.200 274.800 C 163.420 274.800,163.600 274.530,163.600 274.200 C 163.600 273.870,163.420 273.600,163.200 273.600 C 162.980 273.600,162.800 273.870,162.800 274.200 M240.138 276.617 C 240.008 276.957,240.001 277.335,240.124 277.457 C 240.474 277.808,241.200 277.213,241.200 276.576 C 241.200 275.809,240.437 275.838,240.138 276.617 M235.404 289.993 C 235.266 290.217,235.256 290.568,235.383 290.772 C 235.509 290.977,235.430 291.258,235.207 291.396 C 234.672 291.726,234.684 292.400,235.224 292.400 C 235.457 292.400,235.548 292.239,235.426 292.042 C 235.304 291.845,235.474 291.581,235.802 291.454 C 236.466 291.200,236.607 290.175,236.028 289.817 C 235.823 289.691,235.542 289.770,235.404 289.993 M136.400 293.776 C 136.400 294.093,136.580 294.464,136.800 294.600 C 137.020 294.736,137.200 294.477,137.200 294.024 C 137.200 293.571,137.020 293.200,136.800 293.200 C 136.580 293.200,136.400 293.459,136.400 293.776 M285.340 297.200 C 285.340 299.070,285.409 299.835,285.493 298.900 C 285.577 297.965,285.577 296.435,285.493 295.500 C 285.409 294.565,285.340 295.330,285.340 297.200 M138.000 296.650 C 138.000 296.896,139.589 298.400,139.849 298.400 C 139.918 298.400,139.887 298.171,139.780 297.891 C 139.565 297.331,138.000 296.239,138.000 296.650 M230.800 298.024 C 230.800 298.477,230.980 298.736,231.200 298.600 C 231.420 298.464,231.600 298.093,231.600 297.776 C 231.600 297.459,231.420 297.200,231.200 297.200 C 230.980 297.200,230.800 297.571,230.800 298.024 M144.905 304.276 C 145.277 304.648,145.693 304.840,145.831 304.703 C 146.224 304.309,145.620 303.600,144.891 303.600 C 144.280 303.600,144.281 303.653,144.905 304.276 M212.153 311.486 C 212.561 311.895,214.412 311.942,214.161 311.537 C 214.047 311.352,213.483 311.200,212.910 311.200 C 212.336 311.200,211.995 311.329,212.153 311.486 M210.000 312.400 C 210.000 312.620,210.270 312.800,210.600 312.800 C 210.930 312.800,211.200 312.620,211.200 312.400 C 211.200 312.180,210.930 312.000,210.600 312.000 C 210.270 312.000,210.000 312.180,210.000 312.400 M204.200 313.251 C 197.828 314.453,194.517 314.820,188.200 315.025 C 184.240 315.154,179.470 315.094,177.600 314.892 C 174.465 314.554,172.400 314.821,172.400 315.564 C 172.401 316.734,198.670 315.419,204.000 313.982 C 204.770 313.774,205.895 313.603,206.500 313.602 C 207.105 313.601,207.600 313.465,207.600 313.300 C 207.599 312.901,206.167 312.880,204.200 313.251 M164.200 314.000 C 164.336 314.220,164.707 314.400,165.024 314.400 C 165.341 314.400,165.600 314.220,165.600 314.000 C 165.600 313.780,165.229 313.600,164.776 313.600 C 164.323 313.600,164.064 313.780,164.200 314.000 " stroke="none" fill="#5c2486" fill-rule="evenodd"></path></g></svg>